<?xml version="1.0" encoding="utf-8"?>
<!-- Generator: Adobe Illustrator 17.1.0, SVG Export Plug-In . SVG Version: 6.00 Build 0)  -->
<!DOCTYPE svg PUBLIC "-//W3C//DTD SVG 1.1//EN" "http://www.w3.org/Graphics/SVG/1.1/DTD/svg11.dtd">
<svg version="1.1" id="Layer_1" xmlns="http://www.w3.org/2000/svg" xmlns:xlink="http://www.w3.org/1999/xlink" x="0px" y="0px"
	 viewBox="0 0 30 30" enable-background="new 0 0 30 30" xml:space="preserve">
<g>
	<g>
		<path fill="#000000" d="M15,0C6.7,0,0,6.7,0,15c0,8.3,6.7,15,15,15s15-6.7,15-15C30,6.7,23.3,0,15,0z M15,26C8.9,26,4,21.1,4,15
			C4,8.9,8.9,4,15,4c6.1,0,11,4.9,11,11C26,21.1,21.1,26,15,26z M11.3,19.7L11.3,19.7C11,20,10.7,20.8,11,21.1
			c0.3,0.3,1,0.5,1.2,0.2l0,0c2-2,3.7-1.9,5.6,0c0.3,0.3,1,0.1,1.3-0.2c0.3-0.3-0.1-1-0.3-1.3C16.7,17.4,13.3,17.4,11.3,19.7z
			 M20,11c-1.1,0-2,0.9-2,2c0,1.1,0.9,2,2,2c1.1,0,2-0.9,2-2C22,11.9,21.1,11,20,11z M12,13c0-1.1-0.9-2-2-2c-1.1,0-2,0.9-2,2
			c0,1.1,0.9,2,2,2C11.1,15,12,14.1,12,13z"/>
	</g>
</g>
</svg>
