<?xml version="1.0" standalone="no"?>
<!DOCTYPE svg PUBLIC "-//W3C//DTD SVG 1.1//EN" "http://www.w3.org/Graphics/SVG/1.1/DTD/svg11.dtd" >
<svg xmlns="http://www.w3.org/2000/svg" xmlns:xlink="http://www.w3.org/1999/xlink" version="1.1">
<metadata></metadata>
<defs>
<font id="travis_script_regular" horiz-adv-x="788" >
<font-face units-per-em="2048" ascent="1638" descent="-410" />
<missing-glyph horiz-adv-x="460" />
<glyph horiz-adv-x="0" />
<glyph horiz-adv-x="682" />
<glyph unicode=" "  horiz-adv-x="460" />
<glyph unicode="&#x09;" horiz-adv-x="460" />
<glyph unicode="&#xa0;" horiz-adv-x="460" />
<glyph unicode="!" horiz-adv-x="714" d="M86 139q13 16 23 21q29 13 69 -27q9 -9 28.5 -31.5t22.5 -25.5q5 -7 -4.5 -24t-27.5 -27q-7 -35 -43 -15q-33 17 -57.5 63.5t-10.5 65.5zM156.5 448.5q0.5 -14.5 3.5 -26.5q6 -23 10 -63t8.5 -65.5t14.5 -29.5q16 -6 42.5 8t34.5 29q5 8 7 21t8 54t18 95q30 133 59 229 q1 2 2.5 6.5t2.5 6.5l26 94l31 98l100 287q24 61 33 90q21 61 23 68q1 4 7 25t11 32q30 68 35 125q3 39 -25 67q-9 12 -22 15q-20 9 -43 12q-2 0 -8.5 1.5t-10 2t-9 0t-9.5 -3.5q9 -10 10 -18t-4 -27q-3 -16 -16 -14q-11 0 -11 -8q-2 -3 -20 -39l-4 -8t-3.5 -8.5l-1.5 -7.5 t1 -9t6 -8q1 -2 -1.5 -8t-2.5 -9q3 -7 0.5 -22.5t-4.5 -21t-6.5 -20t-6.5 -20.5q-4 -13 -14 -39.5t-14 -40.5q-8 -31 -27 -90q-4 -9 -23.5 -63t-33.5 -88q-5 -11 -11.5 -33.5t-7.5 -24.5l-24 -96q-2 -7 -7.5 -23t-7.5 -26q-1 -14 -9.5 -39t-10.5 -33q2 0 2 -2l-6 -18 q-8 -11 -8 -29q0 -6 -4 -14v-4q-4 -14 -6.5 -21.5t-3.5 -9.5t-2 -3t-2 -1.5t-3 -5.5l-6 -15q-5 -13 -13.5 -37.5t-13.5 -39t-12 -35.5t-10 -36t-5.5 -31.5t-2 -31z" />
<glyph unicode="&#x22;" horiz-adv-x="536" d="M164 1159q5 6 37 21t35 24q25 71 66 171.5t67 172.5q1 10 2.5 16t-4 13.5t-9 11.5t-13.5 10t-16.5 9.5t-18.5 9.5t-19 10q-74 -176 -92 -235q-31 -105 -35 -234zM371 1161q5 6 18.5 2t23 -7.5t13.5 3.5q22 59 71.5 185.5t77.5 205.5q9 28 -24 60q-31 30 -51 17 q-5 -3 -8 -9q-72 -170 -89 -230q-28 -97 -32 -227z" />
<glyph unicode="#" horiz-adv-x="1191" d="M0 485v2q-2 39 29 75.5t82 45.5q91 15 186 27q0 9 6 12l6 23l-2 2q3 10 8.5 27t9 30.5t5.5 26.5q2 11 8 30t8 27l27 113q2 7 9.5 30t12.5 35l6 21q-6 0 -10 -2q-11 -1 -31 -6.5t-24 -6.5l-53 -12q-214 -57 -224 -29q-1 3 0 7t3.5 11.5t3.5 11.5t0.5 9.5t-3.5 10.5 q-9 18 9 24q25 11 43 21q16 12 28 28q15 15 27 33q8 13 23.5 20.5t40 9t44 0.5t54.5 -3.5t53 -3.5q15 -1 20.5 -1t20.5 2t20 3q1 7 4.5 17.5t4.5 12.5q5 15 13 33t13 37q4 16 14.5 45.5t14.5 44.5q2 6 7.5 23.5t8 26.5t5 23.5t1.5 27.5q-1 3 2 10t3 8q-3 5 -4.5 10t-0.5 11 l1.5 9t3.5 10t4 9q17 40 20 45q4 8 10 8q13 -5 17 15q5 21 4 31.5t-8 23.5q3 3 6.5 4t7 0.5t6 -1t6.5 -2.5l6 -3l39 -19q15 -10 19 -18q21 -33 18 -84q-7 -62 -39 -145q-7 -16 -20 -68l-25 -78q-5 -16 -12 -30.5t-10 -22.5q16 4 28 4q64 8 101 10q53 13 98 21q1 2 2 5.5 t2 4.5q20 59 17.5 59.5t17.5 59.5q1 4 5.5 14t6.5 16t1.5 15t-5.5 16l107 293q2 1 9.5 4t11.5 4.5t10.5 -0.5t11.5 -8q1 10 5 12.5t11 -2.5q19 -14 31 -8q14 2 17 0.5t9 -10.5l19 -18q6 -12 6 -15q-1 -14 -5 -30t-7.5 -24t-13 -30t-11.5 -26q-40 -102 -47 -123 q-3 -8 -11.5 -34.5t-15.5 -39.5l-8 -16l-8 -19q-16 -45 -27 -80q5 0 7 -2q4 0 7 -1t6 -2.5l5 -2.5l90 17q3 1 10.5 4t10.5 4q4 -4 4 -6q-4 -2 -19.5 -9t-27.5 -12q17 -4 22 -2q59 15 117 33q20 5 67 -10l-59 -21q-3 -2 -8 -6t-8 -6q2 -1 5.5 -3t6 -3t6 -3t6.5 -3 q0 -9 -2 -11.5t-14 -3.5q-40 -12 -58 -16q-17 -4 -52.5 -10.5t-53.5 -10.5q-10 -2 -28.5 -9t-28.5 -9h-7l-6 -17q-6 -2 -20.5 -3t-20.5 -3q-11 -30 -16 -49q-8 -26 -31 -114q-2 -7 -41 -156q-10 -45 -14 -57l295 38q47 8 65 -18q-44 -12 -135 -47t-139 -47q-64 -14 -107 -27 q-4 -18 -11 -58t-11 -61q-1 -6 -5 -18t-5 -18q-5 -48 -8 -64l-35 -170q-2 -5 -8 -29q-2 -5 -8 -16t-7 -18q-2 -9 -4 -28t-4 -28q-3 -10 -8.5 -29.5t-9 -32t-10 -29t-13.5 -28.5q-10 -19 -16 -29t-20.5 -23t-31.5 -17q2 4 6 9.5t5 8.5q2 6 2 21l-6 -6q-3 -1 -29 -11 q17 187 111 643q-48 -9 -134 -20q-99 -14 -135 -18q-42 -151 -61 -238q-14 -63 -21.5 -112t-10 -65t-7.5 -24q-9 -18 -34 -31t-40 -6q-8 5 -9.5 36t-2.5 78.5t-6 76.5q-1 10 -1.5 21.5t0 21.5t3.5 25t4.5 24.5t6 27t7 26t9 29t9 27.5t10 30.5t9.5 29.5q-61 -14 -68 -18 q-19 -11 -78 -17t-81 -2q-21 2 -29 10h-2zM424 651q4 1 12.5 2t12.5 2q121 15 260 35l4 17q4 19 12 56t12 56q13 43 21 80q3 14 10 37t10 33q5 24 15 53q7 25 14 41q-13 0 -19 -2q-5 -21 -16 -55l-12 -50q-6 -22 -21.5 -71.5t-23.5 -77.5q0 -1 1 -4.5t1 -5.5q-1 -4 -2 -11 t-2 -10q0 -2 -11 -8q0 1 -1 4.5t-1 5.5q4 17 11.5 50t11.5 49q20 86 49 182q-46 -5 -88 -15q-11 6 -30 6t-29 -8q-3 -2 -7.5 -2t-10.5 1t-9 1q-3 -1 -10 -1t-10 -1q-4 0 -12 -3t-11 -3q-2 0 -5.5 -1t-4.5 -1l-76 -227q-6 -20 -17.5 -59t-17.5 -58q-2 -14 -10 -37zM563 -41h8 q-1 3 2.5 10t3.5 14.5t-8 14.5zM598 131h6q0 15 4 55q-23 -17 -10 -55zM598 195q1 0 2 -1t2 -1q1 1 3.5 3t4 3.5t3 3.5t1.5 4q5 15 9 39l28 170q3 17 11.5 53t11.5 55l12 54q-3 -1 -9 -2.5t-9 -2.5q2 -4 2 -10l-13 -59q-1 -5 -9 -56t-16 -88t-16 -55q-2 -3 -2 -16 q-4 -38 -8 -53q-1 -7 -4 -20.5t-4 -20.5z" />
<glyph unicode="$" horiz-adv-x="944" d="M41 246q15 43 27 63q6 8 18 -6.5t20 -33.5l9 -19q22 -134 123 -148l43 195q4 2 9 11.5t9.5 21.5t7.5 16q4 10 21.5 73t19.5 66q3 6 12 52t9 55l8 33l-4 14l-23 -94l-22 -88l-2 -6q-2 -7 -5.5 -14.5t-6.5 -10.5l-3 -4q72 295 76 309q-43 82 -76 160q-99 243 86 428 q79 77 168 141q5 41 29.5 122t38.5 116q12 25 24 37v4q1 0 2.5 -1t2.5 -1q31 -11 47 -67t2 -130q41 16 75 29q57 21 119 -17.5t76 -99.5q16 -77 -45 -123q-63 -46 -150 -43q-60 3 -92 66q28 14 85 44t85 44q-2 2 -2 6q-70 -13 -94 -21q-50 -17 -98 -45q-50 -196 -105 -393 l-84 -315q48 -91 84 -154q43 -80 84 -162q75 -149 -55 -252q-132 -111 -305 -149l-8 -2q-13 -51 -37 -137q-18 -75 -51 -95q14 77 8 126t10 120v8q-4 4 -14 19q-36 25 -75 88t-60 114zM324 106q33 9 84 33q91 75 98 82q93 96 43 217q-35 81 -88 162v2q-24 -88 -66 -239 t-71 -257zM393 1069q-44 -100 10 -235l7 -17q4 15 12 45.5t12 46.5q79 292 92 346q1 3 2 11t2 12q-89 -89 -137 -209z" />
<glyph unicode="%" horiz-adv-x="1189" d="M125 949q5 28 18.5 81.5t18.5 89.5q7 49 24 91t21 71q-3 16 41 78.5t96 118t68 51.5q36 3 100 -64q43 -42 56.5 -67.5t17.5 -77.5v-25v-14q-2 -10 -9.5 -29t-9.5 -24q-13 -36 -18 -70q0 -10 -2 -14q-4 -8 -4 -12q-8 -13 -15 -31q-13 -31 -20 -41q-8 -11 -10 -21v-24 q0 -6 -9 -15q-36 -41 -47 -51q-12 -8 -14 -14q-2 -4 -2 -12q-3 -14 -14 -29l-64 -92q-2 -2 -7 -6t-7 -6q-5 -5 -18 -20t-23.5 -24.5t-22.5 -13.5q-20 -4 -28 -4q-27 0 -41 6q-8 3 -15 10q-1 1 -8.5 19t-13.5 27q-28 44 -36 87t-3 71zM127 78q-7 27 66 170t129 237l10 13 q2 1 16 28h2v2l6 13v2q0 10 9 16h2v2q6 12 8 14l2 7h-2l6 10q11 17 18 37q2 7 13 22l6 13l33 71l8 15q2 6 7.5 15t6.5 11q25 34 64 96q6 12 8 13q2 3 24.5 45.5t34.5 66.5l19 37q205 369 217 393q3 6 8 11q18 40 18 55v2q8 8 2 14t2 19l4 4q16 20 23 27l2 2l4 -2q22 0 27 16 q9 21 4 31l8 -2q2 -2 6 -2q9 -2 25 -8t18 -7q14 -5 17 -10q22 -22 16 -47q-8 -43 -43 -90q-5 -5 -16 -27q-1 -3 -4.5 -8t-4.5 -8q-8 -12 -73 -135l-140 -250q-6 -10 -34 -64q-30 -59 -47 -84l-127 -207l-17 -30q-3 -5 -10.5 -19.5t-11.5 -21.5l-7 -11q-2 -5 -30 -59v-2 q-2 -2 -2 -6h-2q-195 -390 -203 -408q-26 -66 -33 -98q-6 -21 -12 -25q-6 -8 -25.5 -13.5t-34.5 -4.5q-6 0 -8 2q-6 4 -6 53q0 2 -2 27t-4 37zM251 851q28 8 109 154q100 180 122 279q2 8 3 14q11 62 9 66q-8 6 -48.5 -40.5t-39.5 -59.5q0 -17 -13 -17q-11 -2 -27 -33 t-55 -127q-94 -246 -60 -236zM557 193q-29 78 29 246.5t147 260.5q33 33 33 41q0 11 12 15q2 0 2 2l51 26q4 2 11.5 6.5t11.5 6.5q20 4 29 4q63 8 92 0q7 -7 16 -13q29 -18 29 -32q-2 -6 1 -11.5t9 -5.5q5 0 13 -18t14 -43q11 -40 10.5 -63t-12.5 -72q-29 -115 -90.5 -219.5 t-143.5 -178.5q-30 -29 -71 -48t-66 -17q-36 2 -74 35.5t-53 77.5zM690 176q0 -14 9 -26t22 -13q22 0 39 29q96 138 170 285q24 48 28 65q9 38 9 76q4 54 4 82q4 18 -4 28q-6 10 -20 10.5t-23 -7.5q-14 -10 -27 -41q-14 -31 -31 -59t-48 -72t-38 -54q-75 -112 -80 -200 q0 -34 -2 -50q-1 -6 -4.5 -24.5t-3.5 -28.5z" />
<glyph unicode="&#x26;" horiz-adv-x="854" d="M0 395q-2 37 8 75t43 110q38 82 58 112.5t67 77.5q167 161 348 248l4 2v4q2 4 4 10t3 8l20 68l4 6l-6 4q-34 21 -39 35v2l-2 2q-29 22 -86 60q-36 24 -54 36.5t-49.5 41.5t-62.5 65q-22 28 -25 44t9 28v2q7 10 30 28q25 8 33 29q8 18 62 46.5t86 29.5q108 3 237 -21h8 l2 8q3 20 0 37q7 16 -4 27l-2 2q1 0 4 6q2 2 2 6l19 29h2q25 4 33 29q0 4 1 13.5t1 14.5l2 -2q43 -5 47 -6q15 -5 16 -6q25 -14 25 -41q0 -40 -27 -102q-10 -13 -10 -27l-4 -8l10 -4q11 -1 28.5 -5.5t24.5 -5.5q25 -7 25 -14q3 -13 -25 -55q-18 -21 -39 -39q-25 -25 -45 -23 q-3 0 -9 1t-9 1q-7 -1 -12.5 -9.5t-3.5 -16.5l-2 -8q-8 -25 -35 -105l-2 -4l6 -4q4 -7 18 -10l2 -2l2 2q12 0 25 -19q28 -41 14 -69q-15 -31 -54.5 -72t-88.5 -74l-4 -2l-6 -18q-17 -68 -33 -99l-94 -249l-13 -39q-2 -10 -7 -26t-7 -23l-8 -23q-4 -16 -19 -59v-4q0 -3 -2 -5 v-2l-75 -266l-2 -2q0 -3 -3 -8.5t-4 -7.5q-3 -11 17 -21q5 -3 35 -8q41 0 69 14q1 0 3 1t3 1q5 5 17 9q9 5 35 14q168 115 217 115q12 -1 11.5 -28t-11.5 -60q-6 -28 -25 -47q-10 -10 -20 -15q-14 -7 -21 -14q-7 -5 -15.5 -18t-12.5 -17q-10 -9 -36.5 -21t-35.5 -20l-88 -31 l-13 -4q-65 -21 -112 -24h-35q-3 0 -8 1t-8 1l-9 2l-2 -10q-3 -15 -6 -21q-11 -62 -16 -113q0 -20 -4 -24q-5 -8 -23.5 -18t-32.5 -11h-4q-2 4 -7 23t-7 24q-8 43 -20 72q0 20 2 33q-3 -2 -3 3q0 6 11 52l6 23l2 6l-4 4q-6 4 -14 12q-48 40 -93 88q-75 90 -98 195v51v4 q-4 8 -4 12zM129 481q-6 -60 2 -112q9 -57 43 -106.5t84 -78.5q5 18 16.5 53t16.5 52v2q1 6 4 14.5t4 11.5l102 330l9 37q4 12 4 18q1 1 5.5 12t8.5 17q5 12 22 56.5t23 62.5l8 14q0 3 2 9l5.5 16.5t5.5 19.5l6 17l-19 -8q-110 -43 -167 -82t-97 -99q-73 -87 -88 -256z M442 1438q22 -4 56 -35.5t47 -38.5q17 -17 33 -25q7 -4 18.5 -12t15.5 -10l9 -6l24 73h-2q1 7 4 18t4 15q-22 4 -35 8h-10q-10 5 -26 5q-15 1 -63 2t-75 6z" />
<glyph unicode="'" horiz-adv-x="268" d="M207 1169q5 5 35 22t32 26q66 249 93 356q7 27 -12 41.5t-62 30.5q-2 1 -3.5 1.5l-3 1t-3.5 1.5q-50 -157 -66.5 -250t-9.5 -230z" />
<glyph unicode="(" horiz-adv-x="690" d="M41 287q6 -36 6 -39v-21l2 -18v-19q0 -12 2 -18q3 -31 25 -111q1 -3 2 -9t2 -9q2 -2 2 -8q2 0 2 -4q2 -2 2 -4q4 -11 10 -17q4 -8 4 -10q4 -4 4 -8q2 -4 9.5 -26.5t13.5 -33.5q2 -3 3.5 -6t2.5 -6t2 -4q2 -4 6 -8l11 -21l4 -4q4 -8 10 -14q25 -36 47 -53q3 -2 19.5 -12.5 t25.5 -14.5q16 -4 25 -4q8 0 12 2q1 0 3 1t3 1l2 2h2v2h-2h-2q-2 2 -4 2q-4 0 -8 4q-4 2 -8 6l-7 9h9q2 0 14 4q4 0 12 4q-4 4 -4 6l-6 6q-2 3 -5.5 7.5t-4.5 6.5l-6 9l-4 6q-2 2 -5.5 7t-5.5 7q-26 43 -35 64l-6 16l-8 16l-2 9l-4 8l-6 18l-6 17l-6 18q-1 4 -4.5 16 t-4.5 19q-16 62 -26 145l-2 19v20q-2 12 -2 37l-2 37v10v29q-9 -9 -9 -17v-16v-16v-31q1 -12 1 -34t1 -34q0 -3 1.5 -8t1.5 -8v-8q2 -2 2 -8l4 -17q0 -1 1 -4t1 -4q1 -1 2 -4t2 -4v-17l4 -28q0 -2 1 -6.5t1 -6.5l2 -14q11 -33 14 -39l-6 -4l-6 4q-5 4 -6 8l-6 21q-2 4 -2 10 q-2 4 -2 12l-4 25q-1 4 -2.5 12.5t-2.5 12.5l-2 12v12q-1 5 -2 14t-2 13q-1 11 -4.5 51.5t-3.5 62.5v25v27v24q0 4 1 12.5t1 12.5l2 24v7v6l2 12l2 25v12q0 2 1 6t1 6l2 31q1 5 2.5 15.5t2.5 15.5l4 30l2 17l2 6l2 8q8 61 14 88l6 39q0 6 2 8l2 10l4 19q5 25 5 28l2 7l2 8 q1 2 2 6.5t2 7.5q4 30 8 45q2 16 10 43q6 18 8 21l13 18l4 -2v-8q-2 -6 -5.5 -17.5t-5.5 -17.5l-8 -35q-4 -12 -4 -16l-4 -19l-8 -34l-12 -54q0 -4 -1 -10.5t-1 -9.5l-5 -21l-6 -41q-2 -8 -2 -20l-4 -20l-2 -21v-10q-2 -4 -2 -10q0 -2 -2 -6.5t-2 -6.5q-4 -12 -4 -20 q0 -7 6 -13q0 2 2 5.5t2 5.5l4 26l2 13q1 2 2 7t2 7q1 9 4.5 26.5t4.5 26.5l10 49l2 15q0 8 2 12l4 25l6 22l6 25q1 10 11 49q2 4 2 10l2 8l6 19l8 37q2 6 5 18t5 18l6 19q0 4 4 16q1 4 4.5 12.5t4.5 12.5q1 2 2 6t2 6q0 4 2 6q0 1 1 3t1 3q2 4 5 13.5t5 13.5q1 2 2 6.5 t2 7.5q2 2 2 6l4 7q2 5 6.5 14t6.5 14q4 8 4 15q5 5 8 14l12 27q1 1 2 4t2 4l4 6l6 14q30 55 66 107q4 8 16 24q1 1 4 5t5 6l8 12q3 3 8 10t8 10q4 6 17 19l8 14l12 12q15 15 31 15l10 10q6 6 10 12l15 15l8 8q2 1 5 4t5 4q1 2 4 5t4 5q2 0 6 4t6 4l11 11q4 4 6 4l2 4l4 2 q6 6 10 8l6 6l5 2l2 2q50 38 94 64q2 2 10 6l8 4l15 8l12 6q0 3 2.5 11t3.5 10q4 12 -10 18q12 3 12 6l2 5q-2 2 -2 4q-1 0 -2 1t-2 1q-2 2 -10 14q0 4 -2 6q0 6 2 8q3 5 4 8.5t-1.5 6t-4.5 4t-6.5 3.5t-6.5 3l-12 6l-12 6q-2 0 -5 1t-5 1h-7h-4q-28 -7 -67 -30 q-13 -6 -31 -21q-6 -2 -14 -10l-15 -10q-69 -53 -121 -105l-16 -16q-15 -15 -18 -17q-2 -3 -8.5 -8.5t-8.5 -7.5l-14 -18q-2 -3 -6 -9.5t-6 -9.5q-6 -9 -15 -18l-6 -11q-4 -2 -8 -10q-8 -12 -16 -20q-4 -8 -9 -13q-1 -1 -3.5 -4.5t-4.5 -5.5q-2 -4 -14 -22q-14 -18 -17 -25 l-16 -24q-1 -2 -4 -6.5t-4 -6.5l-6 -12q-3 -4 -8.5 -12.5t-8.5 -12.5q-6 -12 -26 -47q-6 -12 -21 -47q-2 -3 -5 -10t-5 -10l-6 -21q-4 -8 -6 -14l-4 -6l-2 -8q-2 -5 -5.5 -15.5t-5.5 -15.5q-4 -10 -11.5 -30.5t-10.5 -29.5l-6 -20l-6 -23l-13 -43l-10 -43l-4 -20 q-2 -4 -2 -10l-4 -13l-6 -30l-4 -17l-3 -4v-4l-2 -8l-14 -64l-12 -67l-4 -23l-6 -45q0 -4 -1 -11t-1 -11l-5 -23q-6 -51 -14 -153q-6 -165 -6 -166zM174 41q7 -3 10 -10q2 -3 6 -13q5 -10 5 -14v-18l-7 -2q0 6 -4 14q0 2 -4 14q0 2 -1 6.5t-1 6.5q-2 4 -2 8q0 1 -1 3.5 t-1 4.5zM242 1008q4 10 8 30q10 -13 8 -16q0 -1 -16 -14zM260 -145q0 8 2 12q2 -3 23 -31l-4 -4l-7 6q-1 1 -4 3t-4 3t-6 11z" />
<glyph unicode=")" horiz-adv-x="772" d="M41 -106q1 -3 1 -11t1 -12q0 -11 16 -14q-10 -7 -10 -11q0 -3 8 -6q2 -2 7 -5t6 -5q8 -8 6 -12q-1 -5 0 -8.5t4 -5.5t5 -2.5t7 -1.5t6 -1q4 -2 13 -2q4 -2 14 -2q12 0 18 2q26 17 50 45l10 13q2 2 10 14l10 12l8 13q68 96 82 118q5 8 16 23t19 27t12 24q0 1 4 6.5t5 9.5 q1 2 4.5 10t5.5 11q3 10 10 20q2 3 5 11.5t5 11.5q8 12 13 22q2 3 12 23l12 22q8 15 10 25q33 68 43 94q1 2 5 11t6 12q1 2 2 6t2 6q1 1 2 4.5t2 5.5l12 39q1 2 4 12.5t4 16.5q4 8 4 12l7 15q4 20 8 28q1 5 4 14.5t4 14.5l10 41q2 2 2 10l2 10l6 19l9 41q1 7 4 20.5t4 20.5 q2 11 7 31.5t7 27.5l12 61q3 3 3 11l10 51q0 4 1 11t1 11l6 41l2 11v10l2 22l4 35l2 37q4 50 4 74q2 2 2 8v29l2 20v8v39v11q0 6 -1 19t-1 19q0 7 -4 19q0 3 -1 9t-1 9q0 2 -1 5.5t-1 5.5v8l-2 16q0 25 -4 37q0 9 -4 25l-2 4v4l-10 30q0 3 -4 15l-9 24q0 1 -4 13t-8 18 q0 4 -4 8t-6 8q-6 6 -10 17q-9 18 -11 26q-7 18 -14 27q-1 3 -4 8t-4 6l-10 15q-6 9 -11 14l-2 4l-4 4l-4 6q-4 4 -12 12.5t-12 12.5q-9 9 -25 21l-23 12q-4 4 -10 4l-12 6h-6q-1 0 -3 1t-3 1h-7h-4q-4 0 -12 -4q-1 0 -3 -1t-3 -1l-2 -2l-2 -2h4l4 -2q2 0 4.5 -1t3.5 -1 l8 -6q1 -1 3.5 -4.5t3.5 -4.5h-9q-3 -1 -26 -10l22 -24q2 -2 5.5 -6.5t5.5 -6.5t10 -14l8 -12l10 -15q2 -3 6 -8.5t6.5 -10.5l4.5 -9l16 -31q1 -2 3 -7t3 -7q1 -3 4 -8.5t4 -8.5l6 -14l2 -4v-4l5 -8l6 -17l4 -14q22 -69 31 -133l2 -19q2 -4 2 -16l2 -17l2 -10v-8l2 -35v-35 q10 7 10 17v14v6l-2 8l-2 29v17q0 10 -2 14v16q0 11 -2 15q0 10 -2 16v8q-2 2 -2 6q-1 3 -5 13.5t-6 15.5q-2 6 -2 16l-2 13l-4 12q0 9 -4 25q-1 3 -4 9t-4 9l-6 18l4 4q4 -4 8 -4q4 -4 4 -6q4 -6 8 -18q0 -4 2 -6v-4q3 -6 3 -11l4 -10v-6q2 -2 2 -6l4 -23l2 -6v-6l2 -12 l2 -11v-6q0 -4 2 -6q0 -4 1 -13t1 -13l2 -7v-6l2 -14q1 -4 2 -13t2 -14l2 -26v-13v-4v-6l2 -24v-45q-2 -8 -2 -23v-23l-2 -24v-4l-2 -6v-13l-6 -55l-4 -29v-8v-6l-4 -14q-1 -7 -2 -21t-2 -20q-2 -4 -2 -10l-6 -31l-3 -19l-2 -8q0 -6 -2 -10l-6 -35l-6 -27q-4 -16 -4 -26 q-4 -12 -4 -21q0 -2 -1 -5.5t-1 -4.5l-2 -10q-1 -7 -4 -21.5t-4 -21.5q-2 -7 -10 -21t-9 -16l-6 2v8q3 7 8 33l13 49l4 17l6 32l6 27q0 9 4 25q4 21 20 151q0 5 5 10q4 16 4 21l-6 12l-7 -10l-2 -25q-2 -4 -2 -12l-2 -12l-6 -25q0 -8 -4 -24l-6 -48q-2 -4 -2 -12l-4 -10 l-4 -23q-2 -15 -11 -47l-4 -22l-2 -13l-2 -6l-2 -4q-4 -26 -8 -35q0 -3 -1 -9t-1 -9l-4 -16l-8 -35q-1 -4 -5 -16.5t-6 -18.5q-25 -106 -71 -209l-13 -29l-2 -6l-4 -6l-6 -14q-1 -2 -3 -6.5t-3 -6.5q0 -2 -1 -4.5t-1 -3.5l-4 -6q-8 -16 -12 -26q0 -2 -5 -7q0 -1 -1 -3t-1 -3 l-6 -12l-6 -12l-4 -4q0 -1 -1 -3.5t-1 -3.5q-5 -8 -13 -22.5t-12 -20.5q-1 -4 -4.5 -8.5t-3.5 -5.5q0 -4 -4 -8q0 -2 -4 -6q-12 -17 -27 -19l-6 -10q-7 -10 -18 -31l-15 -20l-14 -21l-16 -24q-11 -11 -17 -23q-52 -64 -69 -84q-4 -5 -12.5 -13t-10.5 -11zM397 1702l4 4 q2 -2 7.5 -5t7.5 -5q4 -4 6 -8q3 -6 0 -15l-6 10q-1 0 -2 1.5t-2 1.5l-2 4l-7 6zM459 608.5q1 4.5 14 14.5l-6 -31q-9 12 -8 16.5zM492 1569l6 2l2 -6q0 -1 1 -3t1 -3q1 -2 2 -6.5t2 -6.5q1 -3 4 -11.5t4 -14.5q-22 8 -22 49z" />
<glyph unicode="*" horiz-adv-x="1228" />
<glyph unicode="+" horiz-adv-x="999" d="M63 702q-5 18 0 27q3 12 3 31q-3 15 6 12q-2 6 -2 12.5t1 9.5t4 10l3 7l135 23q2 -6 5.5 -9t6 -3t7 0.5t6.5 0.5q26 3 96 9.5t96 9.5q4 1 12.5 2t12.5 2l16 31q4 12 4 16q4 6 8 22l2 5q1 2 4 12.5l5 17.5v2q0 2 2 2v2q10 34 31.5 122t21.5 98q5 34 0 57q-3 12 2 14 q1 2 19.5 0.5t31.5 -6.5l8 -2q8 -5 25 -39q13 -27 27 -45q15 -19 -6 -98.5t-42 -122.5l-4 -6q-3 0 -8 -15v-2l-2 -6q4 -8 -2 -8v-2q-2 -2 -2 -6l-2 -4l2 -2q0 -1 -1 -2t-1 -2q-5 -16 -4 -21q0 -4 -4 -12q0 -1 -1 -3t-1 -3l-2 -4q12 0 36 4q6 1 19.5 2t19.5 2q28 4 41 4 q5 1 14.5 2.5t17.5 2.5t15 1q14 2 43 2q13 0 19 2l6 6l-2 4q-6 -2 -18 -2q-8 -2 -23 -2q-2 0 -4.5 1t-3.5 1q-8 -6 -27 -6q-5 -1 -14.5 -1t-13.5 -1q-4 0 -13.5 -1t-13.5 -1q-5 0 -8 6l127 12q103 5 129 5q-1 -2 -2 -7t-2 -8l-2 -4q4 2 8 2l8 4q-2 -17 -27 -32 q-10 -8 -51 -21q-3 -1 -11 -2t-11 -2q-7 0 -15 -8q-2 0 -6 -1t-6 -1l-43 -13q-19 0 -27 -2q-3 0 -8 -2t-8 -2q-10 -2 -30.5 -5t-30.5 -5q-11 -2 -31 -7t-27 -7q-4 -1 -11 -3.5t-12.5 -4t-9.5 -3.5l-28 -8q0 -1 -1 -3t-1 -3l-4 -6q-8 -15 -19 -59q-4 -17 -6 -19l-74 -207 q0 -4 -2 -6q-8 -16 0 -33q0 -6 4 -10q9 -5 4 -10l-2 -2l-12 -12h-2q-1 0 -2 1t-2 1q-18 6 -18 -4q-4 -12 6 -19q-4 0 -8 4q-2 0 -5 1t-4 1q-38 19 -45 23l-20 10q-28 22 -31 37q-3 31 12 49q2 2 6 14q0 3 3 9q2 2 24 69q35 111 45 131l10 27q-5 -1 -16 -2t-16 -2 q-16 -4 -74.5 -9t-81.5 -14q-6 -4 -18.5 -4h-14.5l-57 -12q-33 -13 -51 -6q-1 1 -2 4.5t-2 5.5q-5 15 -5 20zM430 819q10 0 14 2q-4 8 -6 9.5t-3.5 -0.5t-4.5 -11zM815 860h25v4q-19 11 -25 -4zM897 872q4 -4 7 -4.5t6 1t5 1.5v2h-18z" />
<glyph unicode="," horiz-adv-x="294" d="M34 -91.5q-1 4.5 0.5 11.5t9.5 18t22 25q4 4 24 29q0 2 1 5.5t1 4.5q6 20 13.5 37t9.5 24q4 9 12 23q1 10 8.5 27t7.5 18v8q0 11 14 34t23 30q1 1 15 8l2 -2q22 -13 33 -37.5t1 -46.5l-36 -72q-42 -78 -50.5 -83.5t-50.5 -82.5q-6 -15 -22 -18q-17 -1 -24 8.5t-7 18.5 q0 1 -3 4.5t-4 8z" />
<glyph unicode="-" horiz-adv-x="768" d="M16 709v2q-2 36 18 69t52 37q120 13 219 21q130 9 218.5 19.5t201.5 19.5q33 0 43 -23q-31 -8 -89 -36t-87 -36q-37 -9 -70.5 -18t-48.5 -13t-44 -8t-75 -8q-26 -2 -56.5 -4.5t-49 -4t-33.5 -3.5q-10 -3 -28 -6.5t-30.5 -7t-17.5 -7.5q-14 -7 -53.5 -9t-50.5 3 q-10 4 -17 11q-2 0 -2 2z" />
<glyph unicode="." horiz-adv-x="399" d="M45 141q13 20 23 25h2q8 4 14 4q23 3 45.5 -8.5t28.5 -30.5q6 -12 12 -18q32 -16 37 -23q23 -23 -14 -65q-1 -11 -11.5 -18t-25.5 -7.5t-31 6.5q-39 17 -66.5 64t-13.5 71z" />
<glyph unicode="/" horiz-adv-x="737" d="M14 -94q6 -16 15 -70q5 -51 14 -57h10q17 1 37.5 9.5t26.5 16.5q5 8 8 31q4 35 22 113q4 13 37 108.5t75 215.5t52 149l2 2q2 2 2 6v2q4 12 10.5 28t10 26t6.5 16l4 10l19 49q9 26 14 35v2l108 242q3 5 41 98l29 76q6 10 117 293q12 31 28 72t24 61t9 24l6 19 q10 24 15 33q32 56 35 102q3 30 -23 49q-12 8 -20 10l-22.5 4.5t-27.5 4.5q-1 0 -3.5 1t-4.5 1l-8 2q6 -10 0 -35q-6 -19 -27 -21h-6q-10 -15 -20 -35l-4 -4q-5 -10 -5.5 -12t3.5 -8q11 -5 2 -14q0 -1 -1 -2.5t-1 -2.5q4 -23 -13 -61l-6 -14q-4 -11 -91 -230.5t-91 -230.5 q-1 -3 -3 -9.5t-5.5 -15.5t-5.5 -16q-39 -101 -52 -131l-6 -17q-4 -9 -14.5 -31.5t-20.5 -43.5t-20 -39l-12 -29q-1 -3 -4.5 -9t-4.5 -9l-24 -82l-6 -17q-8 -16 -8 -24q-5 -16 -17 -45q-1 -1 -2 -4.5t-2 -5.5h2l-2 -9l-6 -16l-2 -2q-8 -8 -8 -19l2 -2l-6 -16q-9 -27 -17 -35 q-2 0 -8 -14q-49 -112 -108.5 -278.5t-47.5 -194.5z" />
<glyph unicode="0" horiz-adv-x="958" d="M0 416q0 105 44.5 270t105.5 279q34 62 103.5 162.5t84.5 107.5q10 3 10 16q5 19 83 94t83 82q21 18 46 30.5t52 39.5q55 47 105 68q36 16 53 21t34.5 1.5t29 -16t32.5 -41.5q12 -17 20.5 -31t11.5 -26t6 -20t-2 -17.5t-5.5 -13.5t-11.5 -12.5t-13 -10.5t-17 -11t-17 -10 q67 -98 101.5 -245.5t8.5 -247.5q-2 -8 -20 -77t-28 -105.5t-27 -94t-30.5 -93.5t-23.5 -52q-14 -14 -14 -37q2 -25 -71.5 -139.5t-117.5 -153.5q-64 -57 -132.5 -91t-138 -42t-135 26t-114.5 109q-40 63 -67.5 140t-28.5 141zM125 326q3 -214 168 -217q58 1 106.5 27 t118.5 91q45 45 120 170t75 156q4 17 20 39t23 49q6 22 33 108t43 157t20 134q7 95 3.5 127t-28.5 82q-39 80 -39 105q-1 29 -5 42t-16 14t-29.5 -8.5t-49.5 -31.5q-40 -28 -91.5 -83t-122 -140t-91.5 -109q-8 -4 -27.5 -39t-46.5 -84.5t-45 -76.5q-41 -57 -91.5 -232.5 t-47.5 -279.5z" />
<glyph unicode="1" horiz-adv-x="829" d="M184 87.5q2 13.5 10.5 47t12.5 64.5q18 140 96.5 421t136.5 424q45 110 20 123l-11 2q-38 2 -54 35.5t-4.5 78.5t47.5 77q59 57 143 161t85 124q0 15 11 20t26.5 -2t27.5 -23q16 -19 17 -58.5t-8.5 -84.5t-27 -101t-34.5 -99.5t-34.5 -88.5t-22.5 -61q-20 -65 -99 -299.5 t-125 -399.5t-78 -339q-23 -129 -34 -146q-12 -18 -40 11q-10 10 -28 32q-21 27 -28 47.5t-5 34z" />
<glyph unicode="2" horiz-adv-x="944" d="M-81.5 150q-3.5 39 18.5 57q28 21 28 29q2 6 29.5 34t71 71t84 82t86 82.5t59.5 57.5q0 11 41 47q44 44 142 169t100 139q0 14 14 14q8 -2 22.5 21t27.5 47t17 24q16 8 45.5 59.5t43.5 59.5q12 6 49 81t37 91q1 22 -38 59.5t-87 61.5q-53 25 -165.5 30.5t-158.5 -14.5 q-35 -16 -43 -34.5t7 -37.5t34 -34.5t44 -32.5t32 -23l37 -39l-58 4q-31 -7 -78.5 34.5t-79 96.5t-22.5 84q3 50 23.5 68.5t95.5 40.5q90 24 206 4.5t205 -72.5q78 -50 105.5 -178t-19.5 -225q-85 -168 -177 -306t-184 -246.5t-226 -244.5q-23 -19 -23 -28q1 -6 32.5 -5 t100.5 10.5t172 26.5q198 31 209 31q13 0 44.5 -68t31.5 -94q-3 -16 -49 -12q-153 7 -379.5 -37t-359.5 -94q-41 -16 -69 -11t-46 36q-29 45 -32.5 84z" />
<glyph unicode="3" horiz-adv-x="872" d="M72 78q-68 72 18 102q44 18 47 29q0 12 15 12q31 16 82 56.5t79 60.5q130 95 196 208t52 210q-9 65 -57.5 104t-179.5 86q-52 20 -96 77.5t-44 104.5q2 27 41.5 66.5t63.5 38.5q17 3 25.5 17.5t29.5 21.5q27 10 50.5 22t56 30t55.5 30q66 31 65 45q-1 9 -39 -2 q-189 -49 -221 -50q-30 0 -42 22q-3 5 -11 24q-20 52 -11 80t50 38q20 4 103 23t126.5 28t112 19.5t119.5 11.5q33 0 76.5 -26.5t42.5 -46.5q-1 -15 15.5 -24.5t18.5 -29.5q6 -17 -7 -34.5t-52 -47.5q-71 -55 -124.5 -88t-126.5 -71.5t-116 -63.5q-13 -13 -63.5 -40 t-61.5 -27q-22 1 -11 -14q14 -18 59 -44q138 -75 231 -227q27 -45 32 -74t1 -110q-3 -72 -12 -110t-31 -75q-30 -47 -186.5 -195.5t-213.5 -181.5q-41 -24 -84 -20.5t-73 35.5z" />
<glyph unicode="4" horiz-adv-x="886" d="M0 756q2 30 60.5 152.5t78.5 135.5q261 371 410 568q9 12 19.5 13.5t21.5 -5.5t20 -15.5t19 -19.5t14 -14q-53 -87 -134.5 -211.5t-148 -233t-135.5 -239.5q-76 -144 -80 -159q-3 -13 9 -14q5 0 20 3q101 20 281 141q52 36 92 70t43 45q8 23 18 48.5t18.5 46t21.5 48.5 t20.5 44.5t23 47t22 43.5t24 45t22 40.5t23.5 43t22 39.5q28 54 43 56.5t53 -43.5q24 -28 26.5 -40.5t-9.5 -31.5q-29 -55 -70 -148t-41 -106q-5 -18 -23 -44t-24 -52q-9 -33 -47 -120t-49 -124q-10 -33 -40.5 -132t-54 -187.5t-53.5 -223.5q-50 -214 -61 -219 q-15 -9 -40.5 0.5t-37.5 28.5q-18 21 7.5 171t45.5 232q9 29 28.5 121.5t28.5 122.5q5 13 6.5 18t0 7t-6.5 -1t-16 -10q-56 -43 -161.5 -82.5t-157.5 -36.5q-43 2 -99 68t-53 113z" />
<glyph unicode="5" horiz-adv-x="929" d="M-41 170q0 9 5 17t11 8q7 -1 12 -9.5t3 -17.5q-3 -56 75 -28q87 31 191 126q105 96 131 174q34 105 11 235t-97 238q-19 27 -29 56.5t-28 48.5q-26 27 -35 103.5t12 121.5q22 44 79 95.5t83 50.5q29 0 51 18q30 24 129.5 70t120.5 45q20 -3 51 12q40 22 142 40.5 t196.5 19.5t140.5 -27q16 -14 21 -23t-1.5 -17t-24.5 -14.5t-52 -13.5q-125 -21 -304.5 -88.5t-289.5 -132.5q-75 -44 -108 -41q-40 2 -86.5 -52t-49.5 -106q-3 -53 56 -139q135 -198 166.5 -393t-56.5 -295q-95 -106 -167.5 -160.5t-174.5 -89.5q-32 16 -45 23.5t-42.5 25 t-44.5 33.5t-19 31q-1 18 -17.5 27.5t-15.5 27.5z" />
<glyph unicode="6" horiz-adv-x="800" d="M6 309q-20 120 29 299q33 131 93.5 282t113.5 238q35 55 106 150t80 98q12 8 12 21q-1 10 40 49t40 49q0 14 19 14q13 7 39 29t50.5 40.5t52.5 32t54.5 6.5t46.5 -38q16 -39 27 -39q16 0 10 -22q-5 -19 -24 -31q-38 -27 -43 -13q-2 6 4 17q11 28 -10 22q-30 -9 -103 -75 q-43 -41 -58.5 -57.5t-31.5 -38.5t-41 -52q-51 -60 -155 -255t-144 -304q-51 -139 -72.5 -304t0.5 -241q9 -29 20 -38t36 -11q30 -2 38 11t15 81q10 80 52.5 168.5t97 145.5t96.5 55q28 0 75 -41q28 -26 32 -47t1 -90q-3 -43 -13 -75.5t-25 -63t-21 -50.5q-2 -26 -97.5 -109 t-136.5 -93q-66 -19 -100.5 -7t-93.5 74q-91 93 -111 213zM365 229q1 -12 32 29t62 99.5t33 88.5q-4 4 -18.5 -13t-32 -46t-35 -60.5t-29 -59t-12.5 -38.5z" />
<glyph unicode="7" horiz-adv-x="851" d="M122 113q-1 43 19 77q43 90 121.5 303.5t116.5 301.5q25 59 47.5 115t33.5 84.5t21 52.5t15 34t10 15q16 13 16 34q-4 5 75.5 151.5t74.5 150.5q-211 -27 -465 -50q-13 -5 -22.5 -4.5t-16.5 12.5t-11 24.5t-6 32t-3 34.5t-1 32q98 20 271 35.5t237 24.5q49 8 78.5 9 t49 -6.5t29.5 -19t22 -34.5q20 -40 19 -53t-28 -56q-127 -215 -193.5 -362.5t-182.5 -460.5q-47 -127 -100.5 -249.5t-88.5 -215.5q-32 -91 -56.5 -107.5t-60.5 27.5q-20 25 -21 68z" />
<glyph unicode="8" horiz-adv-x="731" d="M10 154q-37 103 39.5 321.5t192.5 337.5q43 43 43 55q0 10 14 17q14 3 -10 69q-20 43 -22 82t6 63.5t27 70t28 77.5q13 43 32.5 79.5t26.5 62.5q-1 14 45.5 64t100 93t67.5 37q32 0 82 -67q32 -43 41 -69t6 -71q-2 -42 -29 -116t-46.5 -114t-59.5 -120q-7 -17 -17 -28 t-16 -11q-20 1 -17 -18q4 -25 34 -41q34 -26 34 -43q0 -21 13 -21q15 0 37 -80q15 -54 14 -82t-19 -92q-37 -151 -116 -286.5t-185 -231.5q-41 -37 -94.5 -62.5t-85.5 -23.5q-46 3 -95 46.5t-71 101.5zM75 176.5q0 -31.5 25 -59.5q31 -35 52 -35q38 -2 114.5 51.5 t114.5 108.5q51 79 97.5 176t74.5 180t38.5 147.5t-11.5 77.5q-43 26 -90.5 12.5t-85 -50.5t-39.5 -70q0 -14 -5 -20.5t-14 -2.5q-21 15 -68.5 -41.5t-97 -154t-74.5 -187.5q-31 -101 -31 -132.5zM375 998q28 6 118 128q114 152 142 234l2 8q19 55 14 57q-6 6 -47 -29.5 t-43 -47.5q0 -15 -12 -15q-11 0 -28.5 -25t-63.5 -108q-116 -210 -82 -202z" />
<glyph unicode="9" horiz-adv-x="841" d="M41 1042q1 23 22 68q10 26 22 46t17 20q13 -3 13 12q-7 4 13 27.5t48.5 54t34.5 45.5q0 10 80.5 79.5t91.5 67.5q9 0 65 36.5t68 35.5q9 -2 22 3.5t19 14.5q7 12 98.5 22.5t118.5 6.5q7 3 24 -18t31 -47.5t13 -38.5q-2 -4 -97 -244q-82 -210 -153 -441t-96 -386 q-10 -57 -39.5 -172t-36.5 -175q-2 -28 -8.5 -36.5t-28.5 -8.5q-32 1 -57.5 33t-14.5 55q17 74 75 354t106 456t112 317q26 57 3 42q-19 -13 -64 -67q-28 -34 -85.5 -93.5t-111.5 -106.5q-94 -88 -148.5 -118.5t-87.5 -11.5t-55 93q-15 52 -14 75zM193 1062q5 0 57 48 q21 20 145.5 133t167.5 154q55 52 31 50q-20 -3 -82 -42q-108 -67 -201 -162.5t-116 -163.5q-6 -17 -2 -17z" />
<glyph unicode=":" horiz-adv-x="489" d="M88 379q11 14 23 18h2q32 11 65 -32q7 -8 16.5 -21.5t18 -26t10.5 -14.5q5 -8 -6.5 -24t-30.5 -25q-11 -32 -45 -10q-30 20 -49 70t-4 65zM250 860.5q-19 51.5 0 71.5q12 14 26 18v2q6 2 17 2q23 -1 42.5 -16.5t22.5 -34.5q3 -12 11 -20q25 -21 30 -29q22 -28 -22 -61 q-4 -17 -27 -20t-45 11q-36 25 -55 76.5z" />
<glyph unicode=";" horiz-adv-x="520" d="M82 -51q-2 10 7 25t35.5 44t29.5 33q9 12 16 35t9.5 39t6 47t4.5 37q3 21 10 31t23 18.5t25 17.5q14 13 31.5 8.5t29.5 -12t15 -12.5q2 -5 -4.5 -18.5t-6.5 -16.5l7 -15q6 -14 2 -28q-2 -9 -17 -34.5t-37.5 -62.5t-34.5 -60q-9 -16 -29.5 -62.5t-34.5 -66.5t-28 -15 q-21 7 -37.5 27.5t-21.5 40.5zM266 809q12 17 23 25h2q12 4 14 4q23 3 45.5 -8.5t28.5 -30.5q7 -14 12 -19q33 -17 37 -22q25 -25 -12 -66q-1 -17 -24 -23t-46 5q-39 17 -66.5 64t-13.5 71z" />
<glyph unicode="=" horiz-adv-x="884" d="M61 563v10q3 12 23 37q18 21 29 41q11 23 79.5 34t108.5 7h6q0 -4 12 -2h9v2q3 5 8 0h6l4 2v2h4q16 0 19 2q2 2 8 2h8l31 11h8q8 0 12 -2q16 -4 45 -4q1 0 3 -1.5t3 -1.5q4 0 24 3t30 4q3 0 8.5 1t7.5 1l184 10h4q17 0 27 12q4 0 6 8q2 9 8 7h2q2 -1 6.5 -3.5t6.5 -3.5 v-2v-4q2 -18 8 -18q10 3 14 14v-10q0 -4 -2 -6q0 -9 -1 -26t-1 -23q-1 -4 -2 -13t-2 -12q-9 -36 -20 -41q-18 -18 -41 -8h-13q-1 0 -3 -1t-3 -1l-63 -4q-20 -1 -50.5 -3t-47.5 -3t-19 0q-2 0 -13 -1t-18 -1q-24 -3 -39 -3l-96 7h-16q-3 0 -9.5 -1t-9.5 -1h-4q-3 0 -7.5 -1 t-11 -2t-12.5 -2h-2q-183 -31 -188 -34q-24 -8 -43 -21q-8 -6 -12 -6q-8 8 -13 49zM72 829q-4 15 0 27q2 6 2 31q-1 12 4 12q-3 12 8 39q28 8 57 14l58 15q3 -13 8.5 -14t11.5 3q54 9 82 13q13 1 28 2.5t30.5 3t21.5 2.5q27 6 53 6q12 -2 35 -2q20 -4 35 -4l26 -6l-26 -2h8 q4 0 4 -4h-16h-29q-6 2 -18 2q-34 0 -52 -2l-2 -7q8 -8 15 -8q5 0 15 1t15 1q3 1 6.5 1t8 -0.5t6.5 -0.5q4 0 13 -1t14 -1q8 0 28 -4h4l17 2h35q6 0 17 1t17 1h21h20q6 0 18 -1t17 -1h17q4 0 4 6v4q-3 0 -8.5 -1t-8.5 -1q-3 1 -6 1.5t-7 1.5t-7 2h-6q-15 -5 -23 -3 q-4 0 -12.5 1.5t-12.5 1.5q-9 -3 -22 0q-3 0 -6 6q16 1 33.5 1t39 -0.5t33.5 -0.5l56 -6q11 0 31 -3.5t24 -3.5l-2 -14l-2 -2h8q1 0 2.5 1.5t3.5 2.5q-2 -20 -24 -33q-3 -2 -10.5 -5.5t-10.5 -4.5q-20 -5 -22 -6h-21l-12 -8q-6 0 -10 -2l-35 -6h-25q-2 0 -6 -2.5t-6 -2.5 q-9 -1 -27 -1t-26 -1q-20 -2 -50 -10h-8h-53q-14 2 -43 2q-16 -2 -57 -10q-40 -6 -41 -6q-13 -4 -62 -11t-69 -18q-6 -2 -16 -2.5t-13 -1.5l-15 -3t-18.5 -4t-15.5 -5l-21 -6h-12q-2 0 -10 4l-4 10q0 3 -1 9.5t-1 10.5zM383 952q4 2 12 2q-3 9 -4.5 10.5t-3 -0.5t-4.5 -12z M508 961h10l-2 -3q-1 -1 -8 3zM518 961v4q2 0 6 -1t6 -1t2 -2h-14zM713 950q3 -1 10 -2t10 -2v4q-17 13 -20 0zM782 950q6 -6 9 -4h6v4h-15z" />
<glyph unicode="?" horiz-adv-x="839" d="M109 145q9 16 20 21q34 14 70 -27q11 -9 30.5 -32.5t20.5 -24.5q5 -7 -5 -24t-28 -27q-7 -35 -43 -15q-33 17 -56 64t-9 65zM164 406q-13 31 8 151t61 191l3 6q17 34 33 46l7 5q3 1 23 20.5t53 54.5t66 72q202 225 270 319t53 126q-22 47 -102 69.5t-172 8.5 q-60 -11 -121 -55.5t-91.5 -96.5t-8.5 -82q20 -36 35 -84q12 -44 10 -50.5t-25 -0.5q-54 15 -67 139.5t26 214.5q24 53 100 94t138 39q22 -1 80 1.5t98 -7.5q101 -20 139.5 -90t38.5 -178q-11 -51 -28.5 -87t-47 -78t-43.5 -67q-18 -31 -63.5 -88t-56.5 -75q0 -7 -59.5 -59 t-59.5 -60q0 -7 -12 -19q-26 -19 -49.5 -44.5t-40.5 -50t-31.5 -54t-23.5 -52.5t-17.5 -50t-12 -42t-6.5 -32l-4 -17q-3 -11 -17 -36t-27 -44l-13 -20q-27 25 -43 62z" />
<glyph unicode="A" d="M-123 -37q5 49 19 109q8 34 30 90q8 20 23 51l14 27q0 2 4 10l19 41q4 11 -9 31l-14 18q-4 4 -12 16q12 5 29 15q39 20 59 35q20 16 39 59q0 4 4 8q4 9 51 111q2 6 7 17t7 17l21 46q10 26 33 73q3 6 35 74l45 94q30 72 36 86l43 96q16 38 54 111q32 69 51 109q5 14 10 22 q30 59 37 98q5 31 31 68q17 35 22 47q6 15 39 74q16 27 21 33q12 26 34 22q7 0 11 -2q20 -4 51 -20q47 -20 47 -65v-5q0 -61 -10 -113q-2 -17 -9.5 -47.5t-9.5 -38.5q0 -1 -16 -61l-6 -45q-4 -26 -8 -41q-1 -9 -11 -43q-1 -6 -4 -15l-4 -12l-12 -51q-4 -26 -8 -37l-25 -121 q-12 -60 -16 -86l-13 -69q-2 -8 -5 -23t-5 -22q-7 -24 -10 -49q-2 -8 -2 -27v-19l-2 -22l106 41l-20 -19l22 5l-38 -37h8q-34 -20 -52 -41l-12 -6q-18 -9 -22 -19q-17 -25 -23 -65q-14 -86 -24 -179l-2 -14q-3 -15 -3 -29q-2 -10 -2 -26q-2 -10 -5 -31t-5 -31 q-1 -10 -4 -29.5t-4 -29.5q-2 -8 -2 -23q3 -10 0 -16q0 -10 -2 -16q-4 -40 -8 -56q-2 -8 -21 -41l-8 -14q-27 -6 -33 -35l-2 -2q-1 7 -2 21.5t-2 21.5q-12 200 -12 312q0 35 1 62q3 68 11 128l2 25l-22 -11q-5 0 -13 -4q-3 -1 -12 -4.5t-14 -5.5q-8 -4 -25.5 -11.5 t-25.5 -11.5q-13 -5 -50.5 -21t-58.5 -24q-36 -14 -59 -67l-2 -4l-25 -51q-8 -14 -16 -33q-15 -26 -23 -45l-18 -39q-2 -3 -6.5 -10.5t-6.5 -10.5q-4 -8 -11 -24.5t-11 -24.5q-8 -19 -10 -31l-7 -22q-4 -7 -8 -21q-7 -23 -22 -57q-13 -19 -19 -41l-10 -29l-10 5 q-2 1 -21 9.5t-28 14.5q-23 12 -23 43zM246 496l26 10l39 14q18 7 54 21.5t55 21.5q12 5 22 25q1 2 7 33q0 6 2 8q2 21 10 73q3 19 8 54.5t8 52.5l19 125q2 10 6 30.5t6 30.5q0 11 4 27l2 12l-27 10l-6 -10q-2 -5 -7 -14t-7 -14l-31 -64q-6 -14 -19.5 -42.5t-19.5 -41.5 q-7 -22 -22 -55l-62 -133q-7 -19 -22 -45q-13 -34 -27 -58q-5 -12 -8 -28q0 -7 -4 -15z" />
<glyph unicode="B" horiz-adv-x="708" d="M-41 137q12 6 19 12.5t10.5 15.5t4.5 14.5t1 18v17.5q4 90 8 131q0 43 -2 53q-1 4 2 10.5t6 11.5l4 5v2q4 16 4 27l-2 16q9 0 9 18q-1 3 -4 6t-6 5l-3 2q11 6 21 14q10 42 35 102q21 55 38 123q-8 -23 -34 -86q-5 0 -7 2q7 30 15 50q8 23 25.5 68t25.5 67q13 60 33 110 q1 14 0 20t-7 22.5t-8 23.5q-4 15 -4 28q0 38 35 60q44 28 70 104q3 7 15.5 29t15.5 35q8 34 0 57q-13 53 -15 95q0 3 -1 5q0 39 22 73q23 36 73 61q66 32 88 39q81 23 150 34q16 2 31 3q80 0 147 -62q36 -35 36 -78q0 -8 -1 -16q-8 -52 -68 -103q-56 -47 -223 -168 q-15 -11 -89.5 -63t-113.5 -82q-9 -7 -15.5 -19.5t-12 -28.5t-8.5 -22q18 -8 50 -20.5t54.5 -23t40.5 -23.5q113 -79 113 -227v-15q-4 -101 -47 -186t-121 -178q-45 -54 -144.5 -139.5t-140.5 -131.5q-13 -15 -26 -15q-14 0 -29 17q-6 7 -70 80zM94 272q2 -1 7.5 -3t7.5 -3 l24 21q32 22 59.5 49.5t66 73t50.5 59.5q134 147 148 324v8q0 42 -31 55q-1 1 -164 64zM344 1217q26 13 31 18q11 7 73.5 48.5t96.5 62.5q16 11 58.5 32.5t62.5 36.5q16 13 31 29t37.5 42t33.5 38q-12 4 -29 10.5t-28 10t-21 5.5q-38 7 -78 7q-79 0 -161 -27 q-32 -11 -46.5 -26.5t-9.5 -47.5q1 -4 0 -10t-3 -13.5t-3 -11.5z" />
<glyph unicode="C" horiz-adv-x="761" d="M-20 412q0 4 4 20q0 1 1 3t1 3q-4 6 -3 18t2.5 18t5.5 18t5 18q1 2 6 33q11 31 16 51q12 29 17 45q1 5 2.5 14t3.5 16t6 11q6 8 13 25t10 22q3 6 7 18.5t7 18.5l14 24q4 9 11.5 28t11.5 28q1 2 11 18.5t15 26.5q5 7 13 22.5t10 18.5l4 6q21 23 39 72q2 3 7 8t7 8 q3 4 12.5 21t16.5 24q21 24 49 74q32 48 39 55q11 11 25 35t22 33q3 3 13.5 12.5t15.5 15.5q2 2 4 8.5t4 8.5q28 40 45 55q10 9 24 28.5t21 26.5q20 24 35 39l33 33q8 6 23.5 18.5t23.5 18.5q4 4 14 4q14 0 17 8q2 2 9 3t9 7q3 4 8.5 7.5t14 6.5t12.5 5l4 2q11 10 17 9.5 t14 -11.5q5 -8 14 -31q2 0 2 -2q7 -4 10 -10t3.5 -11t-0.5 -14t-1 -12q-3 -12 -18 -27q-37 -37 -45 -43q-7 -6 -22 -13t-19 -9q-29 -14 -51 -43q-4 -7 -15 -17t-14 -14q-8 -8 -10 -14q-4 -8 -11.5 -16.5t-17 -18l-14.5 -14.5q-2 0 -2 -7q1 -5 -1.5 -9.5t-4 -6.5t-8 -6.5 t-7.5 -5.5q-16 -16 -24 -35q-4 -10 -23 -29l-16 -16q1 -4 -4 -15.5t-11 -17.5q-2 -2 -8 -7.5t-9.5 -8.5t-6.5 -9.5t-2 -13.5q0 -2 -1 -4t-2 -3.5t-2.5 -3.5t-2.5 -3q-1 -2 -9 -10q-10 -10 -12 -11q-18 -46 -39 -69q-13 -10 -24 -29q-2 -3 -3.5 -11.5t-3.5 -12.5 q-3 -11 -10 -17q-9 -15 -18 -27q-3 -4 -7 -13.5t-8.5 -17t-9.5 -12.5q-7 -8 -15 -28t-9 -23l-10 -20t-11 -21q-5 -7 -10.5 -22t-7.5 -19l-19 -41l-18 -36q-2 -7 -6.5 -23.5t-9 -28.5t-9.5 -22q-4 -7 -7.5 -21.5t-4.5 -17.5q-1 -4 -9.5 -33.5t-13.5 -44.5q-6 -36 -6 -37 q0 -24 -10 -51q-4 -12 -4 -18v-56q-2 -15 16 -30q16 -11 41 -25q4 -2 13 -2h41q33 4 47 12q12 7 55 21q31 7 53 18q6 2 18 10t13 9q8 4 25.5 11t25.5 11q21 9 64 35l49 31q5 3 45 20q8 4 24 8q4 3 11 -4q4 -6 6 -12t2.5 -13.5t0.5 -12t-1.5 -14t-1.5 -13.5q-4 -16 -4 -27 q-4 -24 -19 -33q-5 -3 -13.5 -13t-12.5 -13q-32 -24 -47 -39q-7 -7 -16 -13t-21 -13t-17 -11q-4 -2 -12.5 -5.5t-13 -5.5t-8.5 -7t-5 -11q-57 -24 -82 -31l-18 -6q-36 -24 -57 -28q-31 -7 -54 -7q-19 0 -34 5q-8 3 -26 8t-26 8q-56 22 -82 70q-5 8 -16 22.5t-16 22.5l-13 28 q-2 4 -8 12.5t-8 12.5q-2 6 -9 29t-9 36q-3 17 -2.5 46.5t-1.5 46.5z" />
<glyph unicode="D" horiz-adv-x="749" d="M-20 8q6 161 38 293q135 534 267 1071q5 21 10 63.5t8 59.5q13 74 74 107q12 8 24 0q264 -139 301 -431q5 -45 5 -92q0 -186 -82 -399q-112 -282 -375 -498q-29 -24 -101.5 -80.5t-109.5 -87.5q-32 -22 -59 -6zM143 322q17 11 23 16q298 241 375 600q19 84 19 164 q0 97 -28 188q-25 87 -79 152z" />
<glyph unicode="E" horiz-adv-x="706" d="M-20 324v13q0 46 12 107q10 62 26 111q13 37 21 68l18 71q2 7 8.5 21.5t8.5 21.5q2 5 5 15.5t5 15.5l18 53q2 9 23 74q2 8 7 23.5t7 23.5l25 59q7 14 20.5 44.5t20.5 44.5q3 7 8 22.5t8 22.5q15 26 23 45q17 35 22 47q0 4 -4 8l-16 14q-7 6 -9 14t-1 19.5t0 15.5 q0 3 1.5 8t1.5 10t-3 9q-1 2 0 5t3 8t3 8v16q-2 0 -2 2q28 10 39 14l26 8q12 6 6 19q-2 2 -2 4q0 4 -5 27.5t1 29.5q-4 1 -1.5 10t2 10t4.5 9.5t5 9.5q3 8 15 11.5t20 -0.5q17 -8 33 -43q6 -16 10 -52q0 -9 10 -6l58 19q3 1 11.5 4t14.5 4q1 -3 2.5 -4.5t3 -1t4 1t3.5 0.5 v-17q43 14 55 17l51 12q2 0 9.5 2.5t9.5 2l10 -2.5l12 -6l-12 -6q4 0 10.5 1t9.5 1q8 0 23 1t22 1q1 0 13 -6q0 -2 -2 -4l30 6q3 2 10 1t10 -2t9.5 -3.5t9.5 -3.5q4 -2 3.5 -6.5t-3.5 -6.5q-4 -4 -12 -8q2 -3 12 -3t11 -9q-4 -6 -10 -9t-15 -4.5t-14 -3.5q-20 -10 -27 -10 q-4 -1 -14 -8t-17 -2q-4 0 -6 -2q-9 -9 -20 -6q-1 0 -2 -1t-2 -1q-8 -4 -9 -4l-24 -7q-15 -2 -39 -14q-8 -2 -23 -2q-8 -4 -10 -4q-8 -4 -10 -4q-2 -2 -6 -2q-4 -4 -6 -4l-39 -13q-3 -1 -9.5 -3t-9.5 -3q-7 -2 -33 -10q-43 -15 -65 -35q-8 -6 -12 -22q-1 -7 -4.5 -18 t-4.5 -15l-16 -47q-1 -6 -6 -16.5t-6 -12.5v-10q-1 -4 -3 -11.5t-3 -11.5q-2 -4 -2 -12h10q8 2 24.5 7t24.5 7q25 8 55 15q4 1 21 5t26 7q7 3 22.5 6t20.5 4l29 13q5 3 35 8q8 1 25 5.5t24 6.5q1 -1 7 -6t10 -10t6 -9q2 -7 10 -17t10 -15q4 -8 4 -33v-6q4 -5 3.5 -10 t-2.5 -8t-6 -8t-5 -7q-11 -19 -62 -45l-36 -18l-86 -25q-13 -3 -40 -8t-40 -8q-12 -2 -40.5 -7.5t-43.5 -7.5l-51 -8q-8 -2 -14.5 -10t-6.5 -17q-1 -2 -2 -6.5t-2 -7.5q0 -9 -14 -37q-2 -4 -7 -22q-2 -8 -5 -24.5t-5 -24.5q-1 -4 -5 -12.5t-5 -12.5q-3 -7 -8 -25 q-10 -29 -15 -53q-4 -15 -13 -42t-13 -42q-19 -60 -23 -76q-1 -3 -1 -10t-1 -10q-7 -17 -10 -33q-1 -2 -2 -7t-2 -7l-6 -23l-6 -24l-13 -68q-1 -6 -3 -17.5t-3 -17.5q0 -12 15 -16q17 -8 51 -4q21 3 69 20q7 3 22.5 8.5t22.5 8.5l70 32q7 4 21.5 11.5t21.5 11.5q25 11 55 31 q10 6 60 41l49 37l24 12q3 0 7 4q2 0 4.5 1t4 1.5t3.5 -0.5q3 -1 8 -12q1 -3 2 -9.5t2 -9.5v-8q-6 -15 -12 -33v-22q0 -13 -2 -19q-2 -5 -7 -15t-7 -15q-7 -15 -39 -43l-7 -7q-4 -11 -10.5 -18.5t-19.5 -15.5t-17 -11q-12 -8 -47 -26l-24 -12q-16 -6 -34.5 -14t-41.5 -18.5 t-35 -15.5q-26 -11 -45 -22q-7 -3 -25 -13.5t-28 -13.5q-31 -8 -55 -8q-11 0 -21 2q-31 4 -45 10q-16 9 -43 45q-11 22 -18 54q-6 22 -19 41q-21 40 -24 84z" />
<glyph unicode="F" horiz-adv-x="774" d="M-20 35q-2 -19 7.5 -29t24.5 -4q87 28 103 117q8 49 45 209q35 156 108 420q10 45 43 55q38 10 84 31q18 9 59 25.5t70.5 33t53.5 39.5q69 62 108 108q12 13 27.5 44t29.5 44q8 8 8.5 22t-8.5 28q-17 -18 -35 -34t-42.5 -33.5t-37.5 -26t-45 -29t-40 -25.5 q-79 -52 -141 -80q-48 -22 -69 -22q-6 0 -11 2q19 58 28 94l62 197q12 45 47 157q3 10 16 19q3 1 9.5 1t9.5 1l200 65q98 38 180 66l11 6q1 1 10.5 8.5t15.5 11.5q23 11 25 13q39 39 86 53q27 6 55 47q4 4 4 19q-6 6 -14 2q-55 -11 -121 -31q-149 -40 -217 -62 q-187 -58 -242 -77q-58 -18 -89 -18h-9q-7 1 -14 3q-4 1 -11 2t-10 2q-5 -15 -22 -67t-25 -80q-89 -286 -108 -356q-54 -186 -164 -635q-22 -88 -39 -193q-8 -45 -16 -143z" />
<glyph unicode="G" horiz-adv-x="1054" d="M2 500q-1 12 -1 24q0 37 7 74q9 48 35 123q42 134 100 227q20 32 105 156q46 66 74 92q185 181 274 248l9.5 9.5t9 6.5t13.5 3t15 -5q4 0 6 2q50 25 62 33q58 41 161 63q9 4 19 -6q41 -49 41 -100q0 -12 -2 -23q-10 -53 -53 -71q-11 -6 -27.5 -4t-24.5 10q-19 19 -34 21 t-37 -11q-76 -45 -84 -51q-18 -15 -48.5 -45t-37.5 -37q-14 -14 -46.5 -42.5t-48.5 -45.5q-61 -67 -106 -129q-26 -33 -84 -125q-45 -74 -59 -100q-8 -17 -23.5 -52t-23.5 -53l-25 -59q-29 -89 -29 -90q-12 -51 -14 -74q-8 -66 -8 -100q0 -7 1 -14.5t3.5 -13t7 -12.5 t7.5 -11t9.5 -12t8.5 -11q26 -37 86 -59q16 -5 32 -5t33 5q68 16 101 36q119 67 161 148q3 6 27.5 45.5t32.5 62.5q17 48 20 111q0 23 -26 45q-49 39 -86 41q-35 0 -66 39q-2 4 -3 15t-3 16l-31 88q-4 12 2.5 20t18.5 6q41 -1 61.5 -2t59 7t58 13.5l58.5 16.5l127 37 q29 11 45 20q13 7 29 12.5t27.5 7.5t31.5 5.5t29 5.5q5 1 47 17l23 -35q0 2 4 2l-2 -10q7 -5 18.5 -15t17.5 -14q15 -10 0 -25q-5 -4 -9.5 -13.5t-6.5 -12.5q-15 -25 -22 -29q-62 -40 -99 -57q-78 -36 -119 -52q-90 -28 -135 -40q-14 -5 -8 -19q43 -131 47 -149 q12 -40 12 -80q0 -55 -24 -109q-31 -78 -49 -102q-26 -34 -111 -119q-72 -66 -180 -82q-28 -5 -55 -5q-46 0 -88 15q-32 13 -70 47q-53 49 -68 76q-6 10 -24.5 37.5t-27 42t-18 39t-12.5 47.5q-2 12 -6.5 35t-7.5 42t-4 36z" />
<glyph unicode="H" horiz-adv-x="935" d="M-79 54q0 6 4 18t5 18q0 2 11 41q2 2 2 10q0 54 30 119q3 7 6.5 23.5t4.5 19.5q6 25 16 51l6 23q4 11 12.5 33t12.5 34q10 22 -6 41q-11 14 2 25q15 12 30 27q6 6 19 32q5 9 14 35q23 57 29 78l31 86q18 60 32 98q2 6 7.5 18.5t7.5 18.5q3 10 10.5 34.5t11.5 37.5 q2 6 35 86q13 37 33 86q5 10 13 37.5t17 42.5q10 19 33 86q2 6 7.5 18.5t7.5 18.5q26 63 34 86q2 6 5.5 18.5t5.5 18.5l24 63q3 8 9.5 24.5t9.5 24.5q13 34 26 76l13 47q12 30 24 57l6 15q0 27 19 49q0 1 1 4.5t1 5.5q0 6 -0.5 8.5t2.5 8t4 7t5.5 6.5t6.5 7q27 -17 29 -45 q1 -9 9 -28t9 -23v-15l6 -24q16 -11 20.5 -30t-6 -56.5t-24 -71.5t-41.5 -100q-70 -164 -297 -815q10 -1 20.5 2.5t22.5 9.5t19 8l75 25q8 3 25 10t25 10l82 31q6 -12 6 -19h4q1 3 13.5 17.5t12.5 28.5q1 9 8 27t9 24q5 12 14 43l6 16q23 67 39 107l27 49q2 5 5 17.5t5 17.5 l6 16q5 15 15.5 44t15.5 44q17 40 18 43q17 46 27 82q11 22 16 37l11 22q2 10 7 20t12.5 21.5t10.5 16.5q2 4 4 14t4 14q6 16 19.5 45.5t19.5 44.5q5 10 12.5 33t12.5 33q8 16 27 31q2 2 11.5 -3.5t10.5 -9.5q2 -8 14.5 -35.5t12.5 -45.5q0 -7 3 -20t3 -19q0 -13 -8 -25 q-16 -18 -23 -43q-4 -13 -14 -38.5t-14 -39.5q-1 -5 -15 -38.5t-16 -53.5q-6 -18 -10 -22q-9 -9 -13 -37q-5 -17 -16 -43q-2 -6 -7 -17.5t-8.5 -21t-3.5 -17.5q-1 -11 -12 -31.5t-10 -33.5q1 -12 -6 -29.5t-8 -19.5q-4 -15 -21 -45q-3 -8 -10 -23.5t-10 -23.5l-19 -70 q5 0 17 -4q13 5 35.5 16.5t35.5 16.5l17 12q0 -2 4 -6l-35 -29q3 1 9.5 2t8.5 2q27 14 90 53q14 8 62 4q-33 -22 -47 -30q-2 -2 -5 -8.5t-5 -8.5q2 0 22 -4q2 -9 0.5 -11.5t-10.5 -6.5q-6 -3 -21 -12.5t-24 -12.5q-14 -7 -42.5 -20.5t-43.5 -20.5q-5 -3 -19.5 -12t-23.5 -14 l-4 -4l-4 -15q-2 -2 -33 -14q-45 -13 -45 -55q0 -10 -2.5 -20.5t-7.5 -24.5t-7 -19q-4 -8 -4 -16q-1 -2 -8 -23q-1 -4 -4 -11t-4 -11q0 -33 -14 -58q-7 -14 -7 -26l-12 -64q-1 -6 -7 -31t-7 -40q-1 -8 -6 -31t-4 -37q1 -11 -5.5 -32.5t-7.5 -31.5q-1 -7 -10 -43t-10 -57 q0 -10 -2.5 -21t-6 -23t-4.5 -19v-15q-2 -9 -5 -28.5t-5 -28.5q-4 -8 -10 -8l-13.5 4.5t-13.5 5.5q-41 29 -55 57q-7 13 -10 28.5t-2.5 26.5t1.5 29.5t1 28.5q0 26 8 80q2 8 7 29t7 34q1 8 2 24.5t2 24.5q0 2 1.5 6.5t1.5 6.5l12 41q2 6 6 22q11 39 12 45l4 29q23 88 29 121 q2 7 5 23.5t5 23.5q-26 7 -37 -8q-1 -2 -4.5 -3t-8.5 -1.5t-7 -1.5q-4 0 -19 -5q-3 -1 -8 -5t-8 -5l-49 -18q-4 0 -6 -2q-9 -8 -21.5 -13.5t-30 -11.5t-26.5 -10q-11 -5 -43 -23q-8 -5 -23.5 -12t-17.5 -8q0 -1 -3 -9.5t-3 -13.5q-1 -3 -4.5 -12t-5.5 -14 q-8 -25 -27.5 -80.5t-24.5 -71.5q-3 -13 -10 -28l-12 -35q3 -7 0 -10l-2 -3q-8 -18 -15 -40q0 -9 -4 -17l-4 -8q-17 -52 -22 -78q-1 -3 -2 -9t-2 -9q-8 -35 -23 -54q10 -8 6 -24q-9 -37 -16 -49q-13 -19 -33 -29q-4 -3 -31 8q-3 1 -8 7.5t-8 7.5q-25 7 -35 38q-14 32 0 54 l2 4q-5 13 -5 19z" />
<glyph unicode="I" horiz-adv-x="505" d="M22.5 227.5q5.5 -30.5 30.5 -51.5q9 -8 25.5 -26t21.5 -23q25 0 33 10.5t8 34.5v12q0 25 6 68q6 34 35 172q38 207 43 227q19 89 78 271q11 38 37 106.5t35 97.5q60 166 123 269q17 25 4 45q-4 6 -10 13t-11 11.5t-14.5 13t-13.5 11.5q-3 2 -11.5 0t-11.5 -6 q-8 -10 -24.5 -28.5t-28.5 -33.5t-21 -30q-55 -82 -100 -170q-27 -52 -68 -166q-88 -252 -112 -393q-19 -107 -33 -203q-16 -113 -20 -174q-6 -27 -0.5 -57.5z" />
<glyph unicode="J" horiz-adv-x="724" d="M-514 -78q-19 -27 -19 -53t19 -51q121 -165 307 -168q29 0 62 9.5t52.5 18t55.5 27.5q66 33 115.5 85.5t103.5 131.5q21 30 41 72q4 8 21 41t24.5 47.5t18.5 40.5t18 47q55 156 78 254q54 220 123 475q11 39 44.5 149.5t49.5 172.5q18 60 62 231q4 16 12 46t14 54.5 t10 46.5q8 39 45 48q254 63 394 129q147 68 215 129l43 37q1 1 6 24q-4 -1 -14 -2t-13 -2q-20 -6 -109 -29.5t-137 -38.5q-58 -15 -171 -48.5t-171 -49.5q-6 -2 -28 -8.5t-32 -8.5t-27.5 -1t-32.5 8q-11 8 -29 3.5t-23 -24.5q-8 -16 -26 -20q-297 -85 -389 -113 q-7 -2 -15 -9t-8 -13q4 -66 43 -78q15 -6 34 -6t42 6q39 9 229 59q27 5 41 8l-8 -36q-12 -38 -35.5 -114t-34.5 -114q-83 -302 -110 -407q-44 -164 -103 -396q-67 -234 -100 -325q-72 -199 -174 -313q-62 -71 -120.5 -111t-137.5 -47q-14 -1 -26 -1q-125 0 -189 105 q-9 16 -23 45t-18 37z" />
<glyph unicode="K" horiz-adv-x="927" d="M21 -37q0 27 2 51q7 134 22 226q4 37 19 105.5t20 100.5q7 40 7 81q0 14 -1 28q-1 8 -1 16q0 48 26 113q9 20 37 78t41 92q10 28 24.5 86t24.5 86q58 164 129 350q55 132 102 238q11 27 21 41q15 29 28.5 35t44.5 -2q21 -6 37 -27.5t12 -42.5q-9 -60 -30 -119 q-10 -31 -33 -84.5t-29 -68.5q-4 -11 -13 -33.5t-13 -34.5l-11 -33q3 0 7 -4q28 16 41 29q18 18 60 63.5t67 69.5q103 103 169 162q25 21 74 57t64 47q17 13 37.5 5.5t23.5 -27.5q0 -4 -3.5 -14.5t-4.5 -14.5q-11 -33 -51 -64q-24 -21 -67 -63.5t-50 -48.5 q-84 -89 -102 -109q-19 -21 -58 -63t-68.5 -75.5t-54.5 -64.5q-9 -9 -4 -55q5 -27 41 -203q2 -10 19 -85t24 -115q6 -38 14.5 -113.5t14.5 -112.5q8 -52 39 -210q5 -24 20.5 -91.5t22.5 -103.5q3 -14 0 -29q-3 -21 -27 -18q-38 0 -61 26q-4 5 -24 28t-29 36q-3 4 -3 35 q0 5 2.5 14.5t2.5 13.5q-47 207 -52 238q-9 55 -23.5 157t-17.5 124q-15 104 -55 342q-30 -39 -33 -43q-87 -124 -116 -179q-10 -18 -17.5 -40t-15.5 -52t-12 -43q-47 -153 -54 -180q-32 -112 -61 -240q-6 -22 -12 -60.5t-9 -53.5q-6 -21 -19.5 -63t-19.5 -64 q-17 -51 -18 -60q-1 -12 -6 -24.5t-10.5 -20t-15 -20t-13.5 -19.5q-5 -5 -14 -8q-6 12 -6 15q0 18 -1 50.5t-1 59.5z" />
<glyph unicode="L" horiz-adv-x="716" d="M2 111q7 -61 47 -93q38 -27 80 -27q33 0 68 17q49 23 114 84q2 1 15 13.5t16 15t15 14t16 15.5l14.5 14.5t15.5 16t14 15t14.5 16.5t12.5 16t13 18q21 29 63 81t47 58q36 45 66 92q2 2 2 17q0 2 -4 2l-74 -72q-61 -61 -92 -90q-6 -6 -20 -16.5t-23.5 -19.5t-15.5 -19 q-8 -13 -31 -27.5t-31 -22.5q-12 -12 -26 -23.5t-32.5 -25t-27.5 -20.5q-71 -56 -119 -88q-13 -9 -18.5 -5t-5.5 21l6 86q3 30 10.5 65.5t12.5 55.5t19 66t17 57l74 225q15 44 42.5 133t41.5 133q15 46 88.5 299t89.5 299q25 74 25 122v7q-3 41 -39 60q-29 16 -57 16l-21 -2 q0 -35 -2 -41q-11 -39 -33 -110t-31 -105q-3 -10 -55 -198.5t-57 -202.5l-29 -109q-4 -15 -15.5 -42.5t-15.5 -39.5q-2 -7 -4 -21.5t-4 -21.5q-23 -57 -24 -61l-31 -113q-1 -2 -4.5 -8.5t-3.5 -9.5q-3 -14 -8.5 -40.5t-8.5 -39.5l-37 -121q-6 -20 -19 -58.5t-19 -58.5 q-23 -67 -23 -146q0 -25 2 -52z" />
<glyph unicode="M" horiz-adv-x="1165" d="M-61 43q-3 -19 4 -37q16 -36 47 -8q33 29 69 115q202 471 314 686q4 6 14 26v-30q-2 -36 -6 -106.5t-6 -106.5t-2 -71q0 -177 43 -314q30 -97 65 -136q19 -20 38 -20l48 33q19 26 35 57q31 74 41 102l258 660q9 22 31 74.5t33 81.5q0 -30 -4 -88q-8 -90 -26 -266 t-26 -261q-16 -197 -16 -376v-56q2 -15 6 -20t14 -2q1 4 10 27.5t13 37.5q4 12 4 18q88 566 92 592q10 70 30 212t30 212l51 396q3 23 3 45q0 77 -36 135q-7 -12 -26.5 -39t-28.5 -43q-22 -42 -76 -156q-369 -803 -428 -930q-9 -22 -31.5 -59.5t-27.5 -46.5q-3 12 -3 16 q5 68 16.5 203.5t16.5 202.5q19 201 25 254q5 41 16.5 115.5t14.5 93.5q1 6 6 33.5t6 43.5v14q0 92 -76 103q-19 3 -27 -18q-152 -326 -256 -553q-67 -147 -102.5 -228t-82.5 -211.5t-75 -244.5q-5 -19 -32 -162z" />
<glyph unicode="N" horiz-adv-x="931" d="M2 76q6 -9 21 -13q12 -4 20.5 0t18.5 15.5t12 13.5q23 19 30 33q36 90 50 135q7 21 16 60t12 51q79 293 82 303q14 51 66 219q4 16 20 57q2 -2 4 -2q2 -6 2 -20q2 -14 -4 -56t2 -59q6 -7 4 -49.5t-2 -50.5q1 -38 11 -187q15 -167 65 -336q22 -77 39 -103q27 -40 76 -54 q24 -6 31 14q2 7 4 22.5t2 16.5l49 213q45 214 47 223q38 171 49 215q9 35 28.5 104.5t28.5 104.5q46 158 48 164q83 240 100 287q40 104 100 237q22 54 62 133q33 67 63 121q13 25 40.5 73.5t41.5 72.5q10 17 10 32q0 29 -37 50q-32 15 -59 15q-16 0 -29 -5 q-27 -13 -12 -33q2 -4 2 -16q-6 -13 -19.5 -38.5t-19.5 -39.5q-3 -5 -18.5 -33.5t-22.5 -44.5q-5 -11 -23 -48.5t-28 -57.5q-3 -7 -11 -19.5t-11 -19.5q-6 -11 -14.5 -34.5t-12.5 -33.5q-5 -14 -16.5 -39t-16.5 -39q-31 -76 -51 -119q-15 -34 -12 -47q1 -4 -4 -20 q-6 -17 -24 -62.5t-26 -70.5q-10 -29 -38 -125q-4 -10 -10.5 -32t-10.5 -32q-4 -12 -16 -35.5t-18.5 -43t-4.5 -39.5q0 -1 -1 -2.5t-2.5 -4t-2.5 -4.5q-19 -60 -29 -88q-1 -4 -3 -14.5t-4.5 -17.5t-6.5 -11q-20 -20 -14 -49q5 -39 -7 -45q-15 -10 -20 -37 q-6 -21 -13.5 -61.5t-9.5 -51.5q-6 -27 -19 -78t-17 -65q-3 -11 -12 -33t-13 -32q-12 32 -12 39q-10 141 -10 220v25q0 11 -2.5 36.5t-2.5 40t9 33.5t28 32q-16 16 -22 27.5t-2 31.5q5 11 3 63q-1 35 -1 52v12q6 47 30 82q-6 6 -12 10q23 21 -6 37q14 18 -4 27q-10 5 -14 26 q-3 8 -6.5 23t-6.5 24t-9 21.5t-15 21.5q-6 8 -12.5 14.5t-15.5 12t-15 9t-18 8t-16.5 6.5t-18.5 6.5t-17 5.5q-10 0 -14 -8q-26 -62 -35 -91q-25 -71 -51 -157q-6 -22 -19.5 -65t-19.5 -64q-5 -20 -25.5 -96.5t-29.5 -118.5q-49 -189 -68 -289q-10 -49 -27.5 -146.5 t-27.5 -146.5q-2 -12 -27 -80q-5 -15 0 -18z" />
<glyph unicode="O" horiz-adv-x="677" d="M23 385q-2 13 -2 35q0 39 6 104q1 20 16 123q10 44 16 58q12 28 19 71l4 8q6 8 10.5 26t5.5 21q6 17 23 56q1 2 6 9.5t6 12.5q5 23 14 29q3 2 9 31q0 6 2 8l24 41q2 5 6.5 14.5t6.5 14.5q5 8 10.5 24.5t7.5 20.5q5 8 14.5 21t12.5 17q1 2 2 6.5t2 6.5l30 51q6 9 15 18 q14 10 14 25q-1 1 0.5 4t1.5 4q21 23 45 58q1 2 2 6.5t2 5.5q22 26 33 41q7 7 10 16q1 1 7.5 16.5t11.5 22.5q6 8 24 12t27 17q3 6 29 16q12 2 39 2q11 0 14.5 -4.5t3.5 -15.5q0 -5 6 -29q1 -3 4.5 -20t7.5 -25q7 -17 11 -43q2 -11 20 -43q2 -5 7 -15.5t7 -15.5q2 -6 7 -17 t8 -20t2 -18q0 -9 4 -21v-45q-1 -9 -4 -26.5t-4 -26.5l-6 -51q0 -12 -2 -16q0 -2 -3.5 -11t-3.5 -14l-18 -109q0 -4 -4 -8q0 -1 -2 -3t-2 -3q6 -15 -1.5 -39.5t-6.5 -34.5v-28q0 -20 -2 -21q-9 -4 -13 -26q-3 -33 -12 -72l-25 -98q-6 -23 -16 -47v-7q-2 -8 -5 -22t-6 -25.5 t-7 -21.5q-1 -3 -10 -19.5t-11 -25.5q-1 -2 -6 -10t-6 -13q-1 -3 -5 -13.5t-7.5 -16.5t-8.5 -11q-2 -2 -2.5 -7.5t-1.5 -6.5q-11 -25 -20 -39q-15 -29 -41 -66l-13 -18q-15 -21 -30 -39q-9 -12 -19 -22q-8 -7 -25 -18t-20 -13q-1 -1 -3 -2q-3 -1 -3 -2q-4 -6 -11 -9t-12 -3 t-14.5 0.5t-13.5 0.5q-9 0 -18 3q-9 0 -13 2q-6 4 -17.5 13t-17.5 13q-2 2 -11.5 10t-12.5 13q-4 4 -9 10t-11 13.5t-9 11.5q-9 12 -19.5 37t-13.5 30q-5 7 -10 22t-10 21q-3 4 -4 9.5t-1 13t-1 10.5q-5 13 -6.5 26.5t-2.5 36t-1 27.5zM138 280.5q0 -23.5 5 -44.5 q2 -6 4.5 -18.5t6 -22.5t8.5 -17q2 -4 16 -4q3 2 7.5 7t7.5 7q12 7 26.5 30.5t28.5 29.5q20 10 24 35l4 4q1 3 7.5 11t7.5 13q2 13 22 23q13 3 13 14q0 15 12 27q3 3 8 22q0 15 2 17q6 4 9.5 9.5t6.5 14t5 11.5q0 4 2 4q14 8 14 32q0 11 2 13q12 7 16 37l1 5q1 6 3 9t7 6 q4 0 4 12q-2 13 10 33q4 12 8 18q6 22 8 27q4 13 2 17q-8 8 5 14q3 3 8 18l6 31q2 4 5 12.5t5 12.5q1 1 2 2.5t2 2.5t2 1q15 -2 15 12v27q0 5 1 12t1 8q16 8 16 10q6 14 2 29q-3 28 14 55q0 1 1 4t1 5q1 4 6 37t11 49v4q-11 16 -12 20q-7 18 -7 29q0 6 2.5 17t2.5 16 q2 26 1.5 51t-1.5 51q0 10 -7 14q-12 4 -18 -2q-24 -23 -31 -41q-2 -8 -9.5 -19.5t-10.5 -17.5q-3 -8 -17 -24t-16 -29l-2 -2q-7 -2 -11 -7t-7 -12.5t-5 -9.5q-5 -7 -9.5 -15.5t-9.5 -19.5t-7 -16q-2 -2 -8.5 -6.5t-6.5 -7.5q-1 -8 -8 -20.5t-8 -16.5q-2 -4 -12 -20.5 t-10 -26.5q0 -1 -1.5 -2t-1.5 -2q-3 -5 -18 -35q-4 -13 -6 -14q-9 -7 -14 -31q-5 -25 -9 -27q-9 -5 -13.5 -18t-6.5 -16q-8 -10 -12 -39q-1 -7 -8.5 -17t-8.5 -14l-22 -66q0 -10 -2 -14q-1 -2 -6.5 -16t-6.5 -21q-8 -34 -16 -49q-2 -4 -8 -47l-6 -39q-1 -3 -6.5 -21.5 t-6.5 -27.5q0 -16 -2.5 -44.5t-2.5 -52z" />
<glyph unicode="P" horiz-adv-x="813" d="M0 162q5 -34 8 -39q12 -18 36.5 -52.5t29.5 -41.5q25 -36 51 -27q22 8 31 18t12 35q2 26 5 56.5t7 68.5t6 58q1 5 1 15t1 15q7 38 35 162l41 182q3 14 8.5 41t8.5 41q35 138 43 164q1 2 4.5 13.5t5.5 15.5l6 12t9.5 13t12.5 8l68 45q12 8 143 94q12 9 45 31t50 36 q19 15 39.5 32.5t45 39t38.5 33.5q129 109 184 233q26 57 33 97q4 16 4 29q0 36 -27 59q-67 53 -140 53q-16 0 -32 -2q-21 -3 -39 -12l-63 -25q-3 -2 -8.5 -6t-8.5 -6q-102 -93 -123 -113q-72 -64 -102 -117q-15 -29 -45 -32q-8 0 -25 -23q-2 -3 -5 -11.5t-5 -11.5 q-7 -14 -19.5 -40.5t-23 -48.5t-18.5 -42q-30 -72 -43 -118q-15 -40 -27 -84q-13 -35 -20 -47q-9 -13 -29 -36.5t-29 -37.5q-12 -20 -12 -46q0 -21 8 -44q3 -11 3.5 -22t-2 -21.5t-4.5 -18.5t-6.5 -20t-6.5 -19q-3 -9 -12.5 -26.5t-12.5 -26.5q-3 -8 -9.5 -32.5t-12.5 -37.5 q-2 -7 -10.5 -19t-10.5 -19q-18 -55 -33 -111q-10 -37 -26 -111q-13 -57 -33 -153zM385 1067q35 107 55 154q45 110 125 206q44 51 80 82q82 66 125 93q52 28 94 28h6h25q32 -13 25 -47q-16 -52 -31 -80q-25 -47 -72 -104q-4 -6 -10.5 -12.5t-14.5 -13.5t-12 -11 q-13 -12 -37.5 -36t-39.5 -39t-37 -34.5t-41 -35.5q-22 -17 -48 -35t-61 -39.5t-51 -32.5q-30 -20 -57 -35q-3 -2 -11 -4t-12 -4z" />
<glyph unicode="Q" horiz-adv-x="780" d="M0 459q1 45 25 211q20 124 38 184q7 23 33.5 102t38.5 125q-7 -7 5 17q10 21 43 82q17 32 22 41q13 25 43 92t51 102q47 84 123 184q5 5 15.5 7.5t31.5 3t25 0.5q6 0 16.5 -3.5l13.5 -4.5q40 -12 53 -30t13 -59q0 -5 1 -14.5t1 -13.5q112 -27 147 -109q7 -21 4 -41v-2 q2 -26 13 -49q2 6 3 3q1 -7 -11 -30q-2 -5 -17 -30q-5 -48 -22 -162q-17 -119 -35 -209q-41 -182 -64 -258l-4 -80q4 -12 1 -22.5t-27 -36.5q-26 -31 -48 -70q-28 -69 -34 -86q-20 -56 -68 -129l10 -18l4 -23l5 -8l2 -21l8 -18l10 -18l8 -19l12 -16l9 -19l10 -16l10 -21 l10 -18l17 -16l20 -29l15 -12l12 -15v-20l-19 -6l-24 18l-17 4l-12 11l-16 16l-21 12l-12 21l-14 14l-13 16l-14 15l-37 49l-8 18l-10 19l-13 14q-35 -35 -71 -59q-15 -9 -53 -4q-103 22 -160 129q-78 148 -78 288v17zM172 190q9 -38 26 -43.5t48 19.5q21 15 61 59l-4 17 l-10 18l-6 19l-2 24l-6 23l-11 20l-4 16l-2 19l-6 10l-4 6l-4 23l4 41l16 16l17 15l20 8l21 2l20 -8l16 -15l15 -16l10 -19l2 -20l-4 -10l6 -21v-20l4 -17q9 14 31 54q7 21 20.5 58.5t22.5 63t10 33.5q5 57 23 86q58 116 67 160q5 20 43 118.5t39 119.5q0 6 10 55q7 33 7 61 q0 14 -2 27q-2 10 -2 24q0 31 10 80q-2 5 -5 16.5t-5 16.5q-8 24 -19 29.5t-35 -8.5q-59 -37 -137 -97q-34 -29 -39 -43q-113 -249 -151 -350q-33 -85 -90 -297q-7 -26 -21 -117q-12 -72 -12 -136t12 -120z" />
<glyph unicode="R" horiz-adv-x="888" d="M-39 158q-7 -22 6 -39q33 -48 86 -111q12 -15 35.5 -21t42.5 3q10 5 10 18q-3 18 2.5 47t7.5 47.5t-10 47.5q0 1 1 2t1 2l64 266q9 39 27.5 109.5t21.5 82.5q4 18 16 54.5t17 52.5q40 -74 47 -96q36 -99 86 -263q26 -89 45 -184q22 -109 90 -186q32 -32 68 -32q7 0 14 1 q-105 487 -272 836q113 73 135 86q19 12 86 53.5t102 66.5q78 58 133 113q50 50 140 156q8 9 20.5 31.5t20.5 31.5q59 69 83 183q7 26 7 48q0 40 -23 66q-40 51 -63 62q-62 27 -94 27q-6 0 -11 -1q-132 -21 -285 -149q-82 -69 -147 -137q-15 -15 -28.5 -32.5t-31 -43 t-24.5 -35.5q-3 -4 -7 -7t-9.5 -6t-8.5 -5l-8 6q-7 -15 -47 -96t-59 -126q-67 -145 -101 -241q-26 -70 -75 -258q-56 -206 -111 -430zM379 1034q7 15 32.5 67.5t41.5 80.5q79 143 200 258q48 45 79 71.5t79 56t96 44.5q1 0 3 1t3 1l70 -6q-1 -5 -3 -28.5t-7 -35.5 q-64 -152 -221 -299q-48 -44 -74 -65q-2 -2 -10 -9.5t-12 -10.5t-11 -6.5t-14.5 -3t-16.5 4.5q-1 1 -22 -10q-86 -58 -113 -74q-34 -19 -92 -45z" />
<glyph unicode="S" horiz-adv-x="677" d="M1 135q0 -2 2.5 -7.5t2.5 -6.5q3 -5 8.5 -15t9 -17.5t5.5 -14.5t9 -22t9.5 -26.5t-0.5 -23.5q-1 -1 2 -8q1 -1 2.5 -4.5t3.5 -5.5t6 0q80 21 93 26q72 32 142 98.5t85 96.5q8 13 25 51q21 66 24 80q1 2 6 39q4 46 4 69q0 27 -6 54q0 2 -4 38.5t-8 55.5q-2 11 -23 92 q-15 63 -18 72q-4 14 -13.5 42.5t-13.5 43.5q-30 103 -35 123q-11 69 -12 73q-11 51 -11 98q0 24 3 46q10 68 37 121q32 58 63 92q22 25 47 47q4 4 37 26q1 1 18 13.5t25 17.5q4 4 10.5 7.5t14 7.5t10.5 6q5 3 19.5 10.5t21.5 11.5l4 -4q-2 -2 -11 -10.5t-12 -11t-11 -9.5 t-13 -9.5t-12.5 -7t-15 -7t-15.5 -4.5q9 -14 -8 -21q0 -24 14 -31q17 -8 34 -8q24 0 48 17q29 20 96 75q12 8 21 17q23 23 33 26q1 0 3.5 5t2.5 8q-1 3 -1.5 7.5t-1.5 8.5t-3 8q0 1 -1.5 6t-2 7t-2 6t-3 6.5t-4 5.5t-5.5 5t-7 3q-6 3 -31 8q-5 1 -12 1q-31 0 -96 -11 q-31 -5 -72 -33q-17 -11 -37 -28l-86 -68q-2 0 -6 -4q-25 -10 -27 -12q-5 -5 -47 -53q-2 -2 -6 -7.5t-7 -8.5t-7 -3q-3 0 -6 -1t-5 -2.5t-3.5 -3t-3.5 -5t-3 -4.5t-6 -11q-2 0 -4 2q8 23 10 37q-26 -16 -32 -43q-15 -59 -29 -141q-4 -16 -4 -40.5t4 -55.5q8 -59 14 -92 q6 -22 19.5 -62.5l17.5 -52.5l21 -70q5 -20 15 -62l15 -63q2 -7 8 -25t7 -28q8 -74 8 -108v-5q0 -16 -4 -67q-7 -87 -43 -135q-35 -54 -90 -115q-45 -48 -84 -65q-9 -4 -13 0q-7 4 -11 22t1 25q8 15 -8 22q-5 -6 -20.5 -24.5t-22.5 -28.5q-16 -22 -33 -55q-5 -3 -7 -6t-2 -7 v-6z" />
<glyph unicode="T" horiz-adv-x="612" d="M41 160q6 31 35 149q7 33 22.5 112.5t24.5 121.5q6 24 16.5 73t17.5 78.5t17.5 70.5t20.5 75q15 55 90 268q11 37 51 137q6 17 20 47t19 43q5 11 12 34.5t10 31.5l-6 6q-19 -8 -31 -10q-86 -9 -163 -21q-36 -4 -58 10q-23 15 -21 47.5t27 43.5q11 5 39 10q12 3 33 7.5 t38.5 8.5t33.5 8q103 35 180 50q13 3 23 22q3 6 7 19.5t7 19.5q5 18 24 12q17 -4 27 -16.5t8 -26.5q0 -7 1 -12t2.5 -7.5t5.5 -4.5t6 -2.5t8 -1t8 -0.5q13 -1 45.5 0.5t44.5 -0.5q6 -1 24 -2t27.5 -2.5t23 -7.5t23.5 -15q1 -2 4 -2.5t7 -0.5t6 -1q12 -4 16 -8 q-7 -13 -10 -15l-133 -30q-69 -17 -127 -33q-19 -10 -27 -37q-32 -74 -55 -143q-13 -36 -36.5 -107.5t-35.5 -107.5q-5 -14 -23 -66t-26 -80q-34 -107 -74 -258q-6 -26 -17 -76.5t-17 -76.5q-15 -79 -46 -213q-3 -15 -11 -46t-11 -47q-2 -12 -4 -35t-4 -34q-6 -53 -15 -105 q0 -3 -4.5 -6t-7.5 -2q-33 7 -47 35q-6 15 -20.5 42.5t-20.5 41.5q-8 14 -4 35z" />
<glyph unicode="U" horiz-adv-x="714" d="M42 514q6 194 48 385q26 122 40.5 186.5t44.5 170.5t67 206q7 24 20 24q12 0 29 -20q14 -20 17 -52q1 -9 0 -18q0 -24 -4 -52q-6 -38 -15.5 -74t-19.5 -74.5t-13 -58.5q-4 -33 -28 -132.5t-25 -150.5q0 -54 -17 -127q-22 -100 -32 -308q-3 -63 -4 -110q0 -110 16 -137 q12 -15 19.5 -14.5t31.5 18.5q43 33 100 166q23 43 89 251.5t142 457.5t105 331q27 76 27 103q-1 27 28 17q36 -13 64 -56q22 -31 24 -66v-13q0 -29 -8 -57q-10 -34 -24 -67t-26 -71q-11 -35 -11 -61q0 -27 -21.5 -64t-21.5 -56q-19 -60 -61.5 -197.5t-71 -227t-69 -200 t-74.5 -180.5q-29 -58 -69 -98.5t-73 -40.5h-3q-60 -1 -111 45q-53 46 -82 129t-29 233q0 29 1 60z" />
<glyph unicode="V" horiz-adv-x="729" d="M82 449q6 -145 6 -146q3 -32 21 -119q9 -52 47 -94q2 -3 5 -8.5t5.5 -9t8 -5.5t13.5 -1q-7 -12 7 -15q21 0 28 -10q7 -12 27 -8q14 0 22 2q1 1 4.5 1.5t5.5 1.5t3 3q17 23 34 92q15 53 33 105q2 8 11.5 29t11.5 32q8 45 35 122.5t34 104.5q4 13 16 42t17 46q21 62 45 123 q10 26 41 90q18 41 58 123q24 56 51 105q9 19 29.5 54t29.5 54q3 5 7 15t5 12l31 47q6 13 18.5 38t18.5 38q9 18 10 22q2 5 4 15.5t4 15.5q23 35 25 39q3 8 10.5 24t12 26t9 24t5.5 26q4 16 3 40t-17 40q0 -10 -3 -16q-4 -11 -8 -15q0 1 -1 3.5t-1 3.5l-16 22 q-100 -146 -248 -428q9 3 14 8q20 35 25 45q2 5 23 40t26 57q0 2 3.5 6.5t4.5 5.5q19 29 25 39q4 6 14 30q4 0 6 -2q0 -1 1.5 -6.5t0.5 -7.5q-3 -10 -16 -31q-7 -13 -22.5 -36t-22.5 -35q-3 -6 -19 -35.5t-24 -46.5l-37 -70q-7 -14 -20 -38t-17 -31l-43 -89q-18 -36 -28 -61 l-25 -55q-17 -40 -18 -43l-25 -66q-4 -7 -20 -28q-3 0 -7 4q0 4 2 6l43 104q3 12 17 39q9 23 27 64.5t24 56.5q4 4 6 8q8 8 10 14q0 3 -4 11l-3 -2q-3 -2 -3 -4q-35 -63 -41 -76l-65 -146q-41 -107 -43 -114q-39 -113 -103 -289q0 -1 -2.5 -12t-4 -14.5t-7 -9.5t-14.5 -7 q-10 63 -11 74q-2 18 -2 53q-4 106 -4 162q0 51 6 104q4 33 13.5 98.5t13.5 98.5q6 45 14 135l6 63q1 8 6.5 44t6.5 55q4 38 8 110q0 48 -23 90q-12 21 -48.5 28t-41.5 9q-18 8 -53 -14l-5 -2q-4 -1 -5 0q-6 5 -11 5t-7 -1.5t-7 -6.5l-4 -5q9 -26 8 -29q-5 -16 8 -51 q32 -73 32 -154q0 -13 -1 -26q-3 -37 -7 -80t-9 -94.5t-8 -81.5q-2 -18 -12 -88.5t-13 -108.5q-4 -41 -4 -127q-1 -19 -1 -56t-1 -57v-36zM385 679q1 3 16 9q-5 -11 -8 -24q-9 12 -8 15zM750 1386q-10 23 22 41q2 -2 4 -2zM825 1528q3 5 9 15.5t8 15.5l6 -5q-1 -1 -5 -13 t-18 -13z" />
<glyph unicode="W" horiz-adv-x="1222" d="M106 403q3 -37 8.5 -106t8.5 -100q3 -49 31 -84q6 -7 17 -22.5t17 -22.5q3 -3 12.5 -16.5t18 -20.5t19.5 -11h14q4 4 4 17q-7 44 -7 79q0 40 9 68q21 69 45 164l25 72q9 25 32 96l13 33q28 93 30 98q3 9 7 19.5t9.5 23t8.5 19.5q19 47 23 63q1 3 5 15.5t7 19.5q3 9 10 16 q0 2 6 8q4 20 20.5 52.5t20.5 48.5q5 15 13 30t18.5 33.5t15.5 28.5l33 61q40 77 47 93h6q-2 -6 -2 -17q-8 -35 -10 -57q-3 -18 -8 -56t-8 -57q-2 -22 -10.5 -80.5t-10.5 -89.5q-9 -121 -12 -237q0 -150 4 -226q4 -62 16 -198q3 -35 27 -62q6 -6 16.5 -20.5t16.5 -20.5 q24 -32 39 -45q5 -6 28 -10q0 4 1 13t1 14q-1 6 -3 23.5t-2.5 26.5t-1 23t1.5 26t5 24q3 10 8.5 31.5t8.5 31.5q14 56 37 121q3 11 10 32.5t10 32.5l31 93q2 7 7.5 19.5t6.5 14.5q7 22 20.5 65.5t20.5 65.5q15 43 33 84q18 40 18 54q0 6 2 6q9 5 13.5 14t8.5 21t7 18 q7 13 17.5 37.5t15.5 34.5q7 19 22 45l13 18q5 10 15 32t15 32q8 16 23.5 43.5t21.5 38.5q8 15 30 62.5t36 72.5q25 45 74 121q12 16 16 24q9 14 31 48t35 51q10 14 13.5 20.5t4 18t-7.5 22.5q-20 25 -31 27q-18 3 -45 -9q-4 -2 -6.5 -6.5t-6 -11.5t-5.5 -10q-1 -2 -8 -12 t-10.5 -13t-11 -7.5t-17.5 -4.5q2 -6 2 -11t-1 -8.5t-4.5 -8.5t-5 -6.5l-6.5 -6.5l-6 -6q-14 -13 -25.5 -28t-26.5 -40.5t-20 -32.5q-11 -17 -43 -79q-19 -33 -77 -136q-15 -20 -17 -24l-55 -105q-5 -10 -15.5 -30.5t-15.5 -30.5q-3 -7 -8.5 -20.5t-7.5 -18.5 q-6 -14 -19.5 -41.5t-19.5 -42.5q-17 -41 -27 -74l-24 -59q-2 -6 -7.5 -18.5t-7.5 -18.5q-1 -2 -2 -5.5t-2 -4.5q-14 -48 -20 -62q0 -1 -31 -84q-7 -25 -14 -41q-2 0 -4 2q0 2 -1 8t-1 9q0 9 1 26.5t1 26.5q1 19 2 58t2 59l12 131q2 18 5 55t5 56q1 17 4 48t4 46 q2 23 7.5 69t7.5 70q1 16 4 49t4 51q4 31 8 97q7 20 6 22q-1 12 -2 17.5t3 16.5t6 15.5t8 14.5t8 14q19 33 67 98q16 23 6 43q-12 23 -34 33q-17 6 -37 -5.5t-29 -29.5q-5 -16 -24 -31q-2 -2 -6 -4t-6.5 -3t-5 -4t-3.5 -7q-9 -28 -18 -35q-34 -34 -56 -76q-15 -26 -55 -98 q-92 -153 -98 -164q-35 -59 -64 -116l-20 -37q-5 -13 -15.5 -39.5t-15.5 -40.5q-6 -14 -19.5 -42.5t-19.5 -43.5q-16 -38 -33 -88q-4 -12 -13 -34t-13 -34q-8 -21 -21 -63l-30 -82l-13 -39h-6q0 3 -1 9t-1 9q0 8 1 25.5t1 25.5q1 19 2 59.5t2 59.5l13 133q4 66 8 99l12 135 q2 18 6 55t6 55l13 134q2 21 6 61.5t6 60.5q1 4 4.5 21t3.5 25t-4 24.5t-4 24.5q-2 32 -35 57q-13 8 -18 -6q-2 -9 -12 -44t-13 -54q-4 -25 -13.5 -69.5t-11.5 -53.5q-16 -76 -36 -232q-17 -99 -25 -180q-15 -137 -16 -166q-10 -155 -10 -266q0 -59 3 -105z" />
<glyph unicode="X" horiz-adv-x="847" d="M8 121q12 25 33 78t37 84q22 34 35 63q32 63 49 107q4 10 12.5 39.5t15.5 44.5q10 21 25 24q6 1 9 13t1 20q-7 27 19 37q4 3 7 8t5 13t4 12q32 53 37 63l4 4q-26 169 -90 553q-6 36 -22 80.5t-27.5 72t-17.5 69.5q-2 14 -3 28q0 26 9 47v10q2 1 9.5 9.5t10.5 8.5t16 -1 q-6 14 11 14q18 -4 28 6t27 2q21 -5 22 -6q12 -6 13 -8q9 -19 18 -96q7 -68 14 -109q1 -10 6 -31t5 -34q1 -47 15.5 -134t16.5 -100q8 -71 33 -209q6 14 29 55l61 95q8 12 7 16q-3 11 16 35q16 19 61 84l39 55q5 7 15.5 24t17.5 25q3 5 13.5 14t13.5 13l59 74q8 9 24.5 27.5 t24.5 27.5q10 10 45 55q5 3 0 13q-16 18 17 22q8 1 16 1q34 0 78 -23q39 -20 39 -43q0 -13 -13 -27q-16 -17 -48.5 -49.5t-49.5 -50.5l-76 -82q-17 -21 -73 -95q-77 -103 -119 -168q-53 -83 -123 -208q-18 -31 -43 -82l16 -80q4 -18 13.5 -53t11.5 -41q33 -126 35 -131 q14 -54 33 -113l43 -115q0 -1 2 -13t4 -18q1 -3 9.5 -21.5t10.5 -29.5q6 -18 25 -80q4 -8 8 -24q0 -21 2 -31q2 -7 8 -21.5t8 -21.5q2 -9 8.5 -32.5t9.5 -40t3 -31.5q0 -3 -1 -15.5t-1.5 -18t-3.5 -15t-8.5 -16.5t-14.5 -13q2 6 2 16q0 5 -6 17l-4 -7q-9 -9 -21 -18 q-74 161 -169 463q8 -3 12 -10q3 -8 8 -25t8 -25q1 -4 16.5 -42t16.5 -60q0 -2 2.5 -7l3.5 -7q10 -20 16 -41q2 -5 5.5 -16.5t5.5 -16.5h6q4 8 4 14q-1 5 -12 33l-31 78q-9 28 -29 88l-24 76q-22 69 -23 73q-20 62 -28 95l-19 67q-3 10 -14 58q-2 7 -6.5 18t-6.5 18 q-1 -2 -4 -8.5t-4 -11.5l10 -33q5 -21 14.5 -63t14.5 -64q0 -1 2.5 -3.5t3.5 -4.5l6 -16q0 -1 -2 -5t-2 -6q-6 6 -6 9q-13 36 -26 82q-3 12 -12 39.5t-13 44.5l-6 -17q-22 -49 -64 -160q-23 -55 -63 -165q-10 -26 -32 -80t-32 -80q-2 -3 -3.5 -14t-4.5 -15q-9 -14 -37 -6 q-64 23 -88 55q-13 18 -12 37q0 15 8 31zM555 -45q-13 -23 16 -45q2 0 4 2zM606 -199q3 -8 7 -18t5 -14q2 2 7 2q-2 3 -2 10t-3.5 12t-13.5 8z" />
<glyph unicode="Y" horiz-adv-x="679" d="M2 35q-7 -32 12 -49q25 -25 39 -35q26 -22 39 -31q12 -8 31.5 -3t19.5 15q6 43 9 76q0 14 1.5 28.5t6 31t7 26.5t9 30.5t8.5 27.5q4 14 16.5 44t16.5 46q14 43 49 157q7 17 47.5 135t44.5 134q6 20 17.5 62.5t17.5 62.5q2 6 7 17.5t8 20.5t2 17q0 20 18 51q21 38 76 117 q82 112 98 135q25 34 67 97t56 83q40 58 47 70q14 23 28.5 49t32 57.5t27.5 48.5q27 50 51 99q13 26 15 37q1 7 -1 13t-8 12t-9 8.5t-13 9.5t-12 8q-25 17 -43 -10l-49 -76q-4 -6 -13.5 -17.5t-13.5 -17.5l-72 -96q-17 -20 -28 -37l-60 -86q-11 -15 -24 -30.5t-28 -34 t-24 -29.5l-129 -176l-10 -7q1 7 2 21t2 20q4 100 8 144v73q5 118 5 138v14q0 21 -1.5 52t-1.5 52v15q2 22 -16 45.5t-43 30.5q-22 6 -22 -11q-1 -6 -1.5 -17t-1.5 -17q-4 -52 -8 -76q-4 -44 -8 -62q0 -2 -12 -55l-6 -70q-2 -20 -6.5 -57.5t-6.5 -56.5q0 -4 -6 -52l-6 -57 q-5 -58 -6 -70q-12 -86 -16 -129q0 -12 16 -32q9 -12 22 -25q3 -6 3 -12l-37 -105q-5 -16 -13.5 -49.5t-13.5 -50.5q-37 -115 -113 -315q-29 -94 -41 -138q-31 -99 -41 -139q-4 -17 -9 -50t-9 -50z" />
<glyph unicode="Z" horiz-adv-x="942" d="M-41 72l121 231q8 1 14 5.5t9 9t6.5 13t5.5 11.5q19 34 87.5 155t94.5 171q49 86 61 104q66 103 88 133q8 15 27.5 40t22.5 30l8 6q5 -9 2 -12q-1 -2 -12 -13q-1 -2 -4 -3.5t-3 -2.5q-8 -12 -69 -110q-18 -27 -23 -37q-55 -91 -59 -98q-2 -2 -2 -7l4 -4q21 21 24 25 q6 10 17.5 31.5t17.5 31.5l25 37q6 10 18 28t15 23q7 12 22 34t17 24l57 80q7 10 22.5 30.5t22.5 30.5l49 66q9 13 27.5 36.5t27.5 36.5t29 35.5t25 28.5q16 16 22 26v17q-1 0 -3 1t-3 1q-15 -25 -18 -29l-31 -35l-10 -10q-6 -16 -16.5 -30t-25 -31t-22.5 -27l-31 -39 q-6 -6 -16 -6q176 230 240 303q-2 0 -4 -2q-28 -2 -83 -4t-83 -4q-176 -15 -215 -19q-79 -9 -144 -59q-22 -18 -41 -18q-3 1 -6.5 -1t-8 -5.5t-7.5 -4.5q-1 1 -4.5 2.5t-5 3t-3.5 4t-1.5 6.5t2.5 9q4 3 -3 10q-1 1 -7.5 11t-8.5 13.5t-3.5 11.5t-0.5 15q3 17 0.5 32t0 33 t13.5 30q30 30 72 36q78 10 92 11q12 2 26 3t30.5 1.5t25.5 1.5q9 0 27.5 1t27.5 1q37 4 115 8q27 2 82.5 4t83.5 4q13 1 41.5 7t44.5 6q20 0 45.5 6t34.5 8.5t22 -4.5q12 -14 21.5 -55t3.5 -54q-11 -29 -90 -78q-4 -10 -11 -21t-16 -24.5t-14 -21.5q-5 -7 -16.5 -19 t-14.5 -16q-1 -3 -5 -13.5t-7 -15.5q-6 -12 -14 -20q-38 -55 -50 -70q-6 -8 -19.5 -23t-16.5 -18q-3 -4 -7.5 -13t-7.5 -13q-35 -40 -78 -97q-44 -59 -65 -94q-4 -6 -76 -112q-8 -14 -27.5 -41t-27.5 -41q-31 -52 -64 -117q-37 -62 -45 -82q-12 -26 -69.5 -124.5 t-71.5 -141.5q-5 -12 -18.5 -34t-14.5 -24q-6 -16 -16 -32q41 13 147 34t131 29q25 6 50.5 10t50.5 6t32 3q12 1 45 5.5t50 4.5q6 0 25.5 1t29 0.5t24.5 -4.5t27 -12q2 -2 8.5 -1.5t10.5 -0.5q2 0 6 -1t6 -1q2 -2 6 -2q0 -1 -1 -2t-1 -2v-2l-2 -2v-2q-3 -6 -6 -6 q-67 -24 -135 -45q-107 -40 -129 -49q-13 -6 -124.5 -26.5t-158.5 -33.5q-3 -1 -14.5 -6.5t-18.5 -7.5l-131 -31l-8 -8q-2 -4 -14 -4h-23q-6 0 -8 2q-24 -6 -47 4q-17 7 -24.5 24.5t-2.5 35.5q0 4 -2 6zM315 672q-2 -3 4 -15l13 23q-15 -5 -17 -8zM784 1315l33 33l-4 4 q-15 -4 -23.5 -15t-5.5 -22z" />
<glyph unicode="\" horiz-adv-x="958" d="M139 1638q3 -48 27 -104q4 -6 7.5 -18.5t4.5 -14.5q0 -6 4 -18l49 -160q53 -186 91 -299l22 -76q7 -23 18.5 -59t12.5 -41l88 -248h2q2 -14 10 -37q2 -8 7 -24.5t7 -24.5l5 -12q0 -1 18 -70v-2q0 -1 1 -3t1 -3v-2q19 -62 69.5 -258t55.5 -223q12 -71 12 -113q3 -27 6 -31 q6 -8 26 -17.5t36 -10.5q5 -3 8 0q11 3 21 55q15 56 20 67q13 28 -32.5 201.5t-82.5 280.5l-6 14q-6 6 -14 35v2l-4 14v2q2 9 -4 19l-2 2v2l-5 16l-2 8h2l-4 11q-11 39 -12 45q0 11 -6 26q-4 8 -4 15l-19 84l-6 18q-3 15 -10 29q-11 25 -27 69t-18 50q-1 3 -2 7.5t-2 6.5 q-13 30 -39 135l-12 41q-4 17 -71 234t-73 235q0 2 -4 14q-14 41 -6 64l-2 2q-5 9 2 16q8 4 2 19l-4 6q-8 21 -18 33v2h-7q-6 1 -10 2.5t-6.5 4.5t-4 5t-2.5 5l-1 3q-6 25 4 35h-10q-1 0 -4 -1t-4 -1l-50 -6q-16 -4 -20 -8q-29 -19 -29 -50z" />
<glyph unicode="_" horiz-adv-x="1390" d="M0 23v2q2 37 23.5 68t54.5 32q77 4 219 8q123 2 464.5 -2t465.5 -2q30 0 41 -25q-31 -6 -91.5 -29.5t-89.5 -29.5q-57 -10 -203.5 -14t-338.5 -4h-205q-38 0 -83.5 -1t-57.5 -1q-11 -3 -40 -8t-36 -9q-19 -6 -54 -5t-51 5q-16 6 -16 15h-2z" />
<glyph unicode="`" horiz-adv-x="313" d="M41 1571q-4 12 4 23t17 16.5t12 5.5t10.5 -8t9.5 -9q4 -1 8 0t11 -0.5t12 -5.5q5 -3 17.5 -20t30.5 -43t30 -41q6 -7 14.5 -16.5t15 -16.5t14.5 -16.5t12.5 -16t9 -14.5t4 -11.5t-2.5 -8.5q-11 -11 -30.5 -16.5t-30.5 -2.5q-5 1 -9.5 6t-10 14t-9.5 17t-9.5 19.5 t-8.5 17.5q-14 29 -92 72q-13 7 -17.5 14.5t-6.5 20t-5 20.5z" />
<glyph unicode="a" d="M-60 37q-1 6 -1 14q0 22 6 58q4 22 22 65t32.5 77.5t15 70t-24.5 51.5q-12 6 -24.5 18.5t-18.5 24.5q-14 20 11.5 36t63.5 28t44 18q28 11 40 30q38 59 74.5 138t52.5 108q14 11 56 104t96 222.5t61 146.5q24 57 95.5 149.5t99.5 141.5q69 118 102 118q16 0 23 -28 q1 -3 1 -8q1 -18 -15 -59q-12 -33 -13 -53q0 -11 4 -19q3 -6 3 -19q0 -36 -23 -127q-28 -111 -56.5 -305.5t-56.5 -424t-39 -304.5q-8 -101 -14.5 -159t-15.5 -94.5t-19.5 -48t-27.5 -9.5q-14 2 -21 10t-10 38q-2 23 -2 55v23q1 48 6 144q2 51 4.5 114.5t3.5 92.5t0 31 q-1 1 -4 1q-19 0 -123 -36q-76 -26 -101.5 -42.5t-39.5 -47.5q-17 -37 -61.5 -166t-63.5 -195q-22 -72 -44 -78q-2 -1 -6 -1q-22 0 -63 47q-26 27 -29 49zM295 604q-2 -14 5.5 -18t33.5 -4q24 1 67 17.5t62 16.5q25 -4 31 9q3 41 31.5 262.5t37.5 234.5q17 29 7 45 q-7 10 -15 -3q-2 -5 -4 -13q-13 -50 -71 -143t-72 -134q-7 -18 -59.5 -127.5t-53.5 -142.5z" />
<glyph unicode="b" horiz-adv-x="745" d="M-41 123.5q0 -17.5 8 -27.5t22.5 -30.5t22.5 -30.5q14 -14 29 -23q3 -3 22 -8q12 -8 19 4q16 28 31 43q34 36 88 74q6 5 90 78q110 94 127 110q40 38 94 95q24 26 51 69q22 39 37 80q3 9 6 26.5t4 22.5q5 31 5 59q0 42 -11 78l-31 80q-28 77 -79 125q-55 49 -127 86 q-21 9 -22.5 13.5t7.5 21.5q1 2 2 7.5t2 8.5q12 18 15 21q36 29 104 78q102 73 123 88q2 1 53 41q5 4 24.5 22.5t29.5 26.5q58 44 102 106q20 27 20 58v13q0 54 -22 95q-22 34 -51 41q-52 10 -91 10q-18 0 -34 -2q-24 -2 -70 -14q-8 -1 -23.5 -4t-23.5 -4q-38 -4 -53 -8 q-46 -13 -72 -49q-8 -10 -8.5 -14.5t8.5 -12.5q-1 -5 -10 -25.5t-10 -33.5q-5 -38 -23 -99q-6 -21 -23 -70t-24 -75q-13 -48 -43 -74q-33 -33 -33 -74q0 -15 4 -30q1 -23 2 -25t-3.5 -23t-4.5 -22q-17 -52 -18 -55l-31 -103q-2 -5 -21.5 -64t-27.5 -91q-33 -121 -41 -154 q-21 -91 -39 -186q-4 -18 -7 -39.5t-6 -48.5t-5 -41q-8 -52 -29 -66q-21 -21 -25 -26q-10 -11 -10 -28.5zM104 279q6 33 29 137q7 26 19 74.5t16 64.5l8 14q1 3 3 7.5t3 7.5t0 6q-2 7 2 17.5t4 15.5q1 8 7.5 24t7.5 21q2 7 7.5 19.5t6.5 14.5l12 31q18 48 19 51l6 21 q5 16 14.5 45t14.5 45q9 27 14 37q3 10 12 4q65 -33 117 -64q25 -13 61 -45q24 -17 24 -48q0 -6 -1 -13q-20 -96 -64 -164q-42 -67 -98 -117l-117 -106q-17 -14 -49.5 -42t-48.5 -42l-24 -21zM440 1337l13 58l6 69q0 27 24 45q39 33 97 50q3 1 21.5 6t24.5 6.5t22 5t25.5 4 t22.5 0.5t25 -2q4 0 12 -4q-4 -8 -6 -10q-55 -69 -106 -105q-96 -66 -134 -94q-6 -3 -21.5 -13.5t-25.5 -15.5z" />
<glyph unicode="c" horiz-adv-x="851" d="M-41 330v-9q0 -155 98 -268q31 -37 63 -43q8 -2 16 -2q26 0 59 15q10 4 41 22q306 186 548 428q25 27 25 53q0 10 -4 19l-55 -47q-17 -14 -29 4q-4 6 -7 -3t-7 -3q-19 24 -35 26.5t-41 -14.5q-21 -14 -67 -62.5t-66 -62.5q-24 -17 -111 -80t-143 -100q-60 -45 -102 -45 h-3q-22 0 -46 52q-21 47 -21 95v12q0 31 8 89q27 124 125 319q48 100 93.5 179t105.5 163.5t134 152t158 113.5q4 2 13 8.5t16 10t14 4.5q33 7 54 43q18 30 18 65q0 12 -2 25q-4 26 -1 34t0.5 14.5t-17.5 27.5q-19 28 -45 32t-52 -18q-160 -123 -266 -248 q-221 -264 -397 -680q-69 -164 -72 -321z" />
<glyph unicode="d" horiz-adv-x="1019" d="M23 1028q-8 15 10 45q24 46 49 74q74 91 123.5 132.5t140.5 96.5q18 11 68 37q21 13 32 17l7 4q2 0 2 2q46 24 55 84q6 42 18 82q0 6 4 14q2 7 4 11.5t4 5.5l1 1q4 0 14 -10q42 -48 47 -55q26 -33 60 -33h16q28 4 82.5 13.5t77.5 13.5q38 4 57 8q6 0 10 2h13q4 2 14 2 q24 0 49 -25q87 -90 139 -184q23 -45 22 -92q0 -24 -5 -49q-17 -84 -78 -199q-78 -151 -180 -293q-108 -142 -222 -250q-50 -46 -71 -67q-263 -242 -305 -279q-65 -60 -199 -133q-4 -4 -10 -4q-8 11 -4 20l18 56q3 8 11.5 34.5t13.5 41.5l6 22q104 335 131 426q18 61 51 170 t59.5 199t49.5 168l14 47q4 16 4 24q0 4 2 6l2 23l-18 2q-4 0 -6 2l-15 2q-10 0 -14 -2q-40 -19 -74 -41q-67 -47 -94.5 -71.5t-71.5 -77.5q-22 -22 -22 -47q0 -24 24 -48q14 -14 35 -14h14q0 -12 -4 -24q-9 -15 -26 -11h-6q-43 4 -60 21q-51 42 -69 100zM322 358l32 13 q1 1 5 2.5t6 3.5l55 49q75 61 127 113q236 227 430 561q30 54 70 135q15 35 15 72q0 26 -7 53l-2 4q-6 20 -10.5 32t-17.5 26t-32 18q-30 6 -37 6h-6q-98 -2 -256 -37q-8 0 -20 -8q-95 -62 -115 -148l-8 -26q-1 -4 -4 -12.5t-4 -12.5q-32 -124 -94.5 -358.5t-90.5 -343.5 l-18 -70l-4 -16t-4 -19z" />
<glyph unicode="e" horiz-adv-x="1011" d="M-47 162q-4 17 -4 32q0 36 22 66q47 38 66 107q17 59 26 82l74 258q7 14 7 42q0 11 -1 25l-24 166v4q68 33 92 41q42 19 61 53q18 31 58 101q7 13 45 141l4 18l-19 -4q-51 -8 -86 -8l-20 2q-6 3 -8 10q-3 9 -9 28t-8 26q-1 5 -6 19t-6 20q-2 6 -3 11.5t-1.5 9t-0.5 6.5 v4.5v2.5l1 1v1q0 4 20 15q47 19 103 28q111 19 268 35q33 3 108.5 11t171 19t132.5 15l14 2q16 2 51 2q51 0 76 -2h2q0 -15 -6 -30l-51 -21l14 -12q-5 -1 -47.5 -12t-64.5 -15q-14 -4 -103 -22q-79 -19 -135 -29q-48 -10 -59 -16q-13 -4 -23 -6q-94 -15 -139 -84 q-11 -18 -39.5 -75t-51.5 -105t-24 -52l-12 -24l22 8q226 59 246 59h12q60 7 86 14q2 0 6 2.5t7 2.5t10 -3t10 -4q16 -4 27 -4q3 0 8 1t8 1l4 2q8 1 22 5.5t21 5.5q-4 -35 -14 -58l-113 -43h-2q-47 -19 -143 -75q-66 -39 -96 -52q-7 -4 -15.5 -7.5t-17.5 -7t-14 -5.5 q-14 -8 -41 -17q-30 -11 -46 -17.5t-36.5 -23t-32.5 -38.5q-10 -22 -56 -149t-49 -146q-1 -4 -2 -12.5t-2 -12.5q-6 -24 23 -53q1 0 2 -2t2 -2q19 -19 43 -19q8 0 16 2q7 2 21.5 5.5t21.5 5.5q10 2 21 5.5t27 10.5t22 10q32 16 59 25q40 12 316 96q5 3 37 12q12 3 69 23 q4 2 15 2q8 0 12 -4q13 -13 10 -39q-3 -25 -8 -47q-4 2 -14 2q-19 0 -40 -3.5t-34 -6t-38.5 -12.5t-31.5 -12.5t-36.5 -16.5t-32.5 -15l-11 -6q-24 -10 -180 -108q-28 -17 -107 -66t-108 -65q-33 -19 -78 -52q-44 -29 -94 -84q-5 -5 -10.5 -9t-13.5 -8t-12.5 -6t-15.5 -6.5 t-16 -6.5l-16 -7h-4q-15 0 -35 39q-1 1 -6 11q-40 62 -49 94z" />
<glyph unicode="f" horiz-adv-x="813" d="M-19.5 -19q-0.5 28 1 58.5t0.5 36.5q-1 12 13.5 52.5t20.5 51.5l37 117q5 20 15.5 61t15.5 62q3 13 7 40t7 40q0 3 3 8t3 8l29 115q3 10 10.5 29.5t10.5 29.5q2 7 4 22.5t4 22.5q2 2 2 4q2 6 2 17q1 3 1 9t0.5 9.5t3 9t5.5 9.5q10 10 -6 34q-2 1 -18 29q-6 11 -9 25 q-4 42 -8 67q-1 6 1.5 10.5t8.5 9t7 5.5q2 1 6 1t4 -1q6 -6 11 -7.5t8.5 0t9 6t8.5 5.5q4 0 4 4q10 -13 22 -23q0 7 4 15v6q1 4 4.5 12.5t4.5 12.5l6 22q10 52 14 64q1 7 10 24q4 14 6 19l56 215q2 4 2 12q-2 2 -2 4q0 3 -3 7.5t-3 6.5q0 7 1 22t1 23q0 9 -4 33q3 3 8 10 t10 13.5t10 11.5q17 17 31 22q11 4 14 21q0 21 4 61q2 -3 16 -9.5t15 -16.5q0 -2 7.5 -5t11.5 -3q45 17 47 18q8 3 43 23l2 2q13 1 37.5 2t37.5 2l52 14l4 2q51 4 68 4h5q7 0 16 5.5t11 6.5q14 5 19 2q21 -11 39 -11q15 0 28 7h12l62 -6q48 -3 67 -51q2 -4 19 -55l-6 -6 q-2 1 -5.5 4t-5.5 4q-380 -52 -544 -154q-5 -37 -8 -49q0 -6 2 -10v-8q0 -46 -21 -119l-53 -180q17 4 51 8q2 2 2 4q34 9 66 20q7 3 41 10t51 17q8 4 43 14q8 5 40 3t40 -1q2 0 8 0.5t9 0t7.5 -1.5t8 -3.5t6.5 -7.5q0 -1 4 0t9.5 3.5t8.5 4.5q24 18 51 -6q3 -3 33 -18 q0 -7 -2 -15l-8 7q-7 -4 -18 -11t-20 -12.5t-17 -9.5q-3 -3 -13 -8q-14 -7 -59 -27q-6 0 -6 -2q-7 -16 -32.5 -22.5t-31.5 -10.5q-40 -29 -86 -37q-2 0 -8 -6q-45 -17 -47 -18t-21.5 -8t-27.5 -15q-3 -5 -16.5 -7t-16.5 -3q-4 -1 -26.5 -11t-34.5 -14q-6 -2 -19.5 -5 t-19.5 -5h-4l-11 -33l-73 -266q-58 -193 -66 -225q-8 -28 -19 -148t-24 -147q-17 -33 -75 -50q-30 -8 -48 -8q-15 0 -20 7q-5 8 -5.5 36z" />
<glyph unicode="g" horiz-adv-x="1325" d="M6 422q-6 48 -6 95t6 95q3 15 35 142q16 65 78 178q9 16 29 58.5t34 64.5q29 47 99 133q94 110 110 127q5 5 12 11t15.5 13t13.5 11l37 32q43 38 57 48q4 4 25 0q-2 14 0.5 18t19.5 -2q3 0 15 8q4 3 29 22t40 27q3 2 31 8q2 1 6 2.5t6 2.5q10 4 40 19t48 21 q105 30 163 30q10 0 18 -1q42 -4 79.5 -44.5t43.5 -84.5v-7q0 -28 -27 -67q-8 -10 -31 -18q-28 -8 -47 -8q-4 -1 -9 0t-11 3l-9 3q1 5 4.5 15.5t4.5 15.5q1 1 2.5 2t2.5 2t1 2q1 16 9 28.5t22 26t20 21.5q2 0 2 4q-6 9 -16 14t-16.5 5.5t-20 -0.5t-17.5 -1q-43 0 -102 -18 q-51 -18 -100 -49q-35 -20 -101 -70q-48 -32 -57 -39q-9 -8 -25.5 -26t-21.5 -23q-43 -33 -53 -45q-16 -17 -42.5 -51t-37.5 -46q-5 -7 -15 -18t-12 -14q-41 -58 -78 -117q-58 -96 -88 -152q-3 -6 -49 -124q-1 -2 -13.5 -36.5t-17.5 -52.5q-17 -53 -22 -94q-3 -19 -8 -119 v-14q0 -116 98 -176q34 -20 79 -23q14 -1 28 -1q28 0 53 4q21 1 44 7t39.5 12t43 16.5t39.5 15.5q68 23 143 84q51 44 106 108q30 35 99 135q7 11 22 60q11 42 15 65q8 22 -7 37q-27 19 -55 19q-19 0 -39 -9q-25 -11 -49 -11q-11 0 -21 2q-34 7 -61 34q-10 7 -14 25 q-22 63 -23 69q-8 33 -4 47q0 4 10.5 8.5t18.5 4.5q13 1 49 0.5t49 1.5q11 2 80 28l123 49q11 4 192 76l158 68q4 2 74 24q17 6 37 19q0 -5 1 -13.5t1 -13.5q4 1 11.5 2t10.5 2l4 -4l-26 -26q7 0 15.5 1t10.5 1h23q0 -31 -2 -37q-1 -3 -4.5 -5.5t-11 -6.5t-9.5 -5 q10 -6 25 -12q-34 -28 -35 -29q-57 -47 -147 -86q-18 -8 -54 -26.5t-55 -26.5q-15 -6 -46.5 -17.5t-47.5 -17.5q-11 -5 -34.5 -17t-35.5 -17q-48 -21 -53 -23q-15 -6 -17.5 -13t5.5 -22q39 -90 47 -168q1 -15 -3 -40.5t-5 -32.5q-4 -44 -37 -107q-4 -7 -11 -21.5t-13 -26.5 t-13 -22q-52 -69 -98 -120q-36 -42 -68 -62q-13 -8 -41.5 -20t-34.5 -15q-67 -37 -209 -73q-66 -19 -119 -19q-16 0 -32 2q-90 13 -150 70q-52 52 -86 96q-73 92 -88 205z" />
<glyph unicode="h" horiz-adv-x="952" d="M-20 -47q0 -3 8 -19q74 81 88 148q7 29 33 106q7 20 27.5 71.5t29.5 80.5q9 27 70 238q4 13 22.5 70.5t26.5 88.5q9 31 32 41q39 16 109.5 45t89.5 37q21 10 49 21l4 -7q-37 -119 -64 -252.5t-55 -306.5t-44 -258q14 8 32 17q8 7 25.5 20.5t25.5 20.5q5 6 33 45 q40 62 45 76q18 55 41 149q3 15 8.5 42t10.5 48.5t10 40.5q6 22 76 268q40 132 49 158q10 29 39 47q25 17 75.5 46t59.5 34q11 4 14 10q-6 8 -2 13.5t5 7t9 4t9 2.5q68 37 104 84q-49 -18 -135.5 -50.5t-122.5 -45.5l-2 6q19 55 100 286q26 84 31 117q2 10 2 20q0 30 -20 50 q-39 41 -106 41h-9q-2 0 -6 -2t-6.5 -4.5t-1.5 -3.5q3 -17 2 -23.5t-8 -20.5t-9 -20q-22 -58 -59 -188q-3 -15 -23 -60q-61 -190 -88 -266q-14 -32 -30 -41q-15 -7 -160 -70q-16 -7 -46.5 -18.5t-45.5 -17.5q46 148 65 200q18 54 115 336q18 64 23 107q1 6 1 12q0 38 -34 68 q-32 29 -75 29q-9 0 -17 -1q-4 0 -9 -20q0 -4 3 -12t2 -11q-57 -150 -68 -186q-7 -17 -21.5 -74t-31.5 -86q-6 -9 -9.5 -30t-5.5 -27q-3 -8 -14 -40t-16 -50q-50 -161 -76 -265q-4 -15 -14.5 -28t-17.5 -18t-26 -17l-36 -22.5t-45 -26.5q4 -12 12.5 -20.5t14.5 -12t19.5 -9 t18.5 -7.5q6 -3 12.5 -9.5t6.5 -9.5q-8 -45 -21 -98q-49 -185 -53 -205q-21 -101 -33 -205q-10 -65 -22 -188z" />
<glyph unicode="i" horiz-adv-x="473" d="M0 84q0 3 1 9.5t1 10.5q6 62 8 74q63 417 158 746q55 186 172 499q19 57 68 88q8 5 12 5l4 -5q7 -9 19.5 -27.5t19.5 -27.5l12 -20l4 -6q1 -2 4 -5.5t4 -5.5q13 -21 13 -42q0 -14 -6 -29q-15 -38 -33 -72q-85 -204 -94 -227q-116 -293 -185 -592q-55 -244 -82 -346 q-5 -23 -26 -74q-2 -6 -7.5 -18.5t-7.5 -18.5q-27 10 -39.5 30t-19.5 54z" />
<glyph unicode="j" horiz-adv-x="911" d="M-61.5 238.5q0.5 17.5 8.5 19.5q8 3 11.5 -2t6.5 -25q2 -13 9 -27.5t23.5 -36.5t52.5 -42t87 -33l17 4l20 2l37 21l22 8l13 16l16 13l10 20l15 14l12 17l16 14l9 21l10 18l12 16l12 19l21 37l12 18l6 21l13 20l10 19l16 41l10 14q14 27 17 39l2 2v4l4 8l49 127 q65 189 84 252q8 26 36 114t44 146q3 11 37 174l22 103q2 10 2 26q-27 -9 -61 -12l-10 -6l-15 -3t-18.5 -4t-15.5 -5q-3 -1 -22.5 -6t-27.5 -11q-4 -3 -17 -4.5t-17 -3.5q-11 -2 -33 -8t-33 -8q-3 -1 -39 -7h-6q-81 -19 -120 -19q-20 0 -29 5q-5 3 -4 12t-3 15q-11 8 -18 22 q-8 12 -8 19q-2 9 -4 26.5t-4 26.5q-1 4 1.5 7t7.5 6t7 5h12q7 -7 13 -8t15 5l9 5q1 0 3 1t3 1l21 -18l6 12v4q14 2 36 5.5t64 9t53 4.5l54 6l2 2q40 7 67 14q10 2 30 4.5t36.5 6t30.5 8.5q6 2 22 5t23 5q10 2 32 2q35 23 68 29l7.5 2.5t17.5 5t23.5 5t22 3t17 -1t4.5 -8.5 q27 -31 27 -51q0 -13 -8.5 -40.5t-20.5 -31.5q-8 -2 -16.5 -19.5t-22.5 -57t-24 -62.5q-168 -638 -275 -838q-1 -2 -2 -7t-2 -7q-1 -3 -3 -9.5t-3 -9.5l-8 -20l-6 -23l-9 -20l-2 -4q-34 -90 -74 -161.5t-76.5 -116t-75 -76t-70 -45.5t-60 -20t-45.5 -5.5t-27 4.5 q-5 1 -13 4.5t-9 3.5l-21 6l-18 10l-21 11l-18 10l-14 14l-13 19l-24 32l-15 17l-10 16l-8 21l-6 18l-6 21q-9 22 -8.5 39.5z" />
<glyph unicode="k" horiz-adv-x="802" d="M18 193q10 212 74 503q13 60 31.5 131.5t31 118t37.5 134.5t35 122q15 48 47 137t43 121q8 23 22.5 70.5t22.5 71.5q1 4 4 8.5t8 10t7 7.5q19 -15 22 -18q21 -34 21 -83q0 -27 -6 -59q-9 -42 -51 -202q-7 -30 -22.5 -90t-22.5 -89q-6 -17 -7 -26l150 133q216 188 340 293 l24 12q35 18 37 19q22 20 29.5 19t26.5 -24q24 -31 24 -49.5t-26 -42.5q-77 -74 -179 -166q-23 -21 -71 -64.5t-84.5 -77.5t-69.5 -66q-1 0 -154 -160q-20 -19 -20 -46.5t6 -47.5q35 -239 107 -463q7 -20 21 -72.5t24 -79.5q5 -16 22 -44t23 -42q3 -7 24 -112h-3 q-41 0 -74 45q-25 33 -45.5 76.5t-30.5 72t-27 82.5q-28 91 -90 330q-6 23 -35 176q-17 -22 -20 -27q-34 -58 -58 -186l-49 -230q-30 -170 -35 -204q-3 -20 -11 -24t-25 5q-48 23 -48 87v10z" />
<glyph unicode="l" horiz-adv-x="643" d="M6 170q-5 -23 -5 -43q0 -79 85 -115q17 -8 33 -8q24 0 43 19q16 16 48 45.5t48 44.5l168 182q5 6 12.5 13.5t16.5 16t14 13.5q42 40 82 82q7 7 10 16h-16q-19 -11 -53.5 -31t-40.5 -24q-137 -82 -218 -160l-86 -80q-4 4 -8 4q1 4 6.5 33.5t10.5 44.5q23 86 73 258l52 174 q6 23 37 137.5t49 174.5q13 41 38 122.5t37 122.5q19 62 41 164q15 67 33 168q3 20 -12 39q-9 15 -43 22.5t-47 -1.5q-15 -15 -15 -21q-5 -23 -12 -69.5t-12 -69.5q-6 -26 -20 -75t-17 -60l-68 -238q-9 -30 -31.5 -107t-35.5 -118q-14 -43 -38 -129t-38 -129 q-19 -64 -92 -289q-14 -47 -29 -129z" />
<glyph unicode="m" horiz-adv-x="1112" d="M-38 126q-4 11 3 30q28 71 58.5 184.5t37.5 183.5q3 32 18 78t21 72q25 100 60.5 187.5t142.5 318.5q156 340 174 340q12 -1 40.5 -29t45.5 -49q-8 -68 -21.5 -204t-25.5 -238t-27 -195q-5 -32 6 -31q10 2 17 21l2 14q39 132 184 397q16 32 31 35q12 0 12 12 q0 13 42.5 74.5t56.5 67.5q10 5 10 21q0 10 79 94q82 88 79 94q10 13 21 13q21 0 48 -46q5 -10 8.5 -19t5.5 -16.5t2 -20t-0.5 -21t-3 -29t-4.5 -34t-7 -44.5t-9 -54q-11 -63 -55.5 -256t-67.5 -315q-5 -32 -19 -77.5t-16 -78.5q-1 -61 -16 -304q-14 -228 -14 -258v-11 q0 -35 -23 -49q-31 -19 -48 0t-22 75q-1 23 -1 50q1 199 53 611q60 468 114 640l7 39q-51 -58 -89 -110t-79 -130.5t-62 -124.5t-78 -172q-16 -29 -16 -56q-1 -12 -31 -89q-32 -79 -31 -89q0 -10 -22 -67q-18 -45 -30 -71.5t-25 -45.5t-22.5 -25t-24 -3t-28.5 13t-36 30 q-36 34 -43 52q-5 13 -5 42q0 13 1 29q1 68 8.5 154t13.5 135.5t22 162t19 135.5q-18 -16 -56.5 -115.5t-66.5 -191.5q-23 -76 -23 -88q0 -3 1 -2q-33 -93 -81 -287.5t-75 -339.5q-6 -30 -14.5 -47t-17 -24t-24 -4t-26.5 8.5t-32 17.5q-22 19 -26 30z" />
<glyph unicode="n" horiz-adv-x="823" d="M0 4q0 -16 10 -29q8 -11 27 -22q4 -3 10 -8.5t11 -9t11 -6.5t13.5 -2.5t15.5 5.5l19 125q4 8 4 11q12 47 12 49q3 13 5 27.5t4 32.5t3 28q14 97 27 168q2 11 10.5 31t10.5 28q6 6 6 8v5q0 25 16 83q10 35 29 144q21 115 28 162l13 49q4 18 12 53.5t12 52.5l19 76 q1 0 3 -1t3 -1q0 -2 1 -6.5t1 -7.5q1 -29 1.5 -81.5t1.5 -96.5t3 -83q2 -76 10 -237v-6q4 -40 11.5 -116t11.5 -110q1 -10 4 -41t6 -49q12 -60 27 -86q9 -13 21 -26t28 -29.5t24 -24.5q12 -12 21 -12q13 0 22 6q1 2 0.5 4.5l-1.5 7.5t-1 7q-1 7 -5 32t-3 39q0 9 17 105 q2 22 14 61q3 15 10 42t10 42q1 4 8 30t9 40q7 26 20 88q4 16 10.5 46.5t10.5 45.5q28 110 32 123q3 10 8.5 32t8.5 32q6 24 20 67t17 55q32 120 37 136q7 23 20 62.5t18 55.5q0 2 29 113q7 24 20.5 72t20.5 71q1 4 3.5 15t2.5 15.5t-2 12.5q-37 66 -71 119q-9 9 -23 4 q-5 0 -10 -16q-1 -6 -1.5 -26.5t-2.5 -30.5q-3 -19 -29 -146q-5 -22 -17 -61t-14 -45q-32 -119 -37 -136q-9 -32 -30.5 -96.5t-30.5 -99.5q-5 -16 -16.5 -44t-18.5 -52t-8 -48q-1 -21 -13 -59.5t-14 -48.5q-6 -21 -17 -65t-17 -66q-3 -14 -11 -42t-12 -44q-2 12 -6.5 34 t-5.5 33l-6 115q-9 115 -9 150q-1 50 -0.5 150.5t-1.5 150.5q0 3 -6 231q0 8 -4 16q-2 7 -10.5 30t-9.5 36q-5 58 -52 115q-8 11 -18 9.5t-14 -13.5q-4 -11 -7.5 -24t-8 -28.5t-7.5 -25.5l-18 -90q-5 -17 -14 -48.5t-16.5 -57.5t-12.5 -50q-9 -33 -31 -131 q-5 -22 -17.5 -64.5t-17.5 -64.5q-16 -70 -39 -193q-6 -28 -17.5 -84t-17.5 -84l-18 -114q-2 -9 -5 -29t-5 -29l-27 -137q-11 -79 -20 -125z" />
<glyph unicode="o" horiz-adv-x="763" d="M20 913l97 78q1 0 2.5 3.5t3.5 4.5q8 8 43 48q-10 -42 -34.5 -114t-31.5 -95q-20 -69 -34 -168q-21 -133 -23 -193v-20q0 -129 70 -260q55 -99 147 -117q29 -8 47 4q80 54 123 125q48 70 68 125q9 24 42.5 102t47.5 123q27 84 69 281q9 40 33 190q17 117 27 207 q5 33 5 53q0 16 -3 23q-32 76 -137 100v27q0 38 -12 54t-50 26q-2 1 -11.5 4.5t-14.5 3.5q-6 0 -23.5 -0.5t-28 -2.5t-14.5 -7q-69 -89 -113 -168q-18 -31 -45.5 -92.5t-40.5 -86.5q-13 -24 -63 -86q-11 -13 -32.5 -43t-39 -48t-37.5 -27q-2 -19 -18.5 -27t-18.5 -27z M199 465q2 12 5 33.5t6 39t7 33.5q6 21 23.5 85t31 106t29.5 82q31 83 137 317q11 23 37 41q74 56 125 88q22 13 31.5 9t17.5 -27q12 -34 16 -68q2 -14 2 -30q1 -22 -3 -48q-6 -45 -9.5 -63t-15.5 -74q-3 -15 -23.5 -102t-31.5 -135q-10 5 -25 10l-4 -6q10 -13 11 -25.5 t-6.5 -31t-8.5 -23.5v-8.5t-0.5 -9.5t-4.5 -5t-14 4l-12 -24q-52 -157 -137 -281q-3 -4 -24.5 -36t-29.5 -43t-26.5 -31.5t-36.5 -34.5q-28 -22 -43 -16.5t-22 40.5q-12 52 -12 113q0 57 10 121z" />
<glyph unicode="p" horiz-adv-x="741" d="M0 47q4 2 4 0q4 -7 19 -16t16 -19q4 -8 14 -8q3 -1 11 -1t12 -1h4.5h4.5h4t4 0.5t3 1t3.5 1.5t3 2.5t2 3.5t1.5 5q12 40 21 84l37 148q5 20 17.5 60t17.5 61q38 140 41 151q23 84 24 88q5 16 13.5 50t13.5 51q4 16 16 51t17 55q2 7 5 21.5t5 21.5q3 10 10 30t11.5 35.5 t6.5 30.5q12 59 60 95l35 25t43 32q38 30 104 88t86 74q69 54 148 147q62 75 100 152q11 22 7 48t-21 38q-41 28 -95 28q-52 0 -73 -36q-7 -7 -11 -9q-7 -6 -47 -39t-61 -51q-28 -27 -82 -84q-5 -4 -16.5 -3.5t-16.5 3.5q10 52 15 90q3 28 -21 37q-10 3 -43 8h-35 q-6 -27 -12 -51q-1 -5 -4 -11.5t-4 -8.5q-44 -114 -84 -228q-8 -22 -15 -49q2 -2 7 -2l49 119h4l-12 -43q-2 -8 -7.5 -25.5t-7.5 -25.5q-16 -40 -22 -60q-5 -17 -14.5 -51.5t-14.5 -52.5q-2 -10 -16 -39q-2 -3 -7 -9.5t-8 -12t-4 -9.5q-4 -20 -33 -41q-13 -12 -13.5 -19 t11.5 -20q19 -14 15 -22v-14t-10 -15q-3 0 -3 -8q0 -25 -12 -43v6q-3 -5 -4 -25.5t-14 -29.5q2 6 2 16h-2q-1 -4 -4 -12t-4 -12q4 0 10 2q-2 -6 -5 -17t-5 -18t-7 -15t-12 -14l4 -14h-6q-2 -3 -12 -23q1 0 2 -1t2 -1q0 1 4 9q-3 -27 -8 -43q0 -5 -8 -13q-1 -1 -4 -4.5 t-3 -5.5q-1 -6 -0.5 -11t0 -10t-3.5 -8q-5 -2 -4.5 -12t0.5 -12q-2 -6 -3.5 -18.5t-5 -22t-11.5 -15.5q-3 -2 -4 -6.5t-1 -10.5t-1 -9q1 -2 0 -4t-2 -3.5t-2.5 -3.5t-2.5 -3q-23 -97 -34 -154q-7 -31 -25 -131q-1 0 -3 -1t-3 -1v12h-4q-34 -158 -37 -170zM469 1214l29 43 q106 148 174 207q20 19 60 55t59 54q15 12 36 6q-42 -71 -108 -142.5t-113 -111t-137 -111.5z" />
<glyph unicode="q" horiz-adv-x="753" d="M0 289v8q0 6 1 19.5t1 19.5q0 7 -1 21t-1 20q8 120 16 176q3 13 7.5 41t7.5 41q0 6 2 6q4 2 5 4.5t1.5 6t1.5 5.5l12 62q57 193 149.5 365.5t190.5 293.5q2 3 7 8t6 7q12 24 24 32q0 3 2 5q10 21 27 32q17 15 14 39q-34 17 -51 17q-2 0 -12 10q3 2 10 6.5t11 6.5t11 4 t13 1q2 0 8 6q20 -20 44 -20q16 0 34 10q4 15 22 21q8 4 23 4q1 1 6 5t8 5q19 7 45 -8q2 -2 2 -8v-13q-6 -26 12 -47v-8q0 -23 5 -31l6 -8q2 -2 2 -8q-6 -22 4 -39q2 -3 6.5 -19t13.5 -22q0 -10 9 -16q2 -2 3 -10t3 -11q3 -11 12 -20q3 -15 6 -33q4 -8 4 -10v-13 q-11 -19 -4 -45q4 -27 -6 -37q-2 -2 -2 -6l-6 -55q0 -17 -8 -20q0 -7 2 -7q8 -11 -2 -18q-5 0 -5 -6q-2 -6 -2 -17l-14 -88q0 -4 -2 -4q-5 -3 -6.5 -7.5t-2 -10.5t-1.5 -10q-5 -12 -8 -37t-7 -35q-4 -8 -6 -17t-3.5 -21.5t-2.5 -18.5v-11q5 -6 5 -11.5t-1.5 -8t-7.5 -7.5 t-8 -7t-2 -9q0 -22 -4 -30q-2 -7 -13 -68q-8 -6 -9.5 -24t-8.5 -25q-1 -1 -1 -4.5t-1 -5.5t-1 -5.5v-6t-2 -4.5t-5 -3q-2 0 -2 -4l-13 -63q-6 -12 -8 -13q-8 -5 -12 -22q-2 -5 -2.5 -19.5t-3.5 -21.5q-2 -4 -4 -13t-6 -16.5t-11 -11.5q-2 0 -3 -2.5t-1.5 -6.5t-1.5 -5 q-1 -2 -1 -5v-5t-2 -3.5t-5 -1.5l-2 -2q-2 -12 -10 -31q0 -1 -0.5 -3.5t-1 -4t-1 -3.5t-2 -3t-3.5 -2q-3 0 -3 -6q0 -1 -1 -7t-2.5 -9t-6.5 -5q-2 0 -6 -8q0 -3 1 -8.5t1 -7.5q1 -31 29 -125q16 -49 20 -76q1 -3 0 -6.5t-3 -7.5l-3 -6q0 -2 -2 -5.5t-2 -5.5q2 -16 2 -53 q5 -16 -6 -20q-4 0 -4 -8q0 -15 -2 -21q-1 -5 -4 -11.5t-4 -8.5l-17 10q-5 -26 -8 -33h-4q0 -4 4 -12q-1 0 -2 -1t-2 -1q0 1 -2 3t-2 3q-11 48 -14 59q-1 3 -4.5 8.5t-4.5 8.5l-6 12l-24 74q-10 40 -31 90q-2 0 -4 -2q-3 -10 -10 -25q0 -1 -2 -2q-1 -1 -1.5 -1t-1.5 -1 l-10.5 -10.5t-11.5 -16.5l-2 -2q-17 -5 -17 -24q-7 2 -12.5 -1t-11 -8.5t-8.5 -7.5q-8 -4 -11 -4q-10 0 -18 -10q-7 -10 -22 -10q-22 0 -62 4q-6 2 -16 12l-6 6q-5 1 -9.5 4t-6.5 5t-7 8.5t-6 7.5q-2 2 -6 2q-2 2 -7.5 5t-7.5 5q-20 23 -34 43q-13 26 -13 27q0 18 -10 26 q-2 2 -3 5.5t-1.5 8.5t-1.5 7q0 9 -10 12q-1 1 -2.5 2t-2.5 2t-1 2q-1 7 -2.5 21.5t-2.5 21.5q0 2 -3 6.5t-3 6.5l-6 30q0 1 0.5 4.5t1 5.5t-1.5 4t-6 3zM132.5 233q-0.5 -15 2.5 -57q1 -3 0 -9.5t0 -8.5q2 -7 9 -21.5t8 -17.5h18q4 8 4 14q5 1 13.5 4.5t9.5 3.5q0 2 -2 4 q4 3 20 19q7 3 10 10q3 4 13 29h14q2 4 2 14h12q21 32 25 35q6 6 10 22q0 13 10 13h2q-4 6 -8 14q-4 21 -45 39q-44 22 -44 59v5q4 40 44 67q11 7 25 10t33.5 4t27.5 2h12q17 7 29 -12q9 -18 21 -33q114 204 178 482q0 8 2 12q16 35 20 57q0 11 2 15q17 17 2 39q14 8 11 24 q-2 5 -8.5 14.5t-8.5 14.5q-4 4 -4 10q1 6 4 15l4 12l6 59q0 2 1 6.5t1 8t-2 6.5q-5 5 -3 23.5t1 23.5q0 2 0.5 7t0.5 8t-1.5 6.5t-5.5 6.5q-10 6 -14 0q-3 -4 -11.5 -11.5t-11.5 -12.5q-2 -5 -12.5 -16.5t-11.5 -20.5l-2 -2q-16 -10 -19 -29q0 -4 -3.5 -11.5t-4.5 -10.5 q-2 -2 -4 -2q-25 -17 -25 -35q0 -1 -1 -2t-1 -2q-10 0 -12 -4q-136 -213 -195 -337.5t-110 -328.5q-4 -4 -4 -6q-5 -11 -2 -17q4 -12 -2 -16q-4 0 -4 -4q-2 -11 -8 -37.5t-7 -40.5q-1 -15 -5.5 -56.5t-5 -56.5z" />
<glyph unicode="r" horiz-adv-x="892" d="M-18 154q8 26 23.5 79t23.5 80q2 7 8 20.5t8 20.5l31 97q9 30 27.5 88.5t27.5 87.5q7 22 19 59.5t21.5 68.5t18.5 58q8 24 24 68t22 63q4 12 36 121l19 53q6 19 17.5 56t17.5 55l12 42t14 54q5 22 -3.5 49.5t-16.5 41t-29 46.5q-16 28 -45 31q4 22 8 29q7 7 10 4 q55 -13 74 -23q30 -15 56 -41q17 -20 45 -59q1 -2 4.5 -7t5.5 -7q18 20 53 55q68 72 133 110q67 40 136 40q9 0 18 -1q0 -2 4 -2v-2q1 -1 5 -5.5t7 -4.5h19q3 0 3.5 -2.5t0.5 -4.5t2 -1q12 6 41 6q40 -7 86 -49q43 -36 47 -119q0 -31 -27 -70q-8 -10 -20.5 -31t-18.5 -30 q-63 -77 -125 -123q-63 -47 -90 -70q-96 -72 -180 -94q-63 -14 -63 -84q1 -8 1 -17t-0.5 -20.5t-0.5 -17.5l-1 -60q-1 -60 1 -61q3 -41 16 -139q10 -72 31 -166q6 -22 20.5 -62t18.5 -51l55 -147q7 -21 31 -109q6 -20 -6 -32t-33 -9q-45 3 -64 31q-6 7 -14 24.5t-10 20.5 q-4 7 -13.5 20.5t-13.5 20.5q-2 5 -5 17.5t-5 17.5q-40 120 -78 240q-29 101 -41 165q-8 42 -16 142l-7 116q0 9 -4 15q-2 -7 -8 -21.5t-8 -21.5l-31 -105l-8.5 -34t-7.5 -29q-1 -3 -9 -26.5t-10 -35.5q-5 -18 -14 -52.5t-14 -51.5l-19 -59q-5 -17 -14 -52t-14 -53 q-32 -98 -35 -110q-20 -87 -25 -105q-5 -17 -17.5 -45t-15.5 -37q-4 -8 -10 -8q-4 1 -20.5 1.5t-24.5 6.5q-4 3 -14.5 7.5t-14.5 7.5q-11 7 -11 17t3.5 24.5t1.5 25.5q9 13 -22 33q-16 11 -10 31zM479 1143q12 -4 13 -4q50 16 75 26q8 3 24.5 12t20.5 11q6 4 19.5 11 t19.5 11q61 48 84 68q24 18 45 39q6 8 17.5 25.5t17.5 25.5q9 16 27 43.5t24 38.5q1 3 2 9t2 9q2 8 -2.5 12t-11.5 1q-55 -13 -74 -23q-66 -31 -131 -96q-13 -13 -36 -39.5t-35 -38.5q-14 -14 -29 -33.5t-23.5 -31.5t-26 -40z" />
<glyph unicode="s" horiz-adv-x="768" d="M16 41q-15 24 -15 46q0 24 17 46q39 54 140 119q26 20 45 -12q2 -2 14 -27l14 -33q12 9 33 24.5t37.5 28t30.5 25.5q67 61 67 138q0 37 -16 79q-25 60 -82 164q-101 190 -139 295q-30 80 -30 153q0 151 128 271q141 128 275 192q28 13 122 45q20 7 39 6q40 0 80 -26 q60 -40 72 -102q3 -14 3 -28q0 -57 -52 -93q-58 -40 -132 -40q-10 0 -20 1q-59 3 -88 69q84 40 170 82v6q-10 -2 -30.5 -5t-35.5 -6t-28 -7q-271 -87 -387 -342q-23 -50 -23 -108q0 -61 25 -130q12 -32 25.5 -64t31 -68.5t29 -59t34.5 -67t31 -60.5q32 -59 80 -164 q23 -51 23 -96q0 -88 -86 -156q-136 -106 -312 -137q-11 -2 -21 -2q-45 0 -69 43z" />
<glyph unicode="t" horiz-adv-x="761" d="M82 1395l12 -29q1 -1 16 -19.5t21 -29.5q10 -14 26.5 -23t32.5 -6q77 14 164 33q97 20 170 39q16 2 64 14l-8 -22q10 0 14 2q-11 -17 -33 -56q-46 -66 -76 -120q-18 -33 -58.5 -133.5t-74.5 -200.5q-24 -69 -46.5 -144.5t-52.5 -184t-54 -189.5q-3 -10 -6.5 -21t-8.5 -24 t-8 -21q-9 -42 -16 -57q-28 -69 -33 -121q0 -41 25 -66q6 -6 22 -14q27 -8 43 -10q1 0 7.5 -1.5t9.5 -2t8.5 0t9.5 3.5q-9 10 -10 18.5t2 26.5q7 14 16 14t12 6l19 39q14 27 2 41q-1 1 1 6.5t1 8.5q-3 6 -0.5 21t4 20l6 20t6.5 20q4 14 13.5 39t13.5 39q97 338 156 508l6 17 q65 172 159 335q10 14 32.5 49t41.5 63t35 46q49 52 62 80q5 10 8 21q1 4 3.5 8.5t5 7t7 6.5t6.5 6t6 5.5t6.5 6t4.5 5.5q4 6 11 19t11 19q16 22 -6 35q-7 4 -41 21q-3 -1 -15.5 -9.5t-19.5 -9.5q-71 -21 -141 -39q-17 -4 -96.5 -23t-122.5 -26q-22 -4 -113 -24t-141 -23 q-30 -3 -121 -20z" />
<glyph unicode="u" horiz-adv-x="735" d="M0 387q0 -41 14 -102q13 -61 27 -82q24 -39 106 -148q17 -21 37 -32q18 -13 59.5 -8t55.5 26q36 45 53 78q9 15 21 44t18 40q47 92 62 147q15 53 53 142q8 18 18.5 63t22.5 68q5 11 8 24t5.5 31t4.5 27q5 20 16.5 61t16.5 61q3 11 14 44.5t13 52.5q4 30 11 60t18.5 70.5 t15.5 57.5q4 12 10 35t10 35q6 17 22 60t23 67q7 21 18.5 45.5t21 41t25.5 43.5t23 40q12 19 38.5 50.5t33.5 41.5q2 2 3 6t0.5 7t-1.5 3q-5 2 -19.5 9.5t-24 10t-17.5 -0.5q-25 -6 -64 -45q-8 -8 -16 -18.5t-17.5 -23t-13.5 -18.5q-32 -41 -39 -55q-13 -22 -43 -84 q-7 -18 -23.5 -51t-23.5 -51q-7 -17 -17 -48.5t-12 -37.5q-6 -23 -22 -7q-12 -37 -23 -65q-23 -77 -45 -139q-10 -29 -33.5 -80.5t-29.5 -67.5q-10 -27 -28 -80t-28 -80q-71 -168 -75 -176q-17 -39 -49.5 -107.5t-38.5 -82.5l-19 -29q-2 2 -6 2q0 10 -2 39.5t0 44.5 q1 24 4 71t4 70q1 8 1.5 23.5t1.5 28.5t3 24q8 69 25 160q5 30 17 85.5t16 74.5q30 144 45 202q36 149 84 213q14 20 -2 39q-32 32 -39 37q-20 18 -36 18q-23 0 -36 -38q-4 -13 -35 -78q-40 -104 -41 -109q-2 -6 -10 -37t-14 -47q-6 -20 -26 -62t-26 -65q-32 -104 -63 -243 q-22 -90 -31 -178q-10 -82 -10 -148z" />
<glyph unicode="v" horiz-adv-x="712" d="M82 561q0 -95 6 -190q4 -63 16 -197q4 -49 27 -72q11 -12 30.5 -37t31.5 -36q27 -27 40 -31q9 -4 17 0q2 2 2 14q-1 12 -4.5 45.5t-3.5 51.5q0 15 14 69l49 160q7 21 23 57l24 78q9 26 27.5 74.5t21.5 56.5l25 68q2 5 7 14t7 14q1 3 10 27.5t15 36.5q14 21 12 37 q0 12 4 12q8 4 12 10t7 14.5t6 12.5q2 4 5 13.5t5 13.5q21 30 25 49q1 7 4.5 14.5t9.5 17.5t8 15q4 7 20 30t23 37q17 28 70 127l39 76q26 43 39 60q8 14 23.5 37t21.5 32l65 98q12 17 35 47.5t35 47.5q4 9 2 14q-5 22 -29 43q-18 15 -39 8q-3 -1 -11.5 -2.5t-13.5 -4.5 t-9 -9q-10 -20 -29 -43q-19 -19 -35 -12q6 -19 -14 -43l-17 -15q-6 -8 -19.5 -24.5t-19.5 -24.5q-21 -29 -32 -47q-38 -65 -49 -84l-84 -135q-3 -4 -9.5 -12.5t-9.5 -12.5q-9 -16 -26.5 -47t-26.5 -47q-7 -13 -21.5 -35.5t-17.5 -27.5q-7 -14 -17.5 -40.5t-13.5 -33.5 l-49 -103q-2 -6 -6 -19.5t-6 -19.5q-10 -16 -15 -32q-4 -8 -10 -24.5t-10 -24.5q-1 -5 -12 -21l-25 -76q-2 -4 -10 -19.5t-10 -23.5l-25 -73q-10 7 -10 14q0 10 1 31.5t1 33.5l12 150v27l6 73q6 46 9 97q3 24 8 70.5t8 70.5q2 18 5 52.5t5 51.5q2 29 17 154q2 16 4 48t4 48 q12 53 12 55q1 5 -0.5 15t-1.5 12l-12 53q-3 15 -37 39q-13 10 -17 -6l-30 -131q-2 -6 -4 -18.5t-4 -18.5q-3 -14 -13.5 -48.5t-13.5 -53.5q-21 -124 -29 -185q-3 -18 -10 -61t-10 -66q-2 -18 -7.5 -52t-7.5 -50q-8 -77 -10 -106q-8 -158 -10 -232z" />
<glyph unicode="w" horiz-adv-x="1011" d="M4 158q-3 -16 -3 -31q0 -32 17 -53q2 -3 12 -14.5t13 -15t12.5 -11t16 -8.5t16.5 -0.5t21 6.5q1 3 1.5 7.5t1.5 8.5t3 8q61 169 88 238q47 123 78 211q11 32 32.5 107.5t36.5 115.5q16 40 72 125q41 64 67 86q25 21 33.5 17t14.5 -40q12 -86 12 -131q3 -72 3 -155 q0 -50 -1 -103q0 -149 16 -266q10 -94 97 -160q19 -15 36.5 -5t22.5 36q2 10 3 32.5t3 33.5q26 188 49 299q8 48 30 133.5t26 105.5q24 99 45 201q4 15 11 42.5t13 50t12 42.5l39 125q1 2 -4 25l47 104l7 21q0 22 2 32q4 16 13.5 43.5t12.5 38.5q0 2 -4.5 6.5t-7.5 3.5 q-8 -3 -14 -12q-71 -99 -105 -184q-6 -15 -20 -41t-19 -37q-6 -15 -16.5 -45.5t-16.5 -46.5q-3 -8 -23.5 -49t-25.5 -64q-4 -21 -10.5 -41t-19 -48.5t-15.5 -37.5q-3 -8 -7.5 -21t-8 -23t-6.5 -19l-25 -92q-1 0 -4 1t-4 1q-4 16 -4 24q-4 33 -8 99q-11 94 -47 139 q-47 59 -148 59q-21 -4 -31 -14q-74 -88 -141 -236q-10 -22 -29.5 -68.5t-29.5 -68.5q4 46 10 66q82 281 94 319l74 240q56 170 67 209q10 35 10 59q0 17 -5 29q-19 47 -78 51q-28 6 -37 -27q-8 -25 -29 -82.5t-31 -87.5q-48 -149 -73 -239q-14 -46 -37.5 -132t-30.5 -110 l-92 -352q-16 -66 -33 -162q-37 -202 -47 -268z" />
<glyph unicode="x" horiz-adv-x="864" d="M6 139q11 27 28.5 80t31.5 84q13 22 32 66q5 13 13.5 34.5t15.5 39.5t12 34q4 12 11 41.5t14 44.5q5 23 22 27q6 3 8 14.5t-1 20.5q-2 14 1 22t17 15q4 3 6.5 8t4.5 13t3 11q17 40 33 66q0 2 3 4.5t3 3.5v6q0 23 27 62q-102 332 -211 788q53 -9 90.5 -45t54.5 -94 q18 -59 49.5 -172.5t36.5 -132.5q9 -36 28.5 -102.5t25.5 -90.5l6 12q9 17 27.5 50t27.5 49q6 9 4 16q-3 11 14 37q29 38 58 86l37 59q5 8 13 26t13 26q1 1 12 10.5t15 15.5q41 56 55 78q3 4 20 24.5t25 32.5l43 58q2 4 -2 12q-15 18 15 25q10 2 21 2q32 0 75 -19 q41 -18 41 -41q0 -12 -11 -26q-44 -49 -92 -107q-27 -31 -69 -88q-40 -49 -68 -96q-55 -83 -110 -176q-63 -117 -111 -215q-2 -6 -10 -23q8 -27 106 -377q19 -67 49.5 -191.5t40.5 -162.5q3 -13 3 -27q0 -27 -11 -57q-138 313 -254 655q-5 -14 -18.5 -47.5t-20.5 -52.5 q-23 -61 -53 -164q-10 -31 -28.5 -90.5t-24.5 -79.5l-56 -162q-1 -3 -1 -9.5t-1 -11.5t-4 -9q-7 -14 -35 -6q-106 30 -106 87q0 14 6 29z" />
<glyph unicode="y" horiz-adv-x="684" d="M0 30q-1 18 2 39t6 50.5t2 48.5v5q0 46 47 172q50 134 90 200q41 64 89 155q0 3 2 5l6 12q3 18 14 26l10 19h-2q4 8 12 21t13.5 24t9.5 22q3 9 12.5 24t12.5 21q11 14 -2 33q-34 55 -39 72q-28 75 -54 160q-4 18 -10 53t-10 53q-6 30 -29 125l-16 78q-3 10 -8 31.5 t-8 31.5q6 -4 18 -8q2 -2 6 -2q3 -2 19.5 -14.5t25.5 -18.5q24 -15 37 -41q22 -64 23 -67q10 -47 26 -137q1 -8 4 -36t6 -42q3 -29 21 -107q9 -39 20 -75q0 -3 4 -7l9 7q5 9 15 26.5t15 26.5l31 47q21 41 45 78q5 10 17.5 29.5t17.5 29.5q5 8 13.5 24.5t13.5 24.5 q28 48 45 80q6 11 21.5 35.5t21.5 36.5q3 7 10.5 19.5t11.5 19.5t7.5 18.5t4.5 22.5q0 3 2 6t4 5t1 3q-3 5 -4 9.5t1 9.5l3 7.5t5 8t5 6.5l29 35q4 4 12 4q13 -4 20 10q7 17 7.5 25t-5.5 20q10 4 35 -6q31 -13 41 -20q11 -5 21 -19q12 -23 12 -46q0 -13 -4 -26 q-17 -58 -60 -114q-11 -15 -28 -53l-37 -62q-29 -49 -51 -82q-5 -8 -80 -127q-16 -23 -39 -67l-88 -160q-32 -54 -51 -92q-21 -35 -48 -86q0 -5 -6 -11q-117 -220 -159 -317q-22 -51 -45.5 -128.5t-38.5 -129t-21 -57.5q-11 -13 -39.5 -20t-44.5 1q-7 4 -8 22z" />
<glyph unicode="z" horiz-adv-x="929" d="M-41 100q0 32 55 136q62 117 76 131q25 9 25 32q6 25 59 117q55 96 68 109h2v2q15 11 20 43q3 22 15 32h2l2 3q86 121 131 157l4 2v4q15 37 67 103q56 80 64 96l2 2v2q2 9 119 193q100 152 110 178l4 16l-16 2h-18q-97 0 -277 -8q-43 -2 -82 -2q-20 -2 -69 -27 q-29 -18 -43 -18q-13 0 -21 20q-15 38 -6 60q11 25 80 47q27 9 37 14q66 25 217 25h69q12 0 33 -1t31 -1q80 0 115 12q91 25 104 25q18 0 45 -27q29 -27 29 -39q0 -5 -13 -8l-2 -2q-13 -4 -143 -195q-109 -158 -166 -252q-91 -154 -199 -315q-43 -66 -64.5 -100 t-70.5 -119.5t-110 -202.5q-8 -12 -25 -29q-29 -29 -29 -59q0 -29 37 -29q45 0 152 37q27 9 43 17q58 26 166 45q58 8 67 8q25 0 31 -6q16 -17 34 -52t21 -51q-61 -15 -98 -22q-123 -23 -208.5 -46.5t-124 -39t-115.5 -49.5q-18 -7 -84 -37q-57 -23 -70 -23q-11 0 -33 19 q-49 44 -49 71z" />
<glyph unicode="&#xa2;" horiz-adv-x="688" d="M0 559q-1 63 8.5 119t24.5 78q9 13 33.5 35.5t31.5 37.5q7 19 48 63t85 83q10 9 26 31.5t26 31.5l28 27q4 2 7 9.5t4 8.5q6 6 17 18.5t17 18.5q9 50 9 62q0 28 22.5 107.5t36.5 107.5q9 22 20 33l2 2h3q33 -10 51 -56t8 -110l31 22q4 4 16 4q11 -4 16 6q1 3 8.5 4.5 t10.5 6.5q3 4 8.5 6.5t14 5t12.5 4.5q4 0 6 2q17 17 28 -4q7 -18 15 -31v-2q6 -3 9 -7.5t3.5 -10.5t0.5 -10t-1.5 -11.5t-1.5 -9.5q-3 -11 -20 -24q-27 -27 -48 -41q-6 -4 -21.5 -10.5t-21.5 -10.5q-35 -17 -53 -41q-5 -6 -16.5 -16t-14.5 -13q-8 -8 -10 -12q-6 -9 -28 -31 l-154 -581q2 1 6 2t6 2q38 9 53 14q7 2 17.5 9.5t15.5 9.5q6 2 25 7.5t29 10.5q29 13 63 33q11 5 29 14.5t22 11.5l47 19q4 1 12.5 4t12.5 4q2 0 8 -6q13 -21 4 -66l-6 -26q-9 -27 -20 -33q-6 -2 -16 -11.5t-11 -10.5l-51 -37q-18 -18 -56 -33q-3 -2 -14.5 -6.5t-18 -9.5 t-8.5 -13q-16 -4 -42.5 -13.5t-38.5 -12.5q-3 -1 -9.5 -2.5t-9.5 -2.5q-32 -21 -59 -24q-24 -4 -35 -4l-27 -98q-14 -62 -45 -80q10 63 2.5 101t1.5 89q-27 9 -37 14q-50 24 -77 74q-7 15 -29 45q-1 1 -4.5 13t-7.5 18q-1 5 -6.5 13.5t-6.5 13.5q-11 37 -16 65zM96 504 q-2 -18 17 -33q6 -5 39 -27q4 -2 12 -2q25 -4 41 -2h4q16 86 33 160q4 1 7.5 8t8 18.5t6.5 14.5q4 8 19.5 62.5t17.5 56.5q3 6 8.5 43.5t5.5 46.5l9 29l-2 2l-7 -7l-14 -65l-20 -74q0 -4 -2 -6q-1 -6 -4 -12t-6 -9l-3 -3l35 153q-3 -2 -32.5 -30.5t-40 -39t-36 -40.5 t-38.5 -52.5t-28 -56t-22 -68.5q0 -2 -1 -4.5t-1 -3.5q0 -6 -2 -8q-1 -5 -1.5 -23.5t-2.5 -27.5zM104 571l2 2zM106 573l3 5z" />
<glyph unicode="&#xa3;" horiz-adv-x="1110" d="M20 121l3 4q0 23 12 53l78 322q6 3 10 35q23 109 51 215q-8 -2 -18 -7q-12 -9 -52.5 -11.5t-52.5 1.5q-8 1 -16 10h-2v2v3q-2 36 16.5 68t50.5 38q38 7 107 14q87 299 256 596q54 92 177 140t206 10q93 -43 173.5 -130t108.5 -175q25 -73 21.5 -101t-43.5 -57 q-23 -26 -82 -35.5t-111 14.5q-5 5 12.5 28t26.5 22q18 -12 35 -10.5t27.5 23t5.5 54.5q-9 49 -76.5 139t-118.5 121q-44 26 -97 38t-73 -1q-13 -10 -54 -82.5t-40 -85.5q1 -16 -25.5 -67.5t-25.5 -69.5q4 -5 -20.5 -54t-18.5 -55q10 -10 -4 -20q-13 -10 -74 -199l-6 -22 q9 2 27.5 5t27.5 5q16 2 45.5 8t44.5 8q14 2 41 4.5t41 4.5q34 6 35 6q3 0 13 10q-4 4 -5 4l-32 -6q-7 -1 -22.5 -2t-22.5 -2h-15q-16 -7 -33 -10.5t-40 -6t-33 -4.5q-10 -1 -27 -4t-24 -4q-9 0 -15 6q307 55 490 66q-3 -15 -9 -27q0 -1 -1 -3t-1 -3q11 0 17 2q2 0 14 8 q-1 -8 -5 -15.5t-7.5 -12.5t-10.5 -10.5t-10 -7.5t-11.5 -7t-10.5 -6q-14 -8 -30 -13.5t-40 -11.5t-33 -8q-8 -2 -25 -2.5t-22 -1.5q-4 -1 -26 -12l-25 -6q-6 -1 -84 -17q-9 -1 -27.5 -2t-27.5 -2q-5 -1 -14.5 -4t-14.5 -4q-18 -3 -56 -8t-58 -8l6 -13q-6 -2 -17 -2l-10 -41 q-7 -54 -14 -61q-8 -37 -38 -230t-42 -253q5 2 17.5 5t17.5 5l94 24q8 4 12 4q131 36 225 70q53 18 90.5 35t51 23t22.5 6q17 0 42.5 -16.5t29.5 -33.5q2 -11 -17.5 -28t-51.5 -41t-48 -41q-9 -9 -20.5 -16.5t-28.5 -14.5t-29.5 -11.5t-37 -10.5t-35.5 -8.5t-41 -8.5t-39 -8 q-20 -4 -24 -3.5t-34 -8.5h-6q-8 -4 -12 -4q-15 -12 -29 -9l-20 -6v-2q-58 -14 -72 -20q-6 -2 -49 -13l-94 -30q-10 -2 -30 -7.5t-30 -7.5q-25 -6 -56 21t-28 82z" />
<glyph unicode="&#xa8;" horiz-adv-x="456" d="M43 1485q-3 5 3 18.5t17 20.5q4 26 31 12q24 -9 43 -41.5t10 -46.5q-5 -10 -14 -16q-18 -10 -51 14zM297 1481q-16 16 10 47q2 12 17 15.5t32 -3.5q28 -10 47.5 -44t8.5 -50q-3 -7 -15 -19h-2q-8 -4 -10 -4q-15 -2 -32 7t-21 22q-3 10 -8 12q-5 3 -11 6.5t-10 6t-6 4.5z " />
<glyph unicode="&#xab;" horiz-adv-x="1228" />
<glyph unicode="&#xad;" horiz-adv-x="768" d="M16 709v2q-2 36 18 69t52 37q120 13 219 21q130 9 218.5 19.5t201.5 19.5q33 0 43 -23q-31 -8 -89 -36t-87 -36q-37 -9 -70.5 -18t-48.5 -13t-44 -8t-75 -8q-26 -2 -56.5 -4.5t-49 -4t-33.5 -3.5q-10 -3 -28 -6.5t-30.5 -7t-17.5 -7.5q-14 -7 -53.5 -9t-50.5 3 q-10 4 -17 11q-2 0 -2 2z" />
<glyph unicode="&#xb4;" horiz-adv-x="321" d="M41 1432q1 5 6 9.5t13.5 10t16.5 9.5t20 10.5t18 9.5q9 6 19.5 19t16.5 23t16.5 30t12.5 24q6 14 13 19t20 7t20 5q17 6 32.5 -8.5t15.5 -22.5q0 -2 -7 -10t-8 -11v-10q-1 -11 -6 -18q-4 -6 -20 -19.5t-40.5 -33t-37.5 -31.5q-9 -8 -23 -22t-23 -22.5t-22 -19 t-18.5 -11.5t-12.5 1q-11 10 -17.5 29.5t-4.5 32.5z" />
<glyph unicode="&#xb7;" horiz-adv-x="256" d="M45 928q13 19 23 24h2q8 4 14 4q24 3 46 -8t28 -30q7 -14 12 -19q34 -17 37 -22q24 -24 -14 -66q-1 -17 -23 -23t-45 5q-39 17 -66.5 64t-13.5 71z" />
<glyph unicode="&#xb8;" horiz-adv-x="479" d="M41 -187.5q-3 12.5 2 15.5q1 2 3.5 4.5t9 8.5t13 9t16 2.5t17.5 -6.5q41 -33 50 -73q0 -1 -5 -21q21 -6 52 -6l10 6l12 4l12 11l11 10l12 8l6 14l10 11l2 14l9 12l6 14l8 13l2 14l4 12l4 15l6 12l9 29l6 14v16l8 29l2 14l100 17l-2 -2q-12 -90 -36 -158.5t-50 -104 t-55 -57t-48 -27t-30 -3.5q-8 0 -16 4h-15l-28 8l-17 4l-10 6l-12 10l-10 9l-11 10l-12 8l-8 10l-10 10l-7 13l-8 12q-9 13 -12 25.5z" />
<glyph unicode="&#xbb;" horiz-adv-x="1228" />
<glyph unicode="&#xc0;" d="M-123 -37q5 49 19 109q8 34 30 90q8 20 23 51l14 27q0 2 4 10l19 41q4 11 -9 31l-14 18q-4 4 -12 16q12 5 29 15q39 20 59 35q20 16 39 59q0 4 4 8q4 9 51 111q2 6 7 17t7 17l21 46q10 26 33 73q3 6 35 74l45 94q30 72 36 86l43 96q16 38 54 111q32 69 51 109q5 14 10 22 q30 59 37 98q5 31 31 68q17 35 22 47q6 15 39 74q16 27 21 33q12 26 34 22q7 0 11 -2q20 -4 51 -20q50 -21 47 -70q0 -61 -10 -113q-2 -17 -9.5 -47.5t-9.5 -38.5q0 -1 -16 -61l-6 -45q-4 -26 -8 -41q-1 -9 -11 -43q-1 -6 -4 -15l-4 -12l-12 -51q-4 -26 -8 -37l-25 -121 q-12 -60 -16 -86l-13 -69q-2 -8 -5 -23t-5 -22q-7 -24 -10 -49q-2 -8 -2 -27v-19l-2 -22l106 41l-20 -19l22 5l-38 -37h8q-34 -20 -52 -41l-12 -6q-18 -9 -22 -19q-17 -25 -23 -65q-14 -86 -24 -179l-2 -14q-3 -15 -3 -29q-2 -10 -2 -26q-2 -10 -5 -31t-5 -31 q-1 -10 -4 -29.5t-4 -29.5q-2 -8 -2 -23q3 -10 0 -16q0 -10 -2 -16q-4 -40 -8 -56q-2 -8 -21 -41l-8 -14q-27 -6 -33 -35l-2 -2q-1 7 -2 21.5t-2 21.5q-16 262 -11 374q3 68 11 128l2 25l-22 -11q-5 0 -13 -4q-3 -1 -12 -4.5t-14 -5.5q-8 -4 -25.5 -11.5t-25.5 -11.5 q-13 -5 -50.5 -21t-58.5 -24q-36 -14 -59 -67l-2 -4l-25 -51q-8 -14 -16 -33q-15 -26 -23 -45l-18 -39q-2 -3 -6.5 -10.5t-6.5 -10.5q-4 -8 -11 -24.5t-11 -24.5q-8 -19 -10 -31l-7 -22q-4 -7 -8 -21q-7 -23 -22 -57q-13 -19 -19 -41l-10 -29l-10 5q-2 1 -21 9.5t-28 14.5 q-23 12 -23 43zM246 496l26 10l39 14q18 7 54 21.5t55 21.5q12 5 22 25q1 2 7 33q0 6 2 8q2 21 10 73q3 19 8 54.5t8 52.5l19 125q2 10 6 30.5t6 30.5q0 11 4 27l2 12l-27 10l-6 -10q-2 -5 -7 -14t-7 -14l-31 -64q-6 -14 -19.5 -42.5t-19.5 -41.5q-7 -22 -22 -55l-62 -133 q-7 -19 -22 -45q-13 -34 -27 -58q-5 -12 -8 -28q0 -7 -4 -15zM592 1985q-4 12 4 23t17 16.5t12 5.5t10.5 -8t9.5 -9h12q12 0 19 -6q5 -3 17.5 -20t30.5 -43t30 -41q5 -7 14 -16.5t15.5 -17t14.5 -17t12.5 -15.5t9 -14.5t4 -12t-2.5 -8.5q-11 -11 -30.5 -16t-30.5 -2 q-5 1 -9.5 6t-10 14t-9.5 17t-9.5 19.5t-8.5 17.5q-13 28 -92 71q-13 7 -17.5 14.5t-6.5 20.5t-5 21z" />
<glyph unicode="&#xc1;" d="M-123 -37q5 49 19 109q8 34 30 90q8 20 23 51l14 27q0 2 4 10l19 41q4 11 -9 31l-14 18q-4 4 -12 16q12 5 29 15q39 20 59 35q20 16 39 59q0 4 4 8q4 9 51 111q2 6 7 17t7 17l21 46q10 26 33 73q3 6 35 74l45 94q30 72 36 86l43 96q16 38 54 111q32 69 51 109q5 14 10 22 q30 59 37 98q5 31 31 68q17 35 22 47q6 15 39 74q16 27 21 33q12 26 34 22q7 0 11 -2q20 -4 51 -20q50 -21 47 -70q0 -61 -10 -113q-2 -17 -9.5 -47.5t-9.5 -38.5q0 -1 -16 -61l-6 -45q-4 -26 -8 -41q-1 -9 -11 -43q-1 -6 -4 -15l-4 -12l-12 -51q-4 -26 -8 -37l-25 -121 q-12 -60 -16 -86l-13 -69q-2 -8 -5 -23t-5 -22q-7 -24 -10 -49q-2 -8 -2 -27v-19l-2 -22l106 41l-20 -19l22 5l-38 -37h8q-34 -20 -52 -41l-12 -6q-18 -9 -22 -19q-17 -25 -23 -65q-14 -86 -24 -179l-2 -14q-3 -15 -3 -29q-2 -10 -2 -26q-2 -10 -5 -31t-5 -31 q-1 -10 -4 -29.5t-4 -29.5q-2 -8 -2 -23q3 -10 0 -16q0 -10 -2 -16q-4 -40 -8 -56q-2 -8 -21 -41l-8 -14q-27 -6 -33 -35l-2 -2q-1 7 -2 21.5t-2 21.5q-16 262 -11 374q3 68 11 128l2 25l-22 -11q-5 0 -13 -4q-3 -1 -12 -4.5t-14 -5.5q-8 -4 -25.5 -11.5t-25.5 -11.5 q-13 -5 -50.5 -21t-58.5 -24q-36 -14 -59 -67l-2 -4l-25 -51q-8 -14 -16 -33q-15 -26 -23 -45l-18 -39q-2 -3 -6.5 -10.5t-6.5 -10.5q-4 -8 -11 -24.5t-11 -24.5q-8 -19 -10 -31l-7 -22q-4 -7 -8 -21q-7 -23 -22 -57q-13 -19 -19 -41l-10 -29l-10 5q-2 1 -21 9.5t-28 14.5 q-23 12 -23 43zM246 496l26 10l39 14q18 7 54 21.5t55 21.5q12 5 22 25q1 2 7 33q0 6 2 8q2 21 10 73q3 19 8 54.5t8 52.5l19 125q2 10 6 30.5t6 30.5q0 11 4 27l2 12l-27 10l-6 -10q-2 -5 -7 -14t-7 -14l-31 -64q-6 -14 -19.5 -42.5t-19.5 -41.5q-7 -22 -22 -55l-62 -133 q-7 -19 -22 -45q-13 -34 -27 -58q-5 -12 -8 -28q0 -7 -4 -15zM588 1845q1 5 6 9.5t13.5 10t16.5 9.5t20 10.5t18 9.5q9 6 19.5 19t16.5 23.5t16 30t13 24.5q6 14 13 19t19.5 6.5t20.5 4.5q17 6 32 -8t15 -22q0 -2 -6.5 -10t-7.5 -11l-1 -10q0 -11 -5 -18q-4 -6 -20 -19.5 t-40.5 -33t-37.5 -31.5q-9 -8 -23 -22t-23 -22.5t-22 -19t-18.5 -11.5t-12.5 1q-11 10 -17.5 29t-4.5 32z" />
<glyph unicode="&#xc2;" d="M-123 -37q5 49 19 109q8 34 30 90q8 20 23 51l14 27q0 2 4 10l19 41q4 11 -9 31l-14 18q-4 4 -12 16q12 5 29 15q39 20 59 35q20 16 39 59q0 4 4 8q4 9 51 111q2 6 7 17t7 17l21 46q10 26 33 73q3 6 35 74l45 94q30 72 36 86l43 96q16 38 54 111q32 69 51 109q5 14 10 22 q30 59 37 98q5 31 31 68q17 35 22 47q6 15 39 74q16 27 21 33q12 26 34 22q7 0 11 -2q20 -4 51 -20q50 -21 47 -70q0 -61 -10 -113q-2 -17 -9.5 -47.5t-9.5 -38.5q0 -1 -16 -61l-6 -45q-4 -26 -8 -41q-1 -9 -11 -43q-1 -6 -4 -15l-4 -12l-12 -51q-4 -26 -8 -37l-25 -121 q-12 -60 -16 -86l-13 -69q-2 -8 -5 -23t-5 -22q-7 -24 -10 -49q-2 -8 -2 -27v-19l-2 -22l106 41l-20 -19l22 5l-38 -37h8q-34 -20 -52 -41l-12 -6q-18 -9 -22 -19q-17 -25 -23 -65q-14 -86 -24 -179l-2 -14q-3 -15 -3 -29q-2 -10 -2 -26q-2 -10 -5 -31t-5 -31 q-1 -10 -4 -29.5t-4 -29.5q-2 -8 -2 -23q3 -10 0 -16q0 -10 -2 -16q-4 -40 -8 -56q-2 -8 -21 -41l-8 -14q-27 -6 -33 -35l-2 -2q-1 7 -2 21.5t-2 21.5q-16 262 -11 374q3 68 11 128l2 25l-22 -11q-5 0 -13 -4q-3 -1 -12 -4.5t-14 -5.5q-8 -4 -25.5 -11.5t-25.5 -11.5 q-13 -5 -50.5 -21t-58.5 -24q-36 -14 -59 -67l-2 -4l-25 -51q-8 -14 -16 -33q-15 -26 -23 -45l-18 -39q-2 -3 -6.5 -10.5t-6.5 -10.5q-4 -8 -11 -24.5t-11 -24.5q-8 -19 -10 -31l-7 -22q-4 -7 -8 -21q-7 -23 -22 -57q-13 -19 -19 -41l-10 -29l-10 5q-2 1 -21 9.5t-28 14.5 q-23 12 -23 43zM246 496l26 10l39 14q18 7 54 21.5t55 21.5q12 5 22 25q1 2 7 33q0 6 2 8q2 21 10 73q3 19 8 54.5t8 52.5l19 125q2 10 6 30.5t6 30.5q0 11 4 27l2 12l-27 10l-6 -10q-2 -5 -7 -14t-7 -14l-31 -64q-6 -14 -19.5 -42.5t-19.5 -41.5q-7 -22 -22 -55l-62 -133 q-7 -19 -22 -45q-13 -34 -27 -58q-5 -12 -8 -28q0 -7 -4 -15zM547 1788q-3 6 2.5 20.5t12.5 25.5l7 11l105 99v16q-3 -4 -8 -9.5t-18 -19t-17.5 -15.5t-7.5 1q0 4 6 11.5t14 15.5t18.5 17.5t18.5 16t17 13.5t10 8l2 2q16 7 33.5 6t29.5 -8q3 -2 6 -7.5t5 -16.5t3 -17.5 t3 -21.5t2 -19q1 -8 5.5 -17.5t13 -20.5t14.5 -18.5t16.5 -19t13.5 -14.5q9 -11 11 -19t-0.5 -20.5t-2.5 -20.5q0 -12 -10 -20t-20 -9.5t-13 -0.5q-3 0 -5.5 4t-5 9.5t-3.5 6.5q-15 15 -23 25q-1 1 -5 5.5t-7 10t-6 14.5l-39 64q-1 2 -2 4.5t-4 8.5t-5 7t-5 0 q-81 -91 -95 -114l-28 -35q-31 29 -39 41z" />
<glyph unicode="&#xc3;" d="M-123 -37q5 49 19 109q8 34 30 90q8 20 23 51l14 27q0 2 4 10l19 41q4 11 -9 31l-14 18q-4 4 -12 16q12 5 29 15q39 20 59 35q20 16 39 59q0 4 4 8q4 9 51 111q2 6 7 17t7 17l21 46q10 26 33 73q3 6 35 74l45 94q30 72 36 86l43 96q16 38 54 111q32 69 51 109q5 14 10 22 q30 59 37 98q5 31 31 68q17 35 22 47q6 15 39 74q16 27 21 33q12 26 34 22q7 0 11 -2q20 -4 51 -20q50 -21 47 -70q0 -61 -10 -113q-2 -17 -9.5 -47.5t-9.5 -38.5q0 -1 -16 -61l-6 -45q-4 -26 -8 -41q-1 -9 -11 -43q-1 -6 -4 -15l-4 -12l-12 -51q-4 -26 -8 -37l-25 -121 q-12 -60 -16 -86l-13 -69q-2 -8 -5 -23t-5 -22q-7 -24 -10 -49q-2 -8 -2 -27v-19l-2 -22l106 41l-20 -19l22 5l-38 -37h8q-34 -20 -52 -41l-12 -6q-18 -9 -22 -19q-17 -25 -23 -65q-14 -86 -24 -179l-2 -14q-3 -15 -3 -29q-2 -10 -2 -26q-2 -10 -5 -31t-5 -31 q-1 -10 -4 -29.5t-4 -29.5q-2 -8 -2 -23q3 -10 0 -16q0 -10 -2 -16q-4 -40 -8 -56q-2 -8 -21 -41l-8 -14q-27 -6 -33 -35l-2 -2q-1 7 -2 21.5t-2 21.5q-16 262 -11 374q3 68 11 128l2 25l-22 -11q-5 0 -13 -4q-3 -1 -12 -4.5t-14 -5.5q-8 -4 -25.5 -11.5t-25.5 -11.5 q-13 -5 -50.5 -21t-58.5 -24q-36 -14 -59 -67l-2 -4l-25 -51q-8 -14 -16 -33q-15 -26 -23 -45l-18 -39q-2 -3 -6.5 -10.5t-6.5 -10.5q-4 -8 -11 -24.5t-11 -24.5q-8 -19 -10 -31l-7 -22q-4 -7 -8 -21q-7 -23 -22 -57q-13 -19 -19 -41l-10 -29l-10 5q-2 1 -21 9.5t-28 14.5 q-23 12 -23 43zM246 496l26 10l39 14q18 7 54 21.5t55 21.5q12 5 22 25q1 2 7 33q0 6 2 8q2 21 10 73q3 19 8 54.5t8 52.5l19 125q2 10 6 30.5t6 30.5q0 11 4 27l2 12l-27 10l-6 -10q-2 -5 -7 -14t-7 -14l-31 -64q-6 -14 -19.5 -42.5t-19.5 -41.5q-7 -22 -22 -55l-62 -133 q-7 -19 -22 -45q-13 -34 -27 -58q-5 -12 -8 -28q0 -7 -4 -15zM520 1831q-33 27 4 57q-4 4 -4 10q0 11 28.5 27t65.5 23q23 4 47.5 -6t42.5 -23.5t19 -13.5q24 -6 53 -2l27 18q4 3 9.5 7t12 9.5t9.5 8.5l24 20q15 10 23 14q6 6 12 9q1 0 3 -1t3 -1q8 -8 8 -37v-15 q0 -14 -6 -18q-3 -2 -7 -8.5t-5 -7.5q-3 -3 -11.5 -12t-11.5 -15q-9 -12 -26 -25q-2 -2 -5.5 -4t-6.5 -3.5t-5 -4.5t-2 -6q-7 -4 -19 -5.5t-20 -1.5l-8 1l-24 2q-7 -8 -15 -8q-10 2 -55 34q-11 7 -32.5 14.5t-33.5 4.5q-4 0 -8 -2q-35 -29 -35 -37q-6 -24 -14 -25h-2 q-5 1 -18.5 11t-16.5 12z" />
<glyph unicode="&#xc4;" d="M-123 -37q5 49 19 109q8 34 30 90q8 20 23 51l14 27q0 2 4 10l19 41q4 11 -9 31l-14 18q-4 4 -12 16q12 5 29 15q39 20 59 35q20 16 39 59q0 4 4 8q4 9 51 111q2 6 7 17t7 17l21 46q10 26 33 73q3 6 35 74l45 94q30 72 36 86l43 96q16 38 54 111q32 69 51 109q5 14 10 22 q30 59 37 98q5 31 31 68q17 35 22 47q6 15 39 74q16 27 21 33q12 26 34 22q7 0 11 -2q20 -4 51 -20q50 -21 47 -70q0 -61 -10 -113q-2 -17 -9.5 -47.5t-9.5 -38.5q0 -1 -16 -61l-6 -45q-4 -26 -8 -41q-1 -9 -11 -43q-1 -6 -4 -15l-4 -12l-12 -51q-4 -26 -8 -37l-25 -121 q-12 -60 -16 -86l-13 -69q-2 -8 -5 -23t-5 -22q-7 -24 -10 -49q-2 -8 -2 -27v-19l-2 -22l106 41l-20 -19l22 5l-38 -37h8q-34 -20 -52 -41l-12 -6q-18 -9 -22 -19q-17 -25 -23 -65q-14 -86 -24 -179l-2 -14q-3 -15 -3 -29q-2 -10 -2 -26q-2 -10 -5 -31t-5 -31 q-1 -10 -4 -29.5t-4 -29.5q-2 -8 -2 -23q3 -10 0 -16q0 -10 -2 -16q-4 -40 -8 -56q-2 -8 -21 -41l-8 -14q-27 -6 -33 -35l-2 -2q-1 7 -2 21.5t-2 21.5q-16 262 -11 374q3 68 11 128l2 25l-22 -11q-5 0 -13 -4q-3 -1 -12 -4.5t-14 -5.5q-8 -4 -25.5 -11.5t-25.5 -11.5 q-13 -5 -50.5 -21t-58.5 -24q-36 -14 -59 -67l-2 -4l-25 -51q-8 -14 -16 -33q-15 -26 -23 -45l-18 -39q-2 -3 -6.5 -10.5t-6.5 -10.5q-4 -8 -11 -24.5t-11 -24.5q-8 -19 -10 -31l-7 -22q-4 -7 -8 -21q-7 -23 -22 -57q-13 -19 -19 -41l-10 -29l-10 5q-2 1 -21 9.5t-28 14.5 q-23 12 -23 43zM246 496l26 10l39 14q18 7 54 21.5t55 21.5q12 5 22 25q1 2 7 33q0 6 2 8q2 21 10 73q3 19 8 54.5t8 52.5l19 125q2 10 6 30.5t6 30.5q0 11 4 27l2 12l-27 10l-6 -10q-2 -5 -7 -14t-7 -14l-31 -64q-6 -14 -19.5 -42.5t-19.5 -41.5q-7 -22 -22 -55l-62 -133 q-7 -19 -22 -45q-13 -34 -27 -58q-5 -12 -8 -28q0 -7 -4 -15zM522 1898q-3 5 3.5 18.5t17.5 20.5q4 26 30 13q24 -9 43.5 -41.5t10.5 -46.5q-5 -10 -15 -17q-17 -9 -51 15zM776 1894q-17 17 10 48q2 12 17.5 16t32.5 -4q28 -10 47 -44t8 -50q-3 -8 -14 -19h-3q-8 -4 -10 -4 q-15 -2 -32 7t-21 22q-3 10 -8 12q-6 4 -15.5 9t-11.5 7z" />
<glyph unicode="&#xc5;" d="M-123 -37q5 49 19 109q8 34 30 90q8 20 23 51l14 27q0 2 4 10l19 41q4 11 -9 31l-14 18q-4 4 -12 16q12 5 29 15q39 20 59 35q20 16 39 59q0 4 4 8q4 9 51 111q2 6 7 17t7 17l21 46q10 26 33 73q3 6 35 74l45 94q30 72 36 86l43 96q16 38 54 111q32 69 51 109q5 14 10 22 q30 59 37 98q5 31 31 68q17 35 22 47q6 15 39 74q16 27 21 33q12 26 34 22q7 0 11 -2q20 -4 51 -20q50 -21 47 -70q0 -61 -10 -113q-2 -17 -9.5 -47.5t-9.5 -38.5q0 -1 -16 -61l-6 -45q-4 -26 -8 -41q-1 -9 -11 -43q-1 -6 -4 -15l-4 -12l-12 -51q-4 -26 -8 -37l-25 -121 q-12 -60 -16 -86l-13 -69q-2 -8 -5 -23t-5 -22q-7 -24 -10 -49q-2 -8 -2 -27v-19l-2 -22l106 41l-20 -19l22 5l-38 -37h8q-34 -20 -52 -41l-12 -6q-18 -9 -22 -19q-17 -25 -23 -65q-14 -86 -24 -179l-2 -14q-3 -15 -3 -29q-2 -10 -2 -26q-2 -10 -5 -31t-5 -31 q-1 -10 -4 -29.5t-4 -29.5q-2 -8 -2 -23q3 -10 0 -16q0 -10 -2 -16q-4 -40 -8 -56q-2 -8 -21 -41l-8 -14q-27 -6 -33 -35l-2 -2q-1 7 -2 21.5t-2 21.5q-16 262 -11 374q3 68 11 128l2 25l-22 -11q-5 0 -13 -4q-3 -1 -12 -4.5t-14 -5.5q-8 -4 -25.5 -11.5t-25.5 -11.5 q-13 -5 -50.5 -21t-58.5 -24q-36 -14 -59 -67l-2 -4l-25 -51q-8 -14 -16 -33q-15 -26 -23 -45l-18 -39q-2 -3 -6.5 -10.5t-6.5 -10.5q-4 -8 -11 -24.5t-11 -24.5q-8 -19 -10 -31l-7 -22q-4 -7 -8 -21q-7 -23 -22 -57q-13 -19 -19 -41l-10 -29l-10 5q-2 1 -21 9.5t-28 14.5 q-23 12 -23 43zM246 496l26 10l39 14q18 7 54 21.5t55 21.5q12 5 22 25q1 2 7 33q0 6 2 8q2 21 10 73q3 19 8 54.5t8 52.5l19 125q2 10 6 30.5t6 30.5q0 11 4 27l2 12l-27 10l-6 -10q-2 -5 -7 -14t-7 -14l-31 -64q-6 -14 -19.5 -42.5t-19.5 -41.5q-7 -22 -22 -55l-62 -133 q-7 -19 -22 -45q-13 -34 -27 -58q-5 -12 -8 -28q0 -7 -4 -15zM601 1785q-1 21 3 34.5t17 54.5q5 14 7.5 23t2.5 13t1 11t3 16q-2 11 45.5 60t58.5 45q15 0 43 -31q18 -23 23.5 -35.5t5.5 -36.5q0 -54 -43 -149q-2 -8 -16 -21q-20 -27 -52 -35t-56 -2.5t-30 13.5 q-12 19 -13 40zM661 1776q19 6 62 74q33 52 41 85q6 21 6 29q-4 3 -24.5 -17t-20.5 -26q0 -3 -1.5 -5t-4.5 -1q-5 0 -6.5 -0.5t-10 -13.5t-20.5 -41q-41 -91 -21 -84z" />
<glyph unicode="&#xc6;" horiz-adv-x="1236" d="M-62 54q-2 21 9 73q4 18 19 50t29 61.5t25 59.5t8.5 55t-22.5 38q-12 4 -24 17.5t-17 25.5q-13 19 13 35t66 28t46 17q32 18 41 33q41 58 81 136.5t58 107.5q9 7 32.5 49t54 105t58 120.5t56.5 120.5t37 80q26 55 102 146t109 144q99 154 125 92q2 -6 4 -14 q5 -15 -17 -66t-14 -71l27 -141q62 -12 78 -8q83 20 378 104l15 4q26 7 47 10q56 10 72 11q3 -5 -7 -29l-47 -27l17 -6q-55 -25 -109 -43q-31 -13 -92 -35q-89 -34 -125 -47q-43 -15 -55 -22l-23 -8q-89 -34 -127 -97q-8 -14 -26 -50.5t-35 -72t-31.5 -66.5t-15.5 -32 l-8 -20l20 8q45 19 227 92q7 0 11 2q29 4 82 27q1 0 4.5 1t5.5 1q6 2 18 2q12 -3 27 0q2 0 14 4l4 2l39 14q-2 -14 -10 -51q-21 -10 -59.5 -30.5t-49.5 -26.5q-31 -15 -133 -88q-63 -45 -88 -60q-43 -25 -45 -26l-37 -21q-6 -3 -23.5 -11t-25 -12t-20 -12.5t-20.5 -19 t-15 -23.5q-5 -11 -37.5 -99.5t-48.5 -137.5l-10 -35q0 -8 -5 -23q-4 -22 23 -43l2 -2q30 -25 53 -16q17 7 43 16q22 10 64 35q46 28 55 31l291 135q4 2 33 14q23 10 67 33q8 4 13 4q4 2 12 -2q11 -11 8 -33q-1 -6 -2 -20t-2 -21q-6 -2 -16 -2q-71 -13 -197 -90l-10 -8 q-13 -7 -166 -123q-38 -28 -107 -80t-90 -67q-10 -6 -35.5 -21.5t-38.5 -25.5q-4 -3 -51 -36.5t-67 -56.5q-4 -4 -4 0q-7 -6 -35 -6q-25 2 -22.5 48.5t38.5 224.5q46 235 45 237q-2 2 -110 -35q-77 -28 -104 -44.5t-40 -45.5q-21 -44 -73 -172t-72 -188q-25 -72 -48.5 -79 t-66.5 44q-25 29 -27 50zM324 623q-2 -16 4.5 -20t31.5 -3q24 1 58.5 17.5t54.5 17.5q37 -5 43 6q10 42 75 264.5t75 235.5q22 30 38 97q13 53 -4 48q-23 -7 -92 -119q-8 -12 -32.5 -50t-37 -58.5t-31.5 -53t-32.5 -60.5t-23.5 -54q-8 -19 -66.5 -127t-60.5 -141z" />
<glyph unicode="&#xc7;" horiz-adv-x="761" d="M-37 -107.5q-3 12.5 2 15.5q1 2 3.5 4.5t9.5 8.5t13.5 9t16 2.5t17.5 -6.5q40 -32 49 -73q0 -5 -4 -21q21 -6 51 -6l10 6l12 4l13 10l10 11l12 8l6 14l11 10l2 15l8 12l6 14l8 13l2 14l4 12l4 15l7 12l8 29l6 14v16l2 11q-31 -4 -55 4q-8 3 -26 8t-26 8q-56 22 -82 70 q-5 8 -16 22.5t-16 22.5l-13 28q-2 4 -8 12.5t-8 12.5q-2 6 -9 29t-9 36q-3 17 -2.5 46.5t-1.5 46.5q0 4 4 20q0 1 1 3t1 3q-4 6 -3 18t2.5 18t5.5 18t5 18q1 2 6 33q11 31 16 51q12 29 17 45q1 5 2.5 14t3.5 16t6 11q6 8 13 25t10 22q3 6 7 18.5t7 18.5l14 24q4 9 11.5 28 t11.5 28q1 2 11 18.5t15 26.5q5 7 13 22.5t10 18.5l4 6q21 23 39 72q2 3 7 8t7 8q3 4 12.5 21t16.5 24q21 24 49 74q32 48 39 55q11 11 25 35t22 33q3 3 13.5 12.5t15.5 15.5q2 2 4 8.5t4 8.5q28 40 45 55q10 9 24 28.5t21 26.5q20 24 35 39l33 33q8 6 23.5 18.5t23.5 18.5 q4 4 14 4q14 0 17 8q2 2 9 3t9 7q3 4 8.5 7.5t14 6.5t12.5 5l4 2q11 10 17 9.5t14 -11.5q5 -8 14 -31q2 0 2 -2q7 -4 10 -10t3.5 -11t-0.5 -14t-1 -12q-3 -12 -18 -27q-37 -37 -45 -43q-7 -6 -22 -13t-19 -9q-29 -14 -51 -43q-4 -7 -15 -17t-14 -14q-8 -8 -10 -14 q-4 -8 -11.5 -16.5t-17 -18l-14.5 -14.5q-2 0 -2 -7q1 -5 -1.5 -9.5t-4 -6.5t-8 -6.5t-7.5 -5.5q-16 -16 -24 -35q-4 -10 -23 -29l-16 -16q1 -4 -4 -15.5t-11 -17.5q-2 -2 -8 -7.5t-9.5 -8.5t-6.5 -9.5t-2 -13.5q0 -2 -1 -4t-2 -3.5t-2.5 -3.5t-2.5 -3q-1 -2 -9 -10 q-10 -10 -12 -11q-18 -46 -39 -69q-13 -10 -24 -29q-2 -3 -3.5 -11.5t-3.5 -12.5q-3 -11 -10 -17q-9 -15 -18 -27q-3 -4 -7 -13.5t-8.5 -17t-9.5 -12.5q-7 -8 -15 -28t-9 -23l-10 -20t-11 -21q-5 -7 -10.5 -22t-7.5 -19l-19 -41l-18 -36q-2 -7 -6.5 -23.5t-9 -28.5t-9.5 -22 q-4 -7 -7.5 -21.5t-4.5 -17.5q-1 -4 -9.5 -33.5t-13.5 -44.5q-6 -36 -6 -37q0 -24 -10 -51q-4 -12 -4 -18v-56q-2 -15 16 -30q16 -11 41 -25q4 -2 13 -2h41q33 4 47 12q12 7 55 21q31 7 53 18q6 2 18 10t13 9q8 4 25.5 11t25.5 11q21 9 64 35l49 31q5 3 45 20q8 4 24 8 q4 3 11 -4q4 -6 6 -12t2.5 -13.5t0.5 -12t-1.5 -14t-1.5 -13.5q-4 -16 -4 -27q-4 -24 -19 -33q-5 -3 -13.5 -13t-12.5 -13q-32 -24 -47 -39q-7 -7 -16 -13t-21 -13t-17 -11q-4 -2 -12.5 -5.5t-13 -5.5t-8.5 -7t-5 -11q-57 -24 -82 -31l-4 -2q-12 -88 -36 -155t-49.5 -101.5 t-54.5 -55.5t-47.5 -26.5t-29.5 -3.5q-6 0 -16 5h-14l-29 8l-17 4l-10 6l-12 10l-10 8l-11 11l-12 8l-8 10l-10 10l-6 13l-9 12q-9 13 -12 25.5z" />
<glyph unicode="&#xc8;" horiz-adv-x="706" d="M-20 324q-2 50 12 120q10 62 26 111q13 37 21 68l18 71q2 7 8.5 21.5t8.5 21.5q2 5 5 15.5t5 15.5l18 53q2 9 23 74q2 8 7 23.5t7 23.5l25 59q7 14 20.5 44.5t20.5 44.5q3 7 8 22.5t8 22.5q15 26 23 45q17 35 22 47q0 4 -4 8l-16 14q-7 6 -9 14t-1 19.5t0 15.5q0 3 1.5 8 t1.5 10t-3 9q-1 2 0 5t3 8t3 8v16q-2 0 -2 2q28 10 39 14l26 8q12 6 6 19q-2 2 -2 4q0 4 -5 27.5t1 29.5q-4 1 -1.5 10t2 10t4.5 9.5t5 9.5q3 8 15 11.5t20 -0.5q17 -8 33 -43q6 -16 10 -52q0 -9 10 -6l58 19q3 1 11.5 4t14.5 4q1 -3 2.5 -4.5t3 -1t4 1t3.5 0.5v-17 q43 14 55 17l51 12q2 0 9.5 2.5t9.5 2l10 -2.5l12 -6l-12 -6q4 0 10.5 1t9.5 1q8 0 23 1t22 1q1 0 13 -6q0 -2 -2 -4l30 6q3 2 10 1t10 -2t9.5 -3.5t9.5 -3.5q4 -2 3.5 -6.5t-3.5 -6.5q-4 -4 -12 -8q2 -3 12 -3.5t11 -8.5q-4 -6 -10 -9t-15 -4.5t-14 -3.5q-20 -10 -27 -10 q-4 -1 -14 -8t-17 -2q-4 0 -6 -2q-9 -9 -20 -6q-1 0 -2 -1t-2 -1q-8 -4 -9 -4l-24 -7q-15 -2 -39 -14q-8 -2 -23 -2q-8 -4 -10 -4q-8 -4 -10 -4q-2 -2 -6 -2q-4 -4 -6 -4l-39 -13q-3 -1 -9.5 -3t-9.5 -3q-7 -2 -33 -10q-43 -15 -65 -35q-8 -6 -12 -22q-1 -7 -4.5 -18 t-4.5 -15l-16 -47q-1 -6 -6 -16.5t-6 -12.5v-10q-1 -4 -3 -11.5t-3 -11.5q-2 -4 -2 -12h10q8 2 24.5 7t24.5 7q25 8 55 15q4 1 21 5t26 7q7 3 22.5 6t20.5 4l29 13q5 3 35 8q8 1 25 5.5t24 6.5q1 -1 7 -6t10 -10t6 -9q2 -7 10 -17t10 -15q4 -8 4 -33v-6q4 -5 3.5 -10 t-2.5 -8t-6 -8t-5 -7q-11 -19 -62 -45l-36 -18l-86 -25q-13 -3 -40 -8t-40 -8q-12 -2 -40.5 -7.5t-43.5 -7.5l-51 -8q-8 -2 -14.5 -10t-6.5 -17q-1 -2 -2 -6.5t-2 -7.5q0 -9 -14 -37q-2 -4 -7 -22q-2 -8 -5 -24.5t-5 -24.5q-1 -4 -5 -12.5t-5 -12.5q-3 -7 -8 -25 q-10 -29 -15 -53q-4 -15 -13 -42t-13 -42q-19 -60 -23 -76q-1 -3 -1 -10t-1 -10q-7 -17 -10 -33q-1 -2 -2 -7t-2 -7l-6 -23l-6 -24l-13 -68q-1 -6 -3 -17.5t-3 -17.5q0 -12 15 -16q17 -8 51 -4q21 3 69 20q7 3 22.5 8.5t22.5 8.5l70 32q7 4 21.5 11.5t21.5 11.5q25 11 55 31 q10 6 60 41l49 37l24 12q3 0 7 4q2 0 4.5 1t4 1.5t3.5 -0.5q3 -1 8 -12q1 -3 2 -9.5t2 -9.5v-8q-6 -15 -12 -33v-22q0 -13 -2 -19q-2 -5 -7 -15t-7 -15q-7 -15 -39 -43l-7 -7q-4 -11 -10.5 -18.5t-19.5 -15.5t-17 -11q-12 -8 -47 -26l-24 -12q-16 -6 -34.5 -14t-41.5 -18.5 t-35 -15.5q-26 -11 -45 -22q-7 -3 -25 -13.5t-28 -13.5q-45 -11 -76 -6q-31 4 -45 10q-16 9 -43 45q-11 22 -18 54q-6 22 -19 41q-21 40 -24 84zM395 1849q-4 12 4 23t17 16.5t12 5.5t6.5 -3t8 -7.5t6.5 -5.5h11q12 0 19 -6q5 -3 17.5 -20.5t30.5 -43t30 -41.5 q6 -7 14.5 -16.5t15 -16.5t14.5 -16.5t12.5 -16t9.5 -14t4.5 -11.5t-2.5 -9q-11 -11 -30.5 -16t-31.5 -2q-5 1 -9.5 6t-10 14t-9.5 16.5t-9.5 19.5t-8.5 17q-14 29 -92 72q-13 7 -17.5 14.5t-6.5 20t-5 20.5z" />
<glyph unicode="&#xc9;" horiz-adv-x="706" d="M-20 324q-2 50 12 120q10 62 26 111q13 37 21 68l18 71q2 7 8.5 21.5t8.5 21.5q2 5 5 15.5t5 15.5l18 53q2 9 23 74q2 8 7 23.5t7 23.5l25 59q7 14 20.5 44.5t20.5 44.5q3 7 8 22.5t8 22.5q15 26 23 45q17 35 22 47q0 4 -4 8l-16 14q-7 6 -9 14t-1 19.5t0 15.5q0 3 1.5 8 t1.5 10t-3 9q-1 2 0 5t3 8t3 8v16q-2 0 -2 2q28 10 39 14l26 8q12 6 6 19q-2 2 -2 4q0 4 -5 27.5t1 29.5q-4 1 -1.5 10t2 10t4.5 9.5t5 9.5q3 8 15 11.5t20 -0.5q17 -8 33 -43q6 -16 10 -52q0 -9 10 -6l58 19q3 1 11.5 4t14.5 4q1 -3 2.5 -4.5t3 -1t4 1t3.5 0.5v-17 q43 14 55 17l51 12q2 0 9.5 2.5t9.5 2l10 -2.5l12 -6l-12 -6q4 0 10.5 1t9.5 1q8 0 23 1t22 1q1 0 13 -6q0 -2 -2 -4l30 6q3 2 10 1t10 -2t9.5 -3.5t9.5 -3.5q4 -2 3.5 -6.5t-3.5 -6.5q-4 -4 -12 -8q2 -3 12 -3.5t11 -8.5q-4 -6 -10 -9t-15 -4.5t-14 -3.5q-20 -10 -27 -10 q-4 -1 -14 -8t-17 -2q-4 0 -6 -2q-9 -9 -20 -6q-1 0 -2 -1t-2 -1q-8 -4 -9 -4l-24 -7q-15 -2 -39 -14q-8 -2 -23 -2q-8 -4 -10 -4q-8 -4 -10 -4q-2 -2 -6 -2q-4 -4 -6 -4l-39 -13q-3 -1 -9.5 -3t-9.5 -3q-7 -2 -33 -10q-43 -15 -65 -35q-8 -6 -12 -22q-1 -7 -4.5 -18 t-4.5 -15l-16 -47q-1 -6 -6 -16.5t-6 -12.5v-10q-1 -4 -3 -11.5t-3 -11.5q-2 -4 -2 -12h10q8 2 24.5 7t24.5 7q25 8 55 15q4 1 21 5t26 7q7 3 22.5 6t20.5 4l29 13q5 3 35 8q8 1 25 5.5t24 6.5q1 -1 7 -6t10 -10t6 -9q2 -7 10 -17t10 -15q4 -8 4 -33v-6q4 -5 3.5 -10 t-2.5 -8t-6 -8t-5 -7q-11 -19 -62 -45l-36 -18l-86 -25q-13 -3 -40 -8t-40 -8q-12 -2 -40.5 -7.5t-43.5 -7.5l-51 -8q-8 -2 -14.5 -10t-6.5 -17q-1 -2 -2 -6.5t-2 -7.5q0 -9 -14 -37q-2 -4 -7 -22q-2 -8 -5 -24.5t-5 -24.5q-1 -4 -5 -12.5t-5 -12.5q-3 -7 -8 -25 q-10 -29 -15 -53q-4 -15 -13 -42t-13 -42q-19 -60 -23 -76q-1 -3 -1 -10t-1 -10q-7 -17 -10 -33q-1 -2 -2 -7t-2 -7l-6 -23l-6 -24l-13 -68q-1 -6 -3 -17.5t-3 -17.5q0 -12 15 -16q17 -8 51 -4q21 3 69 20q7 3 22.5 8.5t22.5 8.5l70 32q7 4 21.5 11.5t21.5 11.5q25 11 55 31 q10 6 60 41l49 37l24 12q3 0 7 4q2 0 4.5 1t4 1.5t3.5 -0.5q3 -1 8 -12q1 -3 2 -9.5t2 -9.5v-8q-6 -15 -12 -33v-22q0 -13 -2 -19q-2 -5 -7 -15t-7 -15q-7 -15 -39 -43l-7 -7q-4 -11 -10.5 -18.5t-19.5 -15.5t-17 -11q-12 -8 -47 -26l-24 -12q-16 -6 -34.5 -14t-41.5 -18.5 t-35 -15.5q-26 -11 -45 -22q-7 -3 -25 -13.5t-28 -13.5q-45 -11 -76 -6q-31 4 -45 10q-16 9 -43 45q-11 22 -18 54q-6 22 -19 41q-21 40 -24 84zM391 1710q1 5 6 9.5t13.5 10t16.5 9.5t20 10.5t18 9.5q9 6 19.5 19t16.5 23t16.5 30t12.5 24q6 14 13 19t20 7t21 5 q17 6 32 -8.5t15 -22.5q0 -2 -7 -9.5t-8 -10.5v-11q-1 -11 -6 -18q-4 -6 -20 -19.5t-40.5 -33t-37.5 -31.5q-9 -8 -23 -22t-23 -22t-21.5 -18.5t-18 -11.5t-12.5 1q-11 10 -18 29t-5 32z" />
<glyph unicode="&#xca;" horiz-adv-x="706" d="M-20 324q-2 50 12 120q10 62 26 111q13 37 21 68l18 71q2 7 8.5 21.5t8.5 21.5q2 5 5 15.5t5 15.5l18 53q2 9 23 74q2 8 7 23.5t7 23.5l25 59q7 14 20.5 44.5t20.5 44.5q3 7 8 22.5t8 22.5q15 26 23 45q17 35 22 47q0 4 -4 8l-16 14q-7 6 -9 14t-1 19.5t0 15.5q0 3 1.5 8 t1.5 10t-3 9q-1 2 0 5t3 8t3 8v16q-2 0 -2 2q28 10 39 14l26 8q12 6 6 19q-2 2 -2 4q0 4 -5 27.5t1 29.5q-4 1 -1.5 10t2 10t4.5 9.5t5 9.5q3 8 15 11.5t20 -0.5q17 -8 33 -43q6 -16 10 -52q0 -9 10 -6l58 19q3 1 11.5 4t14.5 4q1 -3 2.5 -4.5t3 -1t4 1t3.5 0.5v-17 q43 14 55 17l51 12q2 0 9.5 2.5t9.5 2l10 -2.5l12 -6l-12 -6q4 0 10.5 1t9.5 1q8 0 23 1t22 1q1 0 13 -6q0 -2 -2 -4l30 6q3 2 10 1t10 -2t9.5 -3.5t9.5 -3.5q4 -2 3.5 -6.5t-3.5 -6.5q-4 -4 -12 -8q2 -3 12 -3.5t11 -8.5q-4 -6 -10 -9t-15 -4.5t-14 -3.5q-20 -10 -27 -10 q-4 -1 -14 -8t-17 -2q-4 0 -6 -2q-9 -9 -20 -6q-1 0 -2 -1t-2 -1q-8 -4 -9 -4l-24 -7q-15 -2 -39 -14q-8 -2 -23 -2q-8 -4 -10 -4q-8 -4 -10 -4q-2 -2 -6 -2q-4 -4 -6 -4l-39 -13q-3 -1 -9.5 -3t-9.5 -3q-7 -2 -33 -10q-43 -15 -65 -35q-8 -6 -12 -22q-1 -7 -4.5 -18 t-4.5 -15l-16 -47q-1 -6 -6 -16.5t-6 -12.5v-10q-1 -4 -3 -11.5t-3 -11.5q-2 -4 -2 -12h10q8 2 24.5 7t24.5 7q25 8 55 15q4 1 21 5t26 7q7 3 22.5 6t20.5 4l29 13q5 3 35 8q8 1 25 5.5t24 6.5q1 -1 7 -6t10 -10t6 -9q2 -7 10 -17t10 -15q4 -8 4 -33v-6q4 -5 3.5 -10 t-2.5 -8t-6 -8t-5 -7q-11 -19 -62 -45l-36 -18l-86 -25q-13 -3 -40 -8t-40 -8q-12 -2 -40.5 -7.5t-43.5 -7.5l-51 -8q-8 -2 -14.5 -10t-6.5 -17q-1 -2 -2 -6.5t-2 -7.5q0 -9 -14 -37q-2 -4 -7 -22q-2 -8 -5 -24.5t-5 -24.5q-1 -4 -5 -12.5t-5 -12.5q-3 -7 -8 -25 q-10 -29 -15 -53q-4 -15 -13 -42t-13 -42q-19 -60 -23 -76q-1 -3 -1 -10t-1 -10q-7 -17 -10 -33q-1 -2 -2 -7t-2 -7l-6 -23l-6 -24l-13 -68q-1 -6 -3 -17.5t-3 -17.5q0 -12 15 -16q17 -8 51 -4q21 3 69 20q7 3 22.5 8.5t22.5 8.5l70 32q7 4 21.5 11.5t21.5 11.5q25 11 55 31 q10 6 60 41l49 37l24 12q3 0 7 4q2 0 4.5 1t4 1.5t3.5 -0.5q3 -1 8 -12q1 -3 2 -9.5t2 -9.5v-8q-6 -15 -12 -33v-22q0 -13 -2 -19q-2 -5 -7 -15t-7 -15q-7 -15 -39 -43l-7 -7q-4 -11 -10.5 -18.5t-19.5 -15.5t-17 -11q-12 -8 -47 -26l-24 -12q-16 -6 -34.5 -14t-41.5 -18.5 t-35 -15.5q-26 -11 -45 -22q-7 -3 -25 -13.5t-28 -13.5q-45 -11 -76 -6q-31 4 -45 10q-16 9 -43 45q-11 22 -18 54q-6 22 -19 41q-21 40 -24 84zM350 1653q-3 6 3 20.5t13 25.5l7 11l104 98v17q-3 -4 -8 -9.5t-18 -19t-17.5 -15.5t-7.5 1q0 4 6 11.5t14 15.5t18.5 17.5 t18.5 16t17 13.5t10 8l2 2q16 7 33.5 6t29.5 -8q3 -2 6 -7.5t5 -16.5t3 -17.5t3 -21.5t2 -19q1 -8 5.5 -17.5t13 -20.5t14.5 -18.5t16.5 -19t13.5 -14.5q9 -11 11 -19t0 -21t-2 -20q0 -12 -10 -20t-20 -9.5t-13 -0.5q-3 0 -5.5 4t-5.5 9.5t-4 6.5q-10 10 -22 25l-5 5 t-7.5 10t-6.5 15l-39 64q-1 2 -2 4.5t-4 8.5t-5 7t-5 0q-80 -91 -94 -114l-29 -35q-31 29 -39 41z" />
<glyph unicode="&#xcb;" horiz-adv-x="706" d="M-20 324q-2 50 12 120q10 62 26 111q13 37 21 68l18 71q2 7 8.5 21.5t8.5 21.5q2 5 5 15.5t5 15.5l18 53q2 9 23 74q2 8 7 23.5t7 23.5l25 59q7 14 20.5 44.5t20.5 44.5q3 7 8 22.5t8 22.5q15 26 23 45q17 35 22 47q0 4 -4 8l-16 14q-7 6 -9 14t-1 19.5t0 15.5q0 3 1.5 8 t1.5 10t-3 9q-1 2 0 5t3 8t3 8v16q-2 0 -2 2q28 10 39 14l26 8q12 6 6 19q-2 2 -2 4q0 4 -5 27.5t1 29.5q-4 1 -1.5 10t2 10t4.5 9.5t5 9.5q3 8 15 11.5t20 -0.5q17 -8 33 -43q6 -16 10 -52q0 -9 10 -6l58 19q3 1 11.5 4t14.5 4q1 -3 2.5 -4.5t3 -1t4 1t3.5 0.5v-17 q43 14 55 17l51 12q2 0 9.5 2.5t9.5 2l10 -2.5l12 -6l-12 -6q4 0 10.5 1t9.5 1q8 0 23 1t22 1q1 0 13 -6q0 -2 -2 -4l30 6q3 2 10 1t10 -2t9.5 -3.5t9.5 -3.5q4 -2 3.5 -6.5t-3.5 -6.5q-4 -4 -12 -8q2 -3 12 -3.5t11 -8.5q-4 -6 -10 -9t-15 -4.5t-14 -3.5q-20 -10 -27 -10 q-4 -1 -14 -8t-17 -2q-4 0 -6 -2q-9 -9 -20 -6q-1 0 -2 -1t-2 -1q-8 -4 -9 -4l-24 -7q-15 -2 -39 -14q-8 -2 -23 -2q-8 -4 -10 -4q-8 -4 -10 -4q-2 -2 -6 -2q-4 -4 -6 -4l-39 -13q-3 -1 -9.5 -3t-9.5 -3q-7 -2 -33 -10q-43 -15 -65 -35q-8 -6 -12 -22q-1 -7 -4.5 -18 t-4.5 -15l-16 -47q-1 -6 -6 -16.5t-6 -12.5v-10q-1 -4 -3 -11.5t-3 -11.5q-2 -4 -2 -12h10q8 2 24.5 7t24.5 7q25 8 55 15q4 1 21 5t26 7q7 3 22.5 6t20.5 4l29 13q5 3 35 8q8 1 25 5.5t24 6.5q1 -1 7 -6t10 -10t6 -9q2 -7 10 -17t10 -15q4 -8 4 -33v-6q4 -5 3.5 -10 t-2.5 -8t-6 -8t-5 -7q-11 -19 -62 -45l-36 -18l-86 -25q-13 -3 -40 -8t-40 -8q-12 -2 -40.5 -7.5t-43.5 -7.5l-51 -8q-8 -2 -14.5 -10t-6.5 -17q-1 -2 -2 -6.5t-2 -7.5q0 -9 -14 -37q-2 -4 -7 -22q-2 -8 -5 -24.5t-5 -24.5q-1 -4 -5 -12.5t-5 -12.5q-3 -7 -8 -25 q-10 -29 -15 -53q-4 -15 -13 -42t-13 -42q-19 -60 -23 -76q-1 -3 -1 -10t-1 -10q-7 -17 -10 -33q-1 -2 -2 -7t-2 -7l-6 -23l-6 -24l-13 -68q-1 -6 -3 -17.5t-3 -17.5q0 -12 15 -16q17 -8 51 -4q21 3 69 20q7 3 22.5 8.5t22.5 8.5l70 32q7 4 21.5 11.5t21.5 11.5q25 11 55 31 q10 6 60 41l49 37l24 12q3 0 7 4q2 0 4.5 1t4 1.5t3.5 -0.5q3 -1 8 -12q1 -3 2 -9.5t2 -9.5v-8q-6 -15 -12 -33v-22q0 -13 -2 -19q-2 -5 -7 -15t-7 -15q-7 -15 -39 -43l-7 -7q-4 -11 -10.5 -18.5t-19.5 -15.5t-17 -11q-12 -8 -47 -26l-24 -12q-16 -6 -34.5 -14t-41.5 -18.5 t-35 -15.5q-26 -11 -45 -22q-7 -3 -25 -13.5t-28 -13.5q-45 -11 -76 -6q-31 4 -45 10q-16 9 -43 45q-11 22 -18 54q-6 22 -19 41q-21 40 -24 84zM326 1763q-3 5 3 18.5t17 20.5q4 27 31 13q24 -9 43 -42t10 -47q-5 -10 -14 -16q-18 -10 -51 14zM580 1759q-16 16 10 47 q2 12 17 16t32 -3q28 -10 47 -44.5t8 -50.5q-3 -7 -14 -18h-2q-8 -4 -10 -4q-16 -2 -33 7t-21 22q-3 10 -8 12q-5 3 -11 6.5t-9.5 5.5t-5.5 4z" />
<glyph unicode="&#xcc;" horiz-adv-x="505" d="M22.5 227.5q5.5 -30.5 30.5 -51.5q9 -8 25.5 -26t21.5 -23q25 0 33 10.5t8 34.5q-2 26 6 80q6 34 35 172q38 207 43 227q19 89 78 271q11 38 37 106.5t35 97.5q60 166 123 269q17 25 4 45q-4 6 -10 13t-11 11.5t-14.5 13t-13.5 11.5q-3 2 -11.5 0t-11.5 -6 q-8 -10 -24.5 -28.5t-28.5 -33.5t-21 -30q-55 -82 -100 -170q-27 -52 -68 -166q-88 -252 -112 -393q-19 -107 -33 -203q-16 -113 -20 -174q-6 -27 -0.5 -57.5zM373 1905q-4 12 4 23t17 16.5t12 5.5t10.5 -8t9.5 -9h12q12 0 19 -6q5 -3 17.5 -20t30.5 -43t30 -41 q5 -7 14 -16.5t15.5 -17t14.5 -17t12.5 -15.5t9 -14.5t4 -12t-2.5 -8.5q-11 -11 -30.5 -16t-30.5 -2q-5 1 -9.5 6t-10 14t-9.5 17t-9.5 19.5t-8.5 17.5q-13 27 -93 71q-13 7 -17.5 15t-6 20.5t-4.5 20.5z" />
<glyph unicode="&#xcd;" horiz-adv-x="505" d="M22.5 227.5q5.5 -30.5 30.5 -51.5q9 -8 25.5 -26t21.5 -23q25 0 33 10.5t8 34.5q-2 26 6 80q6 34 35 172q38 207 43 227q19 89 78 271q11 38 37 106.5t35 97.5q60 166 123 269q17 25 4 45q-4 6 -10 13t-11 11.5t-14.5 13t-13.5 11.5q-3 2 -11.5 0t-11.5 -6 q-8 -10 -24.5 -28.5t-28.5 -33.5t-21 -30q-55 -82 -100 -170q-27 -52 -68 -166q-88 -252 -112 -393q-19 -107 -33 -203q-16 -113 -20 -174q-6 -27 -0.5 -57.5zM369 1765q1 5 6 10t13.5 10.5t15.5 9.5t20 10.5t18 9.5q8 5 15.5 13t15 20t12.5 21t13 23t10 19q6 14 13 19t20 7 t20 5q17 6 32 -8.5t15 -22.5q0 -2 -6.5 -10t-7.5 -11v-10q-1 -11 -6 -18q-4 -6 -20 -20t-41 -33t-38 -31q-9 -8 -23 -22t-23 -22.5t-21.5 -19t-18 -11.5t-12.5 1q-11 10 -17.5 29t-4.5 32z" />
<glyph unicode="&#xce;" horiz-adv-x="505" d="M22.5 227.5q5.5 -30.5 30.5 -51.5q9 -8 25.5 -26t21.5 -23q25 0 33 10.5t8 34.5q-2 26 6 80q6 34 35 172q38 207 43 227q19 89 78 271q11 38 37 106.5t35 97.5q60 166 123 269q17 25 4 45q-4 6 -10 13t-11 11.5t-14.5 13t-13.5 11.5q-3 2 -11.5 0t-11.5 -6 q-8 -10 -24.5 -28.5t-28.5 -33.5t-21 -30q-55 -82 -100 -170q-27 -52 -68 -166q-88 -252 -112 -393q-19 -107 -33 -203q-16 -113 -20 -174q-6 -27 -0.5 -57.5zM328 1708q-3 6 2.5 20.5t12.5 25.5l7 11l105 99v16q-3 -4 -8 -9.5t-18.5 -19t-18 -15.5t-7.5 1q0 4 6 11.5 t14 15.5t18.5 17.5t18.5 16t17 13.5t10 8l2 2q16 7 34 6t30 -8q3 -2 6 -8t4.5 -16t2.5 -18t2.5 -21t2.5 -19q1 -10 9.5 -24t15.5 -22.5t22 -24.5t17 -19q9 -11 11 -19t-0.5 -20t-2.5 -20q0 -12 -10 -20t-20 -10t-13 -1q-3 0 -5.5 4t-5 9.5t-3.5 6.5q-15 15 -23 25 q-1 1 -5 5.5t-7 10.5t-6 15l-39 63q-1 2 -2 4.5t-4.5 9t-5.5 7.5t-5 0q-80 -92 -94 -115l-28 -35q-31 29 -39 41z" />
<glyph unicode="&#xcf;" horiz-adv-x="505" d="M22.5 227.5q5.5 -30.5 30.5 -51.5q9 -8 25.5 -26t21.5 -23q25 0 33 10.5t8 34.5q-2 26 6 80q6 34 35 172q38 207 43 227q19 89 78 271q11 38 37 106.5t35 97.5q60 166 123 269q17 25 4 45q-4 6 -10 13t-11 11.5t-14.5 13t-13.5 11.5q-3 2 -11.5 0t-11.5 -6 q-8 -10 -24.5 -28.5t-28.5 -33.5t-21 -30q-55 -82 -100 -170q-27 -52 -68 -166q-88 -252 -112 -393q-19 -107 -33 -203q-16 -113 -20 -174q-6 -27 -0.5 -57.5zM303 1819q-3 5 3.5 18.5t17.5 20.5q4 25 30 12q24 -9 43.5 -41.5t10.5 -46.5q-5 -10 -15 -17q-17 -9 -51 15z M557 1815q-16 16 10 47q2 12 17 15.5t32 -3.5q28 -10 47.5 -44t8.5 -50q-3 -7 -15 -19h-2q-8 -4 -10 -4q-15 -2 -32 7t-21 22q-3 10 -8 12q-5 3 -11 6.5t-10 6t-6 4.5z" />
<glyph unicode="&#xd1;" horiz-adv-x="931" d="M2 76q6 -9 21 -13q12 -4 20.5 0t18.5 15.5t12 13.5q23 19 30 33q36 90 50 135q7 21 16 60t12 51q79 293 82 303q14 51 66 219q4 16 20 57q2 -2 4 -2q2 -6 2 -20q2 -14 -4 -56t2 -59q6 -7 4 -49.5t-2 -50.5q1 -38 11 -187q15 -167 65 -336q22 -77 39 -103q27 -40 76 -54 q24 -6 31 14q2 7 4 22.5t2 16.5l49 213q45 214 47 223q38 171 49 215q9 35 28.5 104.5t28.5 104.5q46 158 48 164q83 240 100 287q40 104 100 237q22 54 62 133q33 67 63 121q13 25 40.5 73.5t41.5 72.5q29 50 -27 82q-51 24 -88 10q-27 -13 -12 -33q2 -4 2 -16 q-6 -13 -19.5 -38.5t-19.5 -39.5q-3 -5 -18.5 -33.5t-22.5 -44.5q-5 -11 -23 -48.5t-28 -57.5q-3 -7 -11 -19.5t-11 -19.5q-6 -11 -14.5 -34.5t-12.5 -33.5q-5 -14 -16.5 -39t-16.5 -39q-31 -76 -51 -119q-15 -34 -12 -47q1 -4 -4 -20q-6 -17 -24 -62.5t-26 -70.5 q-10 -29 -38 -125q-4 -10 -10.5 -32t-10.5 -32q-4 -12 -16 -35.5t-18.5 -43t-4.5 -39.5q0 -1 -1 -2.5t-2.5 -4t-2.5 -4.5q-19 -60 -29 -88q-1 -4 -3 -14.5t-4.5 -17.5t-6.5 -11q-20 -20 -14 -49q5 -39 -7 -45q-15 -10 -20 -37q-6 -21 -13.5 -61.5t-9.5 -51.5q-6 -27 -19 -78 t-17 -65q-3 -11 -12 -33t-13 -32q-12 32 -12 39q-12 164 -10 245q0 11 -2.5 36.5t-2.5 40t9 33.5t28 32q-16 16 -22 27.5t-2 31.5q5 11 3 63t-1 64q6 47 30 82q-6 6 -12 10q23 21 -6 37q14 18 -4 27q-10 5 -14 26q-3 8 -6.5 23t-6.5 24t-9 21.5t-15 21.5q-6 8 -12.5 14.5 t-15.5 12t-15 9t-18 8t-16.5 6.5t-18.5 6.5t-17 5.5q-10 0 -14 -8q-26 -62 -35 -91q-25 -71 -51 -157q-6 -22 -19.5 -65t-19.5 -64q-5 -20 -25.5 -96.5t-29.5 -118.5q-49 -189 -68 -289q-10 -49 -27.5 -146.5t-27.5 -146.5q-2 -12 -27 -80q-5 -15 0 -18zM516 1731 q-33 27 4 57q-4 4 -4 10q0 11 28.5 26.5t65.5 22.5q23 4 47.5 -6t42.5 -23.5t19 -13.5q24 -6 53 -2l27 19q4 3 9 7t11.5 9t9.5 8l25 21q15 10 23 14q4 4 12 8q1 0 3 -1t3 -1q8 -8 8 -37v-14q0 -14 -6 -18q-3 -2 -7 -9t-5 -8q-3 -4 -11.5 -12t-11.5 -14q-9 -12 -26 -25 q-2 -2 -5.5 -4t-6.5 -3.5t-5 -4.5t-2 -6q-7 -4 -19 -6t-20 -1h-8l-25 2q-6 -8 -14 -8q-8 2 -55 35q-11 7 -32.5 14.5t-33.5 4.5q-2 0 -8 -3q-35 -28 -35 -36q-6 -24 -14 -25h-2q-5 1 -18.5 11t-16.5 12z" />
<glyph unicode="&#xd2;" horiz-adv-x="677" d="M23 385q-5 37 4 139q1 20 16 123q10 44 16 58q12 28 19 71l4 8q6 8 10.5 26t5.5 21q6 17 23 56q1 2 6 9.5t6 12.5q5 23 14 29q3 2 9 31q0 6 2 8l24 41q2 5 6.5 14.5t6.5 14.5q5 8 10.5 24.5t7.5 20.5q5 8 14.5 21t12.5 17q1 2 2 6.5t2 6.5l30 51q6 9 15 18q14 10 14 25 q-1 1 0.5 4t1.5 4q21 23 45 58q1 2 2 6.5t2 5.5q22 26 33 41q7 7 10 16q1 1 7.5 16.5t11.5 22.5q6 8 24 12t27 17q3 6 29 16q12 2 39 2q11 0 14.5 -4.5t3.5 -15.5q0 -5 6 -29q1 -3 4.5 -20t7.5 -25q7 -17 11 -43q2 -11 20 -43q2 -5 7 -15.5t7 -15.5q2 -6 7 -17t8 -20t2 -18 q0 -9 4 -21v-45q-1 -9 -4 -26.5t-4 -26.5l-6 -51q0 -12 -2 -16q0 -2 -3.5 -11t-3.5 -14l-18 -109q0 -4 -4 -8q0 -1 -2 -3t-2 -3q6 -15 -1.5 -39.5t-6.5 -34.5v-28q0 -20 -2 -21q-9 -4 -13 -26q-3 -33 -12 -72l-25 -98q-6 -23 -16 -47v-7q-2 -8 -5 -22t-6 -25.5t-7 -21.5 q-1 -3 -10 -19.5t-11 -25.5q-1 -2 -6 -10t-6 -13q-1 -3 -5 -13.5t-7.5 -16.5t-8.5 -11q-2 -2 -2.5 -7.5t-1.5 -6.5q-11 -25 -20 -39q-15 -29 -41 -66l-13 -18q-15 -21 -30 -39q-9 -12 -19 -22q-8 -7 -25 -18t-20 -13q-1 -1 -3 -2q-3 -1 -3 -2q-4 -6 -11 -9t-12 -3t-14.5 0.5 t-13.5 0.5q-9 0 -18 3q-9 0 -13 2q-6 4 -17.5 13t-17.5 13q-2 2 -11.5 10t-12.5 13q-4 4 -9 10t-11 13.5t-9 11.5q-9 12 -19.5 37t-13.5 30q-5 7 -10 22t-10 21q-3 4 -4 9.5t-1 13t-1 10.5q-5 13 -6.5 26.5t-2.5 36t-1 27.5zM138 280.5q0 -23.5 5 -44.5q2 -6 4.5 -18.5 t6 -22.5t8.5 -17q2 -4 16 -4q3 2 7.5 7t7.5 7q12 7 26.5 30.5t28.5 29.5q20 10 24 35l4 4q1 3 7.5 11t7.5 13q2 13 22 23q13 3 13 14q0 15 12 27q3 3 8 22q0 15 2 17q6 4 9.5 9.5t6.5 14t5 11.5q0 4 2 4q14 8 14 32q0 11 2 13q12 7 16 37l1 5q1 6 3 9t7 6q4 0 4 12 q-2 13 10 33q4 12 8 18q6 22 8 27q4 13 2 17q-8 8 5 14q3 3 8 18l6 31q2 4 5 12.5t5 12.5q1 1 2 2.5t2 2.5t2 1q15 -2 15 12v27q0 5 1 12t1 8q16 8 16 10q6 14 2 29q-3 28 14 55q0 1 1 4t1 5q1 4 6 37t11 49v4q-11 16 -12 20q-7 18 -7 29q0 6 2.5 17t2.5 16q3 51 0 102 q0 10 -7 14q-12 4 -18 -2q-24 -23 -31 -41q-2 -8 -9.5 -19.5t-10.5 -17.5q-3 -8 -17 -24t-16 -29l-2 -2q-7 -2 -11 -7t-7 -12.5t-5 -9.5q-5 -7 -9.5 -15.5t-9.5 -19.5t-7 -16q-2 -2 -8.5 -6.5t-6.5 -7.5q-1 -8 -8 -20.5t-8 -16.5q-2 -4 -12 -20.5t-10 -26.5q0 -1 -1.5 -2 t-1.5 -2q-3 -5 -18 -35q-4 -13 -6 -14q-9 -7 -14 -31q-5 -25 -9 -27q-9 -5 -13.5 -18t-6.5 -16q-8 -10 -12 -39q-1 -7 -8.5 -17t-8.5 -14l-22 -66q0 -10 -2 -14q-1 -2 -6.5 -16t-6.5 -21q-8 -34 -16 -49q-2 -4 -8 -47l-6 -39q-1 -3 -6.5 -21.5t-6.5 -27.5q0 -16 -2.5 -44.5 t-2.5 -52zM418 1804q-4 12 4 23t17 16.5t12 5.5t6.5 -3t7.5 -7.5t6 -5.5h12q12 0 19 -6q5 -3 17.5 -20.5t30.5 -43t30 -41.5q6 -7 14.5 -16.5t15 -16.5t14.5 -16.5t12.5 -16t9 -14.5t4 -11.5t-2.5 -8.5q-11 -11 -30.5 -16t-30.5 -2q-5 1 -9.5 6t-10 14t-9.5 16.5t-9.5 19.5 t-8.5 17q-14 28 -93 72q-13 7 -17.5 14.5t-6 20t-4.5 20.5z" />
<glyph unicode="&#xd3;" horiz-adv-x="677" d="M23 385q-5 37 4 139q1 20 16 123q10 44 16 58q12 28 19 71l4 8q6 8 10.5 26t5.5 21q6 17 23 56q1 2 6 9.5t6 12.5q5 23 14 29q3 2 9 31q0 6 2 8l24 41q2 5 6.5 14.5t6.5 14.5q5 8 10.5 24.5t7.5 20.5q5 8 14.5 21t12.5 17q1 2 2 6.5t2 6.5l30 51q6 9 15 18q14 10 14 25 q-1 1 0.5 4t1.5 4q21 23 45 58q1 2 2 6.5t2 5.5q22 26 33 41q7 7 10 16q1 1 7.5 16.5t11.5 22.5q6 8 24 12t27 17q3 6 29 16q12 2 39 2q11 0 14.5 -4.5t3.5 -15.5q0 -5 6 -29q1 -3 4.5 -20t7.5 -25q7 -17 11 -43q2 -11 20 -43q2 -5 7 -15.5t7 -15.5q2 -6 7 -17t8 -20t2 -18 q0 -9 4 -21v-45q-1 -9 -4 -26.5t-4 -26.5l-6 -51q0 -12 -2 -16q0 -2 -3.5 -11t-3.5 -14l-18 -109q0 -4 -4 -8q0 -1 -2 -3t-2 -3q6 -15 -1.5 -39.5t-6.5 -34.5v-28q0 -20 -2 -21q-9 -4 -13 -26q-3 -33 -12 -72l-25 -98q-6 -23 -16 -47v-7q-2 -8 -5 -22t-6 -25.5t-7 -21.5 q-1 -3 -10 -19.5t-11 -25.5q-1 -2 -6 -10t-6 -13q-1 -3 -5 -13.5t-7.5 -16.5t-8.5 -11q-2 -2 -2.5 -7.5t-1.5 -6.5q-11 -25 -20 -39q-15 -29 -41 -66l-13 -18q-15 -21 -30 -39q-9 -12 -19 -22q-8 -7 -25 -18t-20 -13q-1 -1 -3 -2q-3 -1 -3 -2q-4 -6 -11 -9t-12 -3t-14.5 0.5 t-13.5 0.5q-9 0 -18 3q-9 0 -13 2q-6 4 -17.5 13t-17.5 13q-2 2 -11.5 10t-12.5 13q-4 4 -9 10t-11 13.5t-9 11.5q-9 12 -19.5 37t-13.5 30q-5 7 -10 22t-10 21q-3 4 -4 9.5t-1 13t-1 10.5q-5 13 -6.5 26.5t-2.5 36t-1 27.5zM138 280.5q0 -23.5 5 -44.5q2 -6 4.5 -18.5 t6 -22.5t8.5 -17q2 -4 16 -4q3 2 7.5 7t7.5 7q12 7 26.5 30.5t28.5 29.5q20 10 24 35l4 4q1 3 7.5 11t7.5 13q2 13 22 23q13 3 13 14q0 15 12 27q3 3 8 22q0 15 2 17q6 4 9.5 9.5t6.5 14t5 11.5q0 4 2 4q14 8 14 32q0 11 2 13q12 7 16 37l1 5q1 6 3 9t7 6q4 0 4 12 q-2 13 10 33q4 12 8 18q6 22 8 27q4 13 2 17q-8 8 5 14q3 3 8 18l6 31q2 4 5 12.5t5 12.5q1 1 2 2.5t2 2.5t2 1q15 -2 15 12v27q0 5 1 12t1 8q16 8 16 10q6 14 2 29q-3 28 14 55q0 1 1 4t1 5q1 4 6 37t11 49v4q-11 16 -12 20q-7 18 -7 29q0 6 2.5 17t2.5 16q3 51 0 102 q0 10 -7 14q-12 4 -18 -2q-24 -23 -31 -41q-2 -8 -9.5 -19.5t-10.5 -17.5q-3 -8 -17 -24t-16 -29l-2 -2q-7 -2 -11 -7t-7 -12.5t-5 -9.5q-5 -7 -9.5 -15.5t-9.5 -19.5t-7 -16q-2 -2 -8.5 -6.5t-6.5 -7.5q-1 -8 -8 -20.5t-8 -16.5q-2 -4 -12 -20.5t-10 -26.5q0 -1 -1.5 -2 t-1.5 -2q-3 -5 -18 -35q-4 -13 -6 -14q-9 -7 -14 -31q-5 -25 -9 -27q-9 -5 -13.5 -18t-6.5 -16q-8 -10 -12 -39q-1 -7 -8.5 -17t-8.5 -14l-22 -66q0 -10 -2 -14q-1 -2 -6.5 -16t-6.5 -21q-8 -34 -16 -49q-2 -4 -8 -47l-6 -39q-1 -3 -6.5 -21.5t-6.5 -27.5q0 -16 -2.5 -44.5 t-2.5 -52zM414 1665q1 5 6 9.5t13.5 10t16 9.5t19.5 10.5t18 9.5q8 5 15.5 13t15 20t12.5 21t13 23t10 19q6 14 13 19t20 7t20 5q17 6 32 -8.5t15 -22.5q0 -2 -6.5 -9.5t-7.5 -10.5l-1 -11q0 -11 -5 -18q-4 -6 -20 -19.5t-40.5 -33t-37.5 -31.5q-7 -6 -16.5 -15t-16.5 -16 t-16.5 -16t-15.5 -14t-13.5 -9.5t-11.5 -4.5t-9 2q-11 10 -17.5 29t-4.5 32z" />
<glyph unicode="&#xd4;" horiz-adv-x="677" d="M23 385q-5 37 4 139q1 20 16 123q10 44 16 58q12 28 19 71l4 8q6 8 10.5 26t5.5 21q6 17 23 56q1 2 6 9.5t6 12.5q5 23 14 29q3 2 9 31q0 6 2 8l24 41q2 5 6.5 14.5t6.5 14.5q5 8 10.5 24.5t7.5 20.5q5 8 14.5 21t12.5 17q1 2 2 6.5t2 6.5l30 51q6 9 15 18q14 10 14 25 q-1 1 0.5 4t1.5 4q21 23 45 58q1 2 2 6.5t2 5.5q22 26 33 41q7 7 10 16q1 1 7.5 16.5t11.5 22.5q6 8 24 12t27 17q3 6 29 16q12 2 39 2q11 0 14.5 -4.5t3.5 -15.5q0 -5 6 -29q1 -3 4.5 -20t7.5 -25q7 -17 11 -43q2 -11 20 -43q2 -5 7 -15.5t7 -15.5q2 -6 7 -17t8 -20t2 -18 q0 -9 4 -21v-45q-1 -9 -4 -26.5t-4 -26.5l-6 -51q0 -12 -2 -16q0 -2 -3.5 -11t-3.5 -14l-18 -109q0 -4 -4 -8q0 -1 -2 -3t-2 -3q6 -15 -1.5 -39.5t-6.5 -34.5v-28q0 -20 -2 -21q-9 -4 -13 -26q-3 -33 -12 -72l-25 -98q-6 -23 -16 -47v-7q-2 -8 -5 -22t-6 -25.5t-7 -21.5 q-1 -3 -10 -19.5t-11 -25.5q-1 -2 -6 -10t-6 -13q-1 -3 -5 -13.5t-7.5 -16.5t-8.5 -11q-2 -2 -2.5 -7.5t-1.5 -6.5q-11 -25 -20 -39q-15 -29 -41 -66l-13 -18q-15 -21 -30 -39q-9 -12 -19 -22q-8 -7 -25 -18t-20 -13q-1 -1 -3 -2q-3 -1 -3 -2q-4 -6 -11 -9t-12 -3t-14.5 0.5 t-13.5 0.5q-9 0 -18 3q-9 0 -13 2q-6 4 -17.5 13t-17.5 13q-2 2 -11.5 10t-12.5 13q-4 4 -9 10t-11 13.5t-9 11.5q-9 12 -19.5 37t-13.5 30q-5 7 -10 22t-10 21q-3 4 -4 9.5t-1 13t-1 10.5q-5 13 -6.5 26.5t-2.5 36t-1 27.5zM138 280.5q0 -23.5 5 -44.5q2 -6 4.5 -18.5 t6 -22.5t8.5 -17q2 -4 16 -4q3 2 7.5 7t7.5 7q12 7 26.5 30.5t28.5 29.5q20 10 24 35l4 4q1 3 7.5 11t7.5 13q2 13 22 23q13 3 13 14q0 15 12 27q3 3 8 22q0 15 2 17q6 4 9.5 9.5t6.5 14t5 11.5q0 4 2 4q14 8 14 32q0 11 2 13q12 7 16 37l1 5q1 6 3 9t7 6q4 0 4 12 q-2 13 10 33q4 12 8 18q6 22 8 27q4 13 2 17q-8 8 5 14q3 3 8 18l6 31q2 4 5 12.5t5 12.5q1 1 2 2.5t2 2.5t2 1q15 -2 15 12v27q0 5 1 12t1 8q16 8 16 10q6 14 2 29q-3 28 14 55q0 1 1 4t1 5q1 4 6 37t11 49v4q-11 16 -12 20q-7 18 -7 29q0 6 2.5 17t2.5 16q3 51 0 102 q0 10 -7 14q-12 4 -18 -2q-24 -23 -31 -41q-2 -8 -9.5 -19.5t-10.5 -17.5q-3 -8 -17 -24t-16 -29l-2 -2q-7 -2 -11 -7t-7 -12.5t-5 -9.5q-5 -7 -9.5 -15.5t-9.5 -19.5t-7 -16q-2 -2 -8.5 -6.5t-6.5 -7.5q-1 -8 -8 -20.5t-8 -16.5q-2 -4 -12 -20.5t-10 -26.5q0 -1 -1.5 -2 t-1.5 -2q-3 -5 -18 -35q-4 -13 -6 -14q-9 -7 -14 -31q-5 -25 -9 -27q-9 -5 -13.5 -18t-6.5 -16q-8 -10 -12 -39q-1 -7 -8.5 -17t-8.5 -14l-22 -66q0 -10 -2 -14q-1 -2 -6.5 -16t-6.5 -21q-8 -34 -16 -49q-2 -4 -8 -47l-6 -39q-1 -3 -6.5 -21.5t-6.5 -27.5q0 -16 -2.5 -44.5 t-2.5 -52zM373 1608q-3 6 2.5 20.5t12.5 25.5l7 11l105 98v17q-3 -4 -8 -9.5t-18 -19t-17.5 -15.5t-7.5 1q0 4 6 11.5t13.5 15t18.5 17.5t18.5 16t16.5 14l10 8l3 2q16 7 33.5 6t29.5 -8q3 -2 6 -8t4.5 -16t2.5 -18t2.5 -21t2.5 -19q1 -10 9.5 -24t15.5 -22.5t22 -24.5 t17 -19q9 -11 11 -19t-0.5 -20.5t-2.5 -20.5q0 -12 -10 -20t-20 -10t-13 -1q-3 0 -5.5 4.5t-5 10t-3.5 6.5q-15 15 -23 25q-1 1 -5 5.5t-7 10t-6 14.5l-39 64q-1 2 -2 4.5t-4 8.5t-5 7t-5 0q-81 -91 -95 -114l-28 -35q-31 29 -39 41z" />
<glyph unicode="&#xd5;" horiz-adv-x="677" d="M23 385q-5 37 4 139q1 20 16 123q10 44 16 58q12 28 19 71l4 8q6 8 10.5 26t5.5 21q6 17 23 56q1 2 6 9.5t6 12.5q5 23 14 29q3 2 9 31q0 6 2 8l24 41q2 5 6.5 14.5t6.5 14.5q5 8 10.5 24.5t7.5 20.5q5 8 14.5 21t12.5 17q1 2 2 6.5t2 6.5l30 51q6 9 15 18q14 10 14 25 q-1 1 0.5 4t1.5 4q21 23 45 58q1 2 2 6.5t2 5.5q22 26 33 41q7 7 10 16q1 1 7.5 16.5t11.5 22.5q6 8 24 12t27 17q3 6 29 16q12 2 39 2q11 0 14.5 -4.5t3.5 -15.5q0 -5 6 -29q1 -3 4.5 -20t7.5 -25q7 -17 11 -43q2 -11 20 -43q2 -5 7 -15.5t7 -15.5q2 -6 7 -17t8 -20t2 -18 q0 -9 4 -21v-45q-1 -9 -4 -26.5t-4 -26.5l-6 -51q0 -12 -2 -16q0 -2 -3.5 -11t-3.5 -14l-18 -109q0 -4 -4 -8q0 -1 -2 -3t-2 -3q6 -15 -1.5 -39.5t-6.5 -34.5v-28q0 -20 -2 -21q-9 -4 -13 -26q-3 -33 -12 -72l-25 -98q-6 -23 -16 -47v-7q-2 -8 -5 -22t-6 -25.5t-7 -21.5 q-1 -3 -10 -19.5t-11 -25.5q-1 -2 -6 -10t-6 -13q-1 -3 -5 -13.5t-7.5 -16.5t-8.5 -11q-2 -2 -2.5 -7.5t-1.5 -6.5q-11 -25 -20 -39q-15 -29 -41 -66l-13 -18q-15 -21 -30 -39q-9 -12 -19 -22q-8 -7 -25 -18t-20 -13q-1 -1 -3 -2q-3 -1 -3 -2q-4 -6 -11 -9t-12 -3t-14.5 0.5 t-13.5 0.5q-9 0 -18 3q-9 0 -13 2q-6 4 -17.5 13t-17.5 13q-2 2 -11.5 10t-12.5 13q-4 4 -9 10t-11 13.5t-9 11.5q-9 12 -19.5 37t-13.5 30q-5 7 -10 22t-10 21q-3 4 -4 9.5t-1 13t-1 10.5q-5 13 -6.5 26.5t-2.5 36t-1 27.5zM138 280.5q0 -23.5 5 -44.5q2 -6 4.5 -18.5 t6 -22.5t8.5 -17q2 -4 16 -4q3 2 7.5 7t7.5 7q12 7 26.5 30.5t28.5 29.5q20 10 24 35l4 4q1 3 7.5 11t7.5 13q2 13 22 23q13 3 13 14q0 15 12 27q3 3 8 22q0 15 2 17q6 4 9.5 9.5t6.5 14t5 11.5q0 4 2 4q14 8 14 32q0 11 2 13q12 7 16 37l1 5q1 6 3 9t7 6q4 0 4 12 q-2 13 10 33q4 12 8 18q6 22 8 27q4 13 2 17q-8 8 5 14q3 3 8 18l6 31q2 4 5 12.5t5 12.5q1 1 2 2.5t2 2.5t2 1q15 -2 15 12v27q0 5 1 12t1 8q16 8 16 10q6 14 2 29q-3 28 14 55q0 1 1 4t1 5q1 4 6 37t11 49v4q-11 16 -12 20q-7 18 -7 29q0 6 2.5 17t2.5 16q3 51 0 102 q0 10 -7 14q-12 4 -18 -2q-24 -23 -31 -41q-2 -8 -9.5 -19.5t-10.5 -17.5q-3 -8 -17 -24t-16 -29l-2 -2q-7 -2 -11 -7t-7 -12.5t-5 -9.5q-5 -7 -9.5 -15.5t-9.5 -19.5t-7 -16q-2 -2 -8.5 -6.5t-6.5 -7.5q-1 -8 -8 -20.5t-8 -16.5q-2 -4 -12 -20.5t-10 -26.5q0 -1 -1.5 -2 t-1.5 -2q-3 -5 -18 -35q-4 -13 -6 -14q-9 -7 -14 -31q-5 -25 -9 -27q-9 -5 -13.5 -18t-6.5 -16q-8 -10 -12 -39q-1 -7 -8.5 -17t-8.5 -14l-22 -66q0 -10 -2 -14q-1 -2 -6.5 -16t-6.5 -21q-8 -34 -16 -49q-2 -4 -8 -47l-6 -39q-1 -3 -6.5 -21.5t-6.5 -27.5q0 -16 -2.5 -44.5 t-2.5 -52zM346 1651q-33 27 4 57q-4 4 -4 10q0 11 28.5 26.5t65.5 22.5q23 4 47.5 -6t42.5 -23.5t19 -13.5q24 -6 53 -2l27 19q4 3 9 7t11.5 9t9.5 8l25 21q15 10 23 14q4 4 12 8q1 0 3 -1t3 -1q8 -8 8 -37v-14q0 -14 -6 -18q-3 -2 -7 -9t-5 -8q-3 -4 -11.5 -12t-11.5 -14 q-9 -12 -26 -25q-2 -2 -5.5 -4t-6.5 -3.5t-5 -4.5t-2 -6q-7 -4 -19 -5.5t-20 -1.5l-8 1l-25 2q-6 -9 -14 -9q-8 2 -55 35q-11 7 -32.5 14.5t-33.5 4.5q-4 0 -8 -2q-35 -29 -35 -37v-2q-7 -23 -16 -23q-5 1 -18.5 11t-16.5 12z" />
<glyph unicode="&#xd6;" horiz-adv-x="677" d="M23 385q-5 37 4 139q1 20 16 123q10 44 16 58q12 28 19 71l4 8q6 8 10.5 26t5.5 21q6 17 23 56q1 2 6 9.5t6 12.5q5 23 14 29q3 2 9 31q0 6 2 8l24 41q2 5 6.5 14.5t6.5 14.5q5 8 10.5 24.5t7.5 20.5q5 8 14.5 21t12.5 17q1 2 2 6.5t2 6.5l30 51q6 9 15 18q14 10 14 25 q-1 1 0.5 4t1.5 4q21 23 45 58q1 2 2 6.5t2 5.5q22 26 33 41q7 7 10 16q1 1 7.5 16.5t11.5 22.5q6 8 24 12t27 17q3 6 29 16q12 2 39 2q11 0 14.5 -4.5t3.5 -15.5q0 -5 6 -29q1 -3 4.5 -20t7.5 -25q7 -17 11 -43q2 -11 20 -43q2 -5 7 -15.5t7 -15.5q2 -6 7 -17t8 -20t2 -18 q0 -9 4 -21v-45q-1 -9 -4 -26.5t-4 -26.5l-6 -51q0 -12 -2 -16q0 -2 -3.5 -11t-3.5 -14l-18 -109q0 -4 -4 -8q0 -1 -2 -3t-2 -3q6 -15 -1.5 -39.5t-6.5 -34.5v-28q0 -20 -2 -21q-9 -4 -13 -26q-3 -33 -12 -72l-25 -98q-6 -23 -16 -47v-7q-2 -8 -5 -22t-6 -25.5t-7 -21.5 q-1 -3 -10 -19.5t-11 -25.5q-1 -2 -6 -10t-6 -13q-1 -3 -5 -13.5t-7.5 -16.5t-8.5 -11q-2 -2 -2.5 -7.5t-1.5 -6.5q-11 -25 -20 -39q-15 -29 -41 -66l-13 -18q-15 -21 -30 -39q-9 -12 -19 -22q-8 -7 -25 -18t-20 -13q-1 -1 -3 -2q-3 -1 -3 -2q-4 -6 -11 -9t-12 -3t-14.5 0.5 t-13.5 0.5q-9 0 -18 3q-9 0 -13 2q-6 4 -17.5 13t-17.5 13q-2 2 -11.5 10t-12.5 13q-4 4 -9 10t-11 13.5t-9 11.5q-9 12 -19.5 37t-13.5 30q-5 7 -10 22t-10 21q-3 4 -4 9.5t-1 13t-1 10.5q-5 13 -6.5 26.5t-2.5 36t-1 27.5zM138 280.5q0 -23.5 5 -44.5q2 -6 4.5 -18.5 t6 -22.5t8.5 -17q2 -4 16 -4q3 2 7.5 7t7.5 7q12 7 26.5 30.5t28.5 29.5q20 10 24 35l4 4q1 3 7.5 11t7.5 13q2 13 22 23q13 3 13 14q0 15 12 27q3 3 8 22q0 15 2 17q6 4 9.5 9.5t6.5 14t5 11.5q0 4 2 4q14 8 14 32q0 11 2 13q12 7 16 37l1 5q1 6 3 9t7 6q4 0 4 12 q-2 13 10 33q4 12 8 18q6 22 8 27q4 13 2 17q-8 8 5 14q3 3 8 18l6 31q2 4 5 12.5t5 12.5q1 1 2 2.5t2 2.5t2 1q15 -2 15 12v27q0 5 1 12t1 8q16 8 16 10q6 14 2 29q-3 28 14 55q0 1 1 4t1 5q1 4 6 37t11 49v4q-11 16 -12 20q-7 18 -7 29q0 6 2.5 17t2.5 16q3 51 0 102 q0 10 -7 14q-12 4 -18 -2q-24 -23 -31 -41q-2 -8 -9.5 -19.5t-10.5 -17.5q-3 -8 -17 -24t-16 -29l-2 -2q-7 -2 -11 -7t-7 -12.5t-5 -9.5q-5 -7 -9.5 -15.5t-9.5 -19.5t-7 -16q-2 -2 -8.5 -6.5t-6.5 -7.5q-1 -8 -8 -20.5t-8 -16.5q-2 -4 -12 -20.5t-10 -26.5q0 -1 -1.5 -2 t-1.5 -2q-3 -5 -18 -35q-4 -13 -6 -14q-9 -7 -14 -31q-5 -25 -9 -27q-9 -5 -13.5 -18t-6.5 -16q-8 -10 -12 -39q-1 -7 -8.5 -17t-8.5 -14l-22 -66q0 -10 -2 -14q-1 -2 -6.5 -16t-6.5 -21q-8 -34 -16 -49q-2 -4 -8 -47l-6 -39q-1 -3 -6.5 -21.5t-6.5 -27.5q0 -16 -2.5 -44.5 t-2.5 -52zM348 1718q-3 5 3.5 18.5t17.5 20.5q4 25 30 12q24 -9 43.5 -41.5t10.5 -46.5q-5 -9 -15 -16q-18 -10 -51 14zM602 1714q-16 16 10 47q2 12 17.5 16t32.5 -3q28 -10 47 -44.5t8 -50.5q-2 -5 -15 -18h-2q-8 -4 -10 -4q-15 -2 -32 7t-21 22q-3 10 -8 12q-6 4 -15.5 9 t-11.5 7z" />
<glyph unicode="&#xd7;" horiz-adv-x="847" d="M63 424q-5 7 11 61q16 45 18 74q3 45 250 277l-68 86q-11 8 -34 33t-33 28q-17 7 -41.5 43.5t-30.5 54.5q-2 6 -2 25q2 2 4 2q34 25 77 26t71 -28q60 -70 151 -186q5 5 25 20q5 5 9 8l5 4q6 0 31 25l2 2l10 10v2q6 12 17 15h2v2q6 4 14 12l6 6l-2 2l8 8q19 14 37 35 q3 6 18 21q9 6 15 12l8 8q2 1 6 2t6 2q7 0 9 2q1 0 3 1t3 1q13 11 45 2q12 -4 16 -8q13 -7 14.5 -24t-8.5 -29q-4 -8 -6 -10l-6 -11q-4 -10 -16 -30l-9 -15q-2 -1 -5 -4t-5 -4l-8 -8l-55 -55h-2v-2l-7 -4v-3q-20 -18 -100 -98q38 -50 96 -122t140 -179q22 -25 6 -55 q-26 24 -90 64t-90 65q-33 31 -64 57.5t-48 42.5t-38 39l-12 -12q-2 2 0 4q2 8 10 24q-64 -68 -88 -88q-10 -10 -10 -14q2 0 6 1t6 1q-4 -4 -4 -8q-93 -97 -94 -98q-22 -25 -76 -97q-13 -21 -21 -26q-11 -4 -33.5 -3t-39.5 7q-2 1 -5 2t-4 2zM377 678q17 22 29 31 q-2 -4 -9 -11z" />
<glyph unicode="&#xd8;" horiz-adv-x="677" d="M23 385q-5 37 4 139q1 20 16 123q10 44 16 58q12 28 19 71l4 8q6 8 10.5 26t5.5 21q6 17 23 56q1 2 6 9.5t6 12.5q5 23 14 29q3 2 9 31q0 6 2 8l24 41q2 5 6.5 14.5t6.5 14.5q5 8 10.5 24.5t7.5 20.5q5 8 14.5 21t12.5 17q1 2 2 6.5t2 6.5l30 51q6 9 15 18q14 10 14 25 q-1 1 0.5 4t1.5 4q21 23 45 58q1 2 2 6.5t2 5.5q22 26 33 41q7 7 10 16q1 1 7.5 16.5t11.5 22.5q6 8 24 12t27 17q3 6 29 16q12 2 39 2q11 0 14.5 -4.5t3.5 -15.5q0 -5 6 -29q1 -3 4.5 -20t7.5 -25l2 -4l48 121l6 14q16 37 12 61q0 1 1 2.5t1 2.5q9 9 -2 14q-4 6 -3.5 8 t5.5 12l4 4q7 14 21 35h6q20 2 26 21q6 25 0 35l9 -2q2 0 4.5 -1t3.5 -1q8 -2 7 -5q-1 -2 2 -3q1 -1 3 -1q10 -2 21 -10q25 -19 22 -49q-3 -46 -35 -102q-2 -4 -14 -33l-6 -19q-1 -3 -9.5 -24t-24 -60.5t-28.5 -72.5l-30 -76q12 -24 10 -39q0 -9 4 -21v-45q-1 -9 -4 -26.5 t-4 -26.5l-6 -51q0 -12 -2 -16q0 -2 -3.5 -11t-3.5 -14l-18 -109q0 -4 -4 -8q0 -1 -2 -3t-2 -3q6 -15 -1.5 -39.5t-6.5 -34.5v-28q0 -20 -2 -21q-9 -4 -13 -26q-3 -33 -12 -72l-25 -98q-6 -23 -16 -47v-7q-2 -8 -5 -22t-6 -25.5t-7 -21.5q-1 -3 -10 -19.5t-11 -25.5 q-1 -2 -6 -10t-6 -13q-1 -3 -5 -13.5t-7.5 -16.5t-8.5 -11q-2 -2 -2.5 -7.5t-1.5 -6.5q-11 -25 -20 -39q-15 -29 -41 -66l-13 -18q-15 -21 -30 -39q-9 -12 -19 -22q-8 -7 -25 -18t-20 -13q-1 -1 -3 -2q-3 -1 -3 -2q-4 -6 -11 -9t-12 -3t-14.5 0.5t-13.5 0.5q-9 0 -18 3 q-9 0 -13 2l-10 8q-41 -119 -43 -127q-20 -85 -23 -113q-3 -23 -8 -31q-1 -2 -3 -4q-3 -4 -4.5 -5.5t-6 -2.5t-14.5 -2h-11q-8 5 -12 45q-10 60 -14 70q-12 28 63 241l-2 5q-9 12 -19.5 37t-13.5 30q-5 7 -10 22t-10 21q-3 4 -4 9.5t-1 13t-1 10.5q-5 13 -6.5 26.5t-2.5 36 t-1 27.5zM139 262q24 65 47 117q6 14 9 14q6 6 16 37l6 14l-2 2q0 11 8 19l2 2l6 16l2 9h-2l5 10q9 22 16 45q0 8 8 24l6 17l25 82q1 3 4 9t4 9l12 29q7 12 56 114l6 17q6 14 51 131q2 7 5.5 16t5.5 15.5t3 9.5l74 186l-2 -2q-24 -23 -31 -41q-2 -8 -9.5 -19.5t-10.5 -17.5 q-3 -8 -17 -24t-16 -29l-2 -2q-7 -2 -11 -7t-7 -12.5t-5 -9.5q-5 -7 -9.5 -15.5t-9.5 -19.5t-7 -16q-2 -2 -8.5 -6.5t-6.5 -7.5q-1 -8 -8 -20.5t-8 -16.5q-2 -4 -12 -20.5t-10 -26.5q0 -1 -1.5 -2t-1.5 -2q-3 -5 -18 -35q-4 -13 -6 -14q-9 -7 -14 -31q-5 -25 -9 -27 q-9 -5 -13.5 -18t-6.5 -16q-8 -10 -12 -39q-1 -7 -8.5 -17t-8.5 -14l-22 -66q0 -10 -2 -14q-1 -2 -6.5 -16t-6.5 -21q-8 -34 -16 -49q-2 -4 -8 -47l-6 -39q-1 -3 -6.5 -21.5t-6.5 -27.5q0 -13 -3 -53t-1 -62zM221 221q12 19 27 27q20 10 24 35l4 4q1 3 7.5 11t7.5 13 q2 13 22 23q13 3 13 14q0 15 12 27q3 3 8 22q0 15 2 17q6 4 9.5 9.5t6.5 14t5 11.5q0 4 2 4q14 8 14 32q0 11 2 13q12 7 16 37l1 5q1 6 3 9t7 6q4 0 4 12q-2 13 10 33q4 12 8 18q6 22 8 27q4 13 2 17q-8 8 5 14q3 3 8 18l6 31q2 4 5 12.5t5 12.5q1 1 2 2.5t2 2.5t2 1 q15 -2 15 12v27q0 5 1 12t1 8q16 8 16 10q6 14 2 29q-3 28 14 55q0 1 1 4t1 5q1 4 6 37t11 49v4l-8 14l-4 -8l-29 -76q-38 -93 -41 -98l-109 -242v-2q-5 -9 -14 -35l-18 -49l-4 -10q-3 -6 -6.5 -16t-10 -26t-10.5 -28v-2q0 -4 -2 -6l-2 -2z" />
<glyph unicode="&#xd9;" horiz-adv-x="714" d="M42.5 513.5q6.5 193.5 47.5 385.5q26 122 40.5 186.5t44.5 170.5t67 206q14 45 49 4q14 -19 16.5 -51.5t-4 -71t-15.5 -74t-19 -74t-13 -58.5q-4 -33 -28 -132.5t-25 -150.5q0 -54 -17 -127q-23 -100 -32.5 -308t12.5 -247q12 -15 19.5 -14.5t31.5 18.5q43 33 100 166 q23 43 89 251.5t142 457.5t105 331q27 76 27 103q-1 27 28 17q36 -13 64 -56q21 -31 23.5 -66t-8 -69.5t-24 -67.5t-25.5 -70.5t-11 -66.5q0 -22 -21.5 -59t-21.5 -56q-19 -60 -61.5 -197.5t-71 -227t-69 -200t-74.5 -180.5q-29 -58 -69 -98.5t-73 -40.5q-61 -1 -114 45.5 t-82 128.5q-34 99 -27.5 292.5zM399 1823q-4 12 4 23t17 16.5t12 5.5t6.5 -3.5l8 -8t6.5 -5.5h11q12 0 19 -6q5 -3 17.5 -20t30.5 -43t30 -41q6 -7 14.5 -16.5t15 -17t14.5 -17t12.5 -16t9.5 -14t4.5 -11.5t-2.5 -9q-11 -11 -30.5 -16t-31.5 -2q-5 1 -9.5 6t-10 14t-9.5 17 t-9.5 19.5t-8.5 17.5q-13 28 -92 71q-13 7 -17.5 14.5t-6.5 20.5t-5 21z" />
<glyph unicode="&#xda;" horiz-adv-x="714" d="M42.5 513.5q6.5 193.5 47.5 385.5q26 122 40.5 186.5t44.5 170.5t67 206q14 45 49 4q14 -19 16.5 -51.5t-4 -71t-15.5 -74t-19 -74t-13 -58.5q-4 -33 -28 -132.5t-25 -150.5q0 -54 -17 -127q-23 -100 -32.5 -308t12.5 -247q12 -15 19.5 -14.5t31.5 18.5q43 33 100 166 q23 43 89 251.5t142 457.5t105 331q27 76 27 103q-1 27 28 17q36 -13 64 -56q21 -31 23.5 -66t-8 -69.5t-24 -67.5t-25.5 -70.5t-11 -66.5q0 -22 -21.5 -59t-21.5 -56q-19 -60 -61.5 -197.5t-71 -227t-69 -200t-74.5 -180.5q-29 -58 -69 -98.5t-73 -40.5q-61 -1 -114 45.5 t-82 128.5q-34 99 -27.5 292.5zM395 1683q1 5 6 10t14 10.5t16.5 9.5t19.5 10.5t18 9.5q8 5 15.5 13t15 20t12.5 21t13 23t10 19q6 14 13 19t20 7t20 5q17 6 32 -8.5t15 -22.5q0 -2 -6.5 -10t-7.5 -11l-1 -10q-1 -11 -6 -18q-4 -6 -20 -19.5t-40.5 -33t-37.5 -31.5 q-9 -8 -23 -22t-23 -22.5t-21.5 -19t-18 -11.5t-12.5 1q-11 10 -18 29t-5 32z" />
<glyph unicode="&#xdb;" horiz-adv-x="714" d="M42.5 513.5q6.5 193.5 47.5 385.5q26 122 40.5 186.5t44.5 170.5t67 206q14 45 49 4q14 -19 16.5 -51.5t-4 -71t-15.5 -74t-19 -74t-13 -58.5q-4 -33 -28 -132.5t-25 -150.5q0 -54 -17 -127q-23 -100 -32.5 -308t12.5 -247q12 -15 19.5 -14.5t31.5 18.5q43 33 100 166 q23 43 89 251.5t142 457.5t105 331q27 76 27 103q-1 27 28 17q36 -13 64 -56q21 -31 23.5 -66t-8 -69.5t-24 -67.5t-25.5 -70.5t-11 -66.5q0 -22 -21.5 -59t-21.5 -56q-19 -60 -61.5 -197.5t-71 -227t-69 -200t-74.5 -180.5q-29 -58 -69 -98.5t-73 -40.5q-61 -1 -114 45.5 t-82 128.5q-34 99 -27.5 292.5zM354 1626q-3 6 3 20.5t13 25.5l7 11l104 99v16q-3 -4 -8 -9.5t-18 -19t-17.5 -15.5t-7.5 1q0 4 6 11.5t14 15.5t18.5 17.5t18.5 16t17 13.5t10 8l2 2q16 7 34 6t30 -8q3 -2 6 -8t4.5 -16t2.5 -18t2.5 -21t2.5 -19q1 -10 9.5 -24t15.5 -22.5 t22 -24.5t17 -19q9 -11 11 -19t-0.5 -20t-2.5 -20q0 -12 -10 -20t-20 -10t-13 -1q-3 0 -5.5 4t-5.5 9.5t-4 6.5q-10 10 -22 25q-1 1 -5 5.5t-7.5 10.5t-6.5 15l-39 63q-1 2 -2 4.5t-4 9t-5 7.5t-5 0q-80 -92 -94 -115l-29 -35q-31 29 -39 41z" />
<glyph unicode="&#xdc;" horiz-adv-x="714" d="M42.5 513.5q6.5 193.5 47.5 385.5q26 122 40.5 186.5t44.5 170.5t67 206q14 45 49 4q14 -19 16.5 -51.5t-4 -71t-15.5 -74t-19 -74t-13 -58.5q-4 -33 -28 -132.5t-25 -150.5q0 -54 -17 -127q-23 -100 -32.5 -308t12.5 -247q12 -15 19.5 -14.5t31.5 18.5q43 33 100 166 q23 43 89 251.5t142 457.5t105 331q27 76 27 103q-1 27 28 17q36 -13 64 -56q21 -31 23.5 -66t-8 -69.5t-24 -67.5t-25.5 -70.5t-11 -66.5q0 -22 -21.5 -59t-21.5 -56q-19 -60 -61.5 -197.5t-71 -227t-69 -200t-74.5 -180.5q-29 -58 -69 -98.5t-73 -40.5q-61 -1 -114 45.5 t-82 128.5q-34 99 -27.5 292.5zM330 1737q-3 5 3 18.5t17 20.5q4 26 31 12q24 -9 43 -41.5t10 -46.5q-6 -12 -14 -17q-17 -9 -51 15zM584 1733q-16 16 10 47q2 12 17 15.5t32 -3.5q28 -10 47 -44t8 -50q-3 -8 -14 -19h-2q-8 -4 -10 -4q-16 -2 -33 7t-21 22q-3 10 -8 12 q-5 3 -11 7t-9.5 6t-5.5 4z" />
<glyph unicode="&#xdd;" horiz-adv-x="679" d="M2 35q-7 -32 12 -49q25 -25 39 -35q26 -22 39 -31q12 -8 31.5 -3t19.5 15q6 43 9 76q0 14 1.5 28.5t6 31t7 26.5t9 30.5t8.5 27.5q4 14 16.5 44t16.5 46q14 43 49 157q7 17 47.5 135t44.5 134q6 20 17.5 62.5t17.5 62.5q2 6 7 17.5t8 20.5t2 17q0 20 18 51q21 38 76 117 q82 112 98 135q25 34 67 97t56 83q40 58 47 70q14 23 28.5 49t32 57.5t27.5 48.5q27 50 51 99q13 26 15 37q1 7 -1 13t-8 12t-9 8.5t-13 9.5t-12 8q-25 17 -43 -10l-49 -76q-4 -6 -13.5 -17.5t-13.5 -17.5l-72 -96q-17 -20 -28 -37l-60 -86q-11 -15 -24 -30.5t-28 -34 t-24 -29.5l-129 -176l-10 -7q1 7 2 21t2 20q4 100 8 144v73q5 118 5 138q1 22 -1.5 66t-1.5 67q2 22 -16 45.5t-43 30.5q-22 6 -22 -11q-1 -6 -1.5 -17t-1.5 -17q-4 -52 -8 -76q-4 -44 -8 -62q0 -2 -12 -55l-6 -70q-2 -20 -6.5 -57.5t-6.5 -56.5q0 -4 -6 -52l-6 -57 q-5 -58 -6 -70q-12 -86 -16 -129q0 -12 16 -32q9 -12 22 -25q3 -6 3 -12l-37 -105q-5 -16 -13.5 -49.5t-13.5 -50.5q-37 -115 -113 -315q-29 -94 -41 -138q-31 -99 -41 -139q-4 -17 -9 -50t-9 -50zM524 1868q1 5 6 9.5t13.5 10t16.5 9.5t20 10.5t18 9.5q8 5 15.5 13t15 20 t12.5 21t13 23t10 19q6 14 13 19t20 7t20 5q17 6 32 -8.5t15 -22.5q0 -2 -6.5 -9.5t-7.5 -10.5l-1 -11q-1 -11 -6 -18q-4 -6 -20 -19.5t-40.5 -33t-37.5 -31.5q-9 -8 -23 -22t-23 -22.5t-21.5 -19t-18 -11.5t-12.5 1q-11 10 -18 29.5t-5 32.5z" />
<glyph unicode="&#xe0;" d="M-60 37q-3 22 5 72q4 22 22 65t32.5 77.5t15 70t-24.5 51.5q-12 6 -24.5 18.5t-18.5 24.5q-14 20 11.5 36t63.5 28t44 18q28 11 40 30q38 59 74.5 138t52.5 108q14 11 56 104t96 222.5t61 146.5q24 57 95.5 149.5t99.5 141.5q103 175 125 90q5 -16 -14.5 -67t-8.5 -72 q12 -21 -20 -146q-28 -111 -56.5 -305.5t-56.5 -424t-39 -304.5q-8 -101 -14.5 -159t-15.5 -94.5t-19.5 -48t-27.5 -9.5q-14 2 -21 9.5t-10 38t-2 79t6 143.5q2 51 4.5 114.5t3.5 92.5t0 31q-4 8 -127 -35q-76 -26 -101.5 -42.5t-39.5 -47.5q-17 -37 -61.5 -166t-63.5 -195 q-22 -72 -44.5 -78.5t-68.5 46.5q-26 27 -29 49zM295 604q-2 -14 5.5 -18t33.5 -4q24 1 67 17.5t62 16.5q25 -4 31 9q3 41 31.5 262.5t37.5 234.5q17 29 7 45q-7 10 -15 -3q-2 -5 -4 -13q-13 -50 -71 -143t-72 -134q-7 -18 -59.5 -127.5t-53.5 -142.5zM629 1968q-4 12 4 23 t17 16.5t12 5.5t6.5 -3t7.5 -7.5t6 -5.5h12q12 0 19 -6q5 -3 17.5 -20.5t30.5 -43t30 -41.5q6 -7 14.5 -16.5t15 -16.5t14.5 -16.5t12.5 -16t9 -14.5t4 -11.5t-2.5 -8.5q-11 -11 -30.5 -16.5t-30.5 -2.5q-5 1 -9.5 6t-10 14t-9.5 17t-9.5 19.5t-8.5 17.5q-14 28 -93 72 q-13 7 -17.5 14.5t-6 20t-4.5 20.5z" />
<glyph unicode="&#xe1;" d="M-60 37q-3 22 5 72q4 22 22 65t32.5 77.5t15 70t-24.5 51.5q-12 6 -24.5 18.5t-18.5 24.5q-14 20 11.5 36t63.5 28t44 18q28 11 40 30q38 59 74.5 138t52.5 108q14 11 56 104t96 222.5t61 146.5q24 57 95.5 149.5t99.5 141.5q103 175 125 90q5 -16 -14.5 -67t-8.5 -72 q12 -21 -20 -146q-28 -111 -56.5 -305.5t-56.5 -424t-39 -304.5q-8 -101 -14.5 -159t-15.5 -94.5t-19.5 -48t-27.5 -9.5q-14 2 -21 9.5t-10 38t-2 79t6 143.5q2 51 4.5 114.5t3.5 92.5t0 31q-4 8 -127 -35q-76 -26 -101.5 -42.5t-39.5 -47.5q-17 -37 -61.5 -166t-63.5 -195 q-22 -72 -44.5 -78.5t-68.5 46.5q-26 27 -29 49zM295 604q-2 -14 5.5 -18t33.5 -4q24 1 67 17.5t62 16.5q25 -4 31 9q3 41 31.5 262.5t37.5 234.5q17 29 7 45q-7 10 -15 -3q-2 -5 -4 -13q-13 -50 -71 -143t-72 -134q-7 -18 -59.5 -127.5t-53.5 -142.5zM625 1829q1 5 6 9.5 t13.5 10t16 9.5t19.5 10.5t18 9.5q8 5 15.5 13t15 20t12.5 21t13 23t10 19q6 14 13 19t20 7t20 5q17 6 32 -8.5t15 -22.5q0 -2 -6.5 -9.5t-7.5 -10.5v-11q-1 -11 -6 -18q-4 -6 -20 -20t-41 -33t-38 -31q-9 -8 -23 -22t-23 -22.5t-21.5 -19t-18 -11.5t-12.5 1 q-11 10 -17.5 29.5t-4.5 32.5z" />
<glyph unicode="&#xe2;" d="M-60 37q-3 22 5 72q4 22 22 65t32.5 77.5t15 70t-24.5 51.5q-12 6 -24.5 18.5t-18.5 24.5q-14 20 11.5 36t63.5 28t44 18q28 11 40 30q38 59 74.5 138t52.5 108q14 11 56 104t96 222.5t61 146.5q24 57 95.5 149.5t99.5 141.5q103 175 125 90q5 -16 -14.5 -67t-8.5 -72 q12 -21 -20 -146q-28 -111 -56.5 -305.5t-56.5 -424t-39 -304.5q-8 -101 -14.5 -159t-15.5 -94.5t-19.5 -48t-27.5 -9.5q-14 2 -21 9.5t-10 38t-2 79t6 143.5q2 51 4.5 114.5t3.5 92.5t0 31q-4 8 -127 -35q-76 -26 -101.5 -42.5t-39.5 -47.5q-17 -37 -61.5 -166t-63.5 -195 q-22 -72 -44.5 -78.5t-68.5 46.5q-26 27 -29 49zM295 604q-2 -14 5.5 -18t33.5 -4q24 1 67 17.5t62 16.5q25 -4 31 9q3 41 31.5 262.5t37.5 234.5q17 29 7 45q-7 10 -15 -3q-2 -5 -4 -13q-13 -50 -71 -143t-72 -134q-7 -18 -59.5 -127.5t-53.5 -142.5zM584 1772 q-3 6 2.5 20.5t12.5 25.5l7 11l105 98v17q-3 -4 -8 -9.5t-18.5 -19t-18 -15.5t-7.5 1q1 5 8 14t19 20t22 19t22 17.5t13 10.5l2 3q16 7 34 5.5t30 -8.5q3 -2 6 -8t4.5 -15.5t2.5 -17.5t2.5 -21t2.5 -19q1 -8 6 -18t13 -20.5t14.5 -18.5t17 -19t13.5 -15q9 -11 11 -19 t-0.5 -20t-2.5 -20q0 -12 -10 -20t-20 -10t-13 -1q-3 0 -5.5 4.5t-5 10t-3.5 6.5q-19 19 -23 24q-1 1 -5 5.5t-7 10.5t-6 15l-39 64q-1 2 -2 4.5t-4.5 8.5t-5.5 7t-5 0q-80 -92 -94 -115l-28 -34q-31 29 -39 41z" />
<glyph unicode="&#xe3;" d="M-60 37q-3 22 5 72q4 22 22 65t32.5 77.5t15 70t-24.5 51.5q-12 6 -24.5 18.5t-18.5 24.5q-14 20 11.5 36t63.5 28t44 18q28 11 40 30q38 59 74.5 138t52.5 108q14 11 56 104t96 222.5t61 146.5q24 57 95.5 149.5t99.5 141.5q103 175 125 90q5 -16 -14.5 -67t-8.5 -72 q12 -21 -20 -146q-28 -111 -56.5 -305.5t-56.5 -424t-39 -304.5q-8 -101 -14.5 -159t-15.5 -94.5t-19.5 -48t-27.5 -9.5q-14 2 -21 9.5t-10 38t-2 79t6 143.5q2 51 4.5 114.5t3.5 92.5t0 31q-4 8 -127 -35q-76 -26 -101.5 -42.5t-39.5 -47.5q-17 -37 -61.5 -166t-63.5 -195 q-22 -72 -44.5 -78.5t-68.5 46.5q-26 27 -29 49zM295 604q-2 -14 5.5 -18t33.5 -4q24 1 67 17.5t62 16.5q25 -4 31 9q3 41 31.5 262.5t37.5 234.5q17 29 7 45q-7 10 -15 -3q-2 -5 -4 -13q-13 -50 -71 -143t-72 -134q-7 -18 -59.5 -127.5t-53.5 -142.5zM557 1815q-33 27 4 57 q-4 4 -4 10q0 11 28.5 26.5t65.5 22.5q23 4 47.5 -6t42.5 -23.5t19 -13.5q24 -6 53 -2l27 19q4 3 9 7t11.5 9t9.5 8l25 21q15 10 23 14q4 4 12 8q1 0 3 -1t3 -1q8 -8 8 -37v-14q0 -14 -6 -18q-3 -2 -7 -9t-5 -8q-3 -4 -11.5 -12t-11.5 -14q-9 -12 -26 -25q-2 -2 -5.5 -4 t-6.5 -3.5t-5 -4.5t-2 -6q-7 -4 -19 -6t-20 -1h-8l-25 2q-6 -8 -14 -8q-8 2 -55 35q-11 7 -32.5 14t-33.5 4q-4 0 -8 -2q-35 -28 -35 -36q-6 -24 -14 -25h-2q-5 1 -18.5 11t-16.5 12z" />
<glyph unicode="&#xe4;" d="M-60 37q-3 22 5 72q4 22 22 65t32.5 77.5t15 70t-24.5 51.5q-12 6 -24.5 18.5t-18.5 24.5q-14 20 11.5 36t63.5 28t44 18q28 11 40 30q38 59 74.5 138t52.5 108q14 11 56 104t96 222.5t61 146.5q24 57 95.5 149.5t99.5 141.5q103 175 125 90q5 -16 -14.5 -67t-8.5 -72 q12 -21 -20 -146q-28 -111 -56.5 -305.5t-56.5 -424t-39 -304.5q-8 -101 -14.5 -159t-15.5 -94.5t-19.5 -48t-27.5 -9.5q-14 2 -21 9.5t-10 38t-2 79t6 143.5q2 51 4.5 114.5t3.5 92.5t0 31q-4 8 -127 -35q-76 -26 -101.5 -42.5t-39.5 -47.5q-17 -37 -61.5 -166t-63.5 -195 q-22 -72 -44.5 -78.5t-68.5 46.5q-26 27 -29 49zM295 604q-2 -14 5.5 -18t33.5 -4q24 1 67 17.5t62 16.5q25 -4 31 9q3 41 31.5 262.5t37.5 234.5q17 29 7 45q-7 10 -15 -3q-2 -5 -4 -13q-13 -50 -71 -143t-72 -134q-7 -18 -59.5 -127.5t-53.5 -142.5zM559 1882 q-3 5 3.5 18.5t17.5 20.5q4 25 30 12q24 -9 43.5 -41.5t10.5 -46.5q-4 -9 -15 -16q-18 -10 -51 14zM813 1878q-16 16 10 47q2 12 17 15.5t32 -3.5q28 -10 47.5 -44t8.5 -50q-2 -5 -15 -18h-2q-8 -4 -10 -4q-16 -2 -32.5 6.5t-20.5 21.5q-4 11 -8 13q-6 4 -15.5 9t-11.5 7z " />
<glyph unicode="&#xe5;" horiz-adv-x="780" d="M-60 37q-3 22 5 72q4 22 22 65t32.5 77.5t15 70t-24.5 51.5q-12 6 -24.5 18.5t-18.5 24.5q-14 20 11.5 36t63.5 28t44 18q28 11 40 30q38 59 74.5 138t52.5 108q14 11 56 104t96 222.5t61 146.5q24 57 95.5 149.5t99.5 141.5q103 175 125 90q5 -16 -14.5 -67t-8.5 -72 q12 -21 -20 -146q-28 -111 -56.5 -305.5t-56.5 -424t-39 -304.5q-8 -101 -14.5 -159t-15.5 -94.5t-19.5 -48t-27.5 -9.5q-14 2 -21 9.5t-10 38t-2 79t6 143.5q2 51 4.5 114.5t3.5 92.5t0 31q-4 8 -127 -35q-76 -26 -101.5 -42.5t-39.5 -47.5q-17 -37 -61.5 -166t-63.5 -195 q-22 -72 -44.5 -78.5t-68.5 46.5q-26 27 -29 49zM295 604q-2 -14 5.5 -18t33.5 -4q24 1 67 17.5t62 16.5q25 -4 31 9q3 41 31.5 262.5t37.5 234.5q17 29 7 45q-7 10 -15 -3q-2 -5 -4 -13q-13 -50 -71 -143t-72 -134q-7 -18 -59.5 -127.5t-53.5 -142.5zM693.5 1780.5 q-1.5 20.5 2.5 35.5t17 54q5 14 7.5 23t2.5 13t1 11t3 16q-2 11 45.5 60t58.5 45q15 0 43 -31q18 -23 23.5 -35.5t5.5 -36.5q0 -54 -43 -149q-2 -8 -16 -21q-20 -27 -52 -35t-55.5 -2.5t-29.5 13.5q-12 19 -13.5 39.5zM753 1771q19 7 62 75q34 53 41 85q6 21 6 29 q-4 3 -24.5 -17t-20.5 -26q0 -3 -1.5 -5t-4.5 -1q-5 0 -6.5 -0.5t-9.5 -14t-21 -41.5q-41 -91 -21 -84z" />
<glyph unicode="&#xe6;" horiz-adv-x="1228" d="M-62 54q-2 21 9 73q4 18 19 50t29 61.5t25 59.5t8.5 55t-22.5 38q-12 4 -24 17.5t-17 25.5q-13 19 13 35t66 28t46 17q32 18 41 33q41 58 81 136.5t58 107.5q9 7 32.5 49t54 105t58 120.5t56.5 120.5t37 80q26 55 102 146t109 144q99 154 125 92q2 -6 4 -14 q5 -15 -17 -66t-14 -71l27 -141q62 -12 78 -8q83 20 378 104l15 4q26 7 47 10q56 10 72 11q3 -5 -7 -29l-47 -27l17 -6q-55 -25 -109 -43q-31 -13 -92 -35q-89 -34 -125 -47q-43 -15 -55 -22l-23 -8q-89 -34 -127 -97q-8 -14 -26 -50.5t-35 -72t-31.5 -66.5t-15.5 -32 l-8 -20l20 8q45 19 227 92q7 0 11 2q29 4 82 27q1 0 4.5 1t5.5 1q6 2 18 2q12 -3 27 0q2 0 14 4l4 2l39 14q-2 -14 -10 -51q-21 -10 -59.5 -30.5t-49.5 -26.5q-31 -15 -133 -88q-63 -45 -88 -60q-43 -25 -45 -26l-37 -21q-6 -3 -23.5 -11t-25 -12t-20 -12.5t-20.5 -19 t-15 -23.5q-5 -11 -37.5 -99.5t-48.5 -137.5l-10 -35q0 -8 -5 -23q-4 -22 23 -43l2 -2q30 -25 53 -16q17 7 43 16q22 10 64 35q46 28 55 31l291 135q4 2 33 14q23 10 67 33q8 4 13 4q4 2 12 -2q11 -11 8 -33q-1 -6 -2 -20t-2 -21q-6 -2 -16 -2q-71 -13 -197 -90l-10 -8 q-13 -7 -166 -123q-38 -28 -107 -80t-90 -67q-10 -6 -35.5 -21.5t-38.5 -25.5q-4 -3 -51 -36.5t-67 -56.5q-4 -4 -4 0q-7 -6 -35 -6q-25 2 -22.5 48.5t38.5 224.5q46 235 45 237q-2 2 -110 -35q-77 -28 -104 -44.5t-40 -45.5q-21 -44 -73 -172t-72 -188q-25 -72 -48.5 -79 t-66.5 44q-25 29 -27 50zM324 623q-2 -16 4.5 -20t31.5 -3q24 1 58.5 17.5t54.5 17.5q37 -5 43 6q10 42 75 264.5t75 235.5q22 30 38 97q13 53 -4 48q-23 -7 -92 -119q-8 -12 -32.5 -50t-37 -58.5t-31.5 -53t-32.5 -60.5t-23.5 -54q-8 -19 -66.5 -127t-60.5 -141z" />
<glyph unicode="&#xe7;" horiz-adv-x="684" d="M-98 -146.5q-3 12.5 2 15.5q1 2 3.5 4.5t9 8.5t13 9t16 2.5t17.5 -6.5q40 -32 49 -73q0 -5 -4 -21q21 -6 51 -6l11 6l12 4l12 10l10 11l13 8l6 14l10 10l2 15l8 12l7 14l8 13l2 14l4 12l4 15l6 12l8 29l6 14v16l2 4q-77 -35 -133 33q-101 116 -98 277q3 157 72 321 q176 416 397 680q106 125 266 248q26 22 52 18t45 -32q15 -21 17.5 -27.5t-0.5 -14.5t1 -34q9 -49 -16 -90q-21 -36 -54 -43q-7 -1 -14 -4.5t-16 -10t-13 -8.5q-84 -46 -158 -113.5t-134 -152t-105.5 -163.5t-93.5 -179q-98 -195 -125 -319q-8 -58 -8 -89q-3 -54 21 -106.5 t46 -52.5q42 -2 105 45q56 37 143 100t111 80q20 14 66 62.5t67 62.5q25 17 41 14.5t35 -26.5q4 -6 7 3t7 3q12 -18 29 -4l55 47q13 -34 -21 -72q-221 -221 -503 -401l18 4l-2 -2q-12 -90 -36 -158.5t-50 -104t-55 -57t-48 -27t-30 -3.5q-9 0 -17 4h-14l-29 8l-16 4l-10 6 l-12 10l-11 8l-10 11l-12 8l-8 10l-11 10l-6 13l-8 12q-9 13 -12 25.5z" />
<glyph unicode="&#xe8;" horiz-adv-x="1011" d="M-47 162q-14 55 18 98q47 38 66 107q17 59 26 82l74 258q10 19 6 67l-24 166v4q68 33 92 41q42 19 61 53q18 31 58 101q7 13 45 141l4 18l-19 -4q-51 -8 -86 -8l-20 2q-6 3 -8 10q-3 9 -9 28t-8 26q-1 5 -6 19t-6 20q-2 6 -3 11.5t-1.5 9t-0.5 6.5v4.5v2.5l1 1v1 q0 4 20 15q47 19 103 28q111 19 268 35q33 3 108.5 11t171 19t132.5 15l14 2q16 2 51 2q51 0 76 -2h2q0 -15 -6 -30l-51 -21l14 -12q-5 -1 -47.5 -12t-64.5 -15q-14 -4 -103 -22q-79 -19 -135 -29q-48 -10 -59 -16q-13 -4 -23 -6q-94 -15 -139 -84q-11 -18 -39.5 -75 t-51.5 -105t-24 -52l-12 -24l22 8q226 59 246 59h12q60 7 86 14q2 0 6 2.5t7 2.5t10 -3t10 -4q16 -4 27 -4q3 0 8 1t8 1l4 2q8 1 22 5.5t21 5.5q-4 -35 -14 -58l-113 -43h-2q-47 -19 -143 -75q-66 -39 -96 -52q-7 -4 -15.5 -7.5t-17.5 -7t-14 -5.5q-14 -8 -41 -17 q-30 -11 -46 -17.5t-36.5 -23t-32.5 -38.5q-10 -22 -56 -149t-49 -146q-1 -4 -2 -12.5t-2 -12.5q-6 -24 23 -53q1 0 2 -2t2 -2q25 -25 59 -17q7 2 21.5 5.5t21.5 5.5q10 2 21 5.5t27 10.5t22 10q32 16 59 25q40 12 316 96q5 3 37 12q12 3 69 23q4 2 15 2q8 0 12 -4 q13 -13 10 -39q-3 -25 -8 -47q-4 2 -14 2q-19 0 -40 -3.5t-34 -6t-38.5 -12.5t-31.5 -12.5t-36.5 -16.5t-32.5 -15l-11 -6q-24 -10 -180 -108q-28 -17 -107 -66t-108 -65q-33 -19 -78 -52q-44 -29 -94 -84q-5 -5 -10.5 -9t-13.5 -8t-12.5 -6t-15.5 -6.5t-16 -6.5l-16 -7h-4 q-15 0 -35 39q-1 1 -6 11q-40 62 -49 94zM686 1876q-4 12 4 23t17 16.5t12 5.5t6.5 -3t7.5 -7.5t6 -5.5q4 -1 8 -0.5t11 -1t12 -5.5q5 -3 17.5 -20t30.5 -43t30 -41q6 -7 14.5 -16.5t15 -16.5t14.5 -16.5t12.5 -16t9 -14.5t4 -11.5t-2.5 -8.5q-11 -11 -30.5 -16.5 t-30.5 -2.5q-5 1 -9.5 6t-10 14t-9.5 17t-9.5 19.5t-8.5 17.5q-14 29 -92 72q-13 7 -17.5 14.5t-6.5 20t-5 20.5z" />
<glyph unicode="&#xe9;" horiz-adv-x="1011" d="M-47 162q-14 55 18 98q47 38 66 107q17 59 26 82l74 258q10 19 6 67l-24 166v4q68 33 92 41q42 19 61 53q18 31 58 101q7 13 45 141l4 18l-19 -4q-51 -8 -86 -8l-20 2q-6 3 -8 10q-3 9 -9 28t-8 26q-1 5 -6 19t-6 20q-2 6 -3 11.5t-1.5 9t-0.5 6.5v4.5v2.5l1 1v1 q0 4 20 15q47 19 103 28q111 19 268 35q33 3 108.5 11t171 19t132.5 15l14 2q16 2 51 2q51 0 76 -2h2q0 -15 -6 -30l-51 -21l14 -12q-5 -1 -47.5 -12t-64.5 -15q-14 -4 -103 -22q-79 -19 -135 -29q-48 -10 -59 -16q-13 -4 -23 -6q-94 -15 -139 -84q-11 -18 -39.5 -75 t-51.5 -105t-24 -52l-12 -24l22 8q226 59 246 59h12q60 7 86 14q2 0 6 2.5t7 2.5t10 -3t10 -4q16 -4 27 -4q3 0 8 1t8 1l4 2q8 1 22 5.5t21 5.5q-4 -35 -14 -58l-113 -43h-2q-47 -19 -143 -75q-66 -39 -96 -52q-7 -4 -15.5 -7.5t-17.5 -7t-14 -5.5q-14 -8 -41 -17 q-30 -11 -46 -17.5t-36.5 -23t-32.5 -38.5q-10 -22 -56 -149t-49 -146q-1 -4 -2 -12.5t-2 -12.5q-6 -24 23 -53q1 0 2 -2t2 -2q25 -25 59 -17q7 2 21.5 5.5t21.5 5.5q10 2 21 5.5t27 10.5t22 10q32 16 59 25q40 12 316 96q5 3 37 12q12 3 69 23q4 2 15 2q8 0 12 -4 q13 -13 10 -39q-3 -25 -8 -47q-4 2 -14 2q-19 0 -40 -3.5t-34 -6t-38.5 -12.5t-31.5 -12.5t-36.5 -16.5t-32.5 -15l-11 -6q-24 -10 -180 -108q-28 -17 -107 -66t-108 -65q-33 -19 -78 -52q-44 -29 -94 -84q-5 -5 -10.5 -9t-13.5 -8t-12.5 -6t-15.5 -6.5t-16 -6.5l-16 -7h-4 q-15 0 -35 39q-1 1 -6 11q-40 62 -49 94zM682 1737q1 5 6 9.5t13.5 10t16.5 9.5t20 10.5t18 9.5q9 6 19.5 19t16.5 23t16.5 30t12.5 24q6 14 13 19t20 7t20 5q17 6 32.5 -8.5t15.5 -22.5q0 -2 -7 -9.5t-8 -10.5l-1 -11q0 -11 -5 -18q-4 -6 -20 -19.5t-40.5 -33t-37.5 -31.5 q-9 -8 -23 -22t-23 -22.5t-21.5 -19t-18 -11.5t-12.5 1q-11 10 -18 29.5t-5 32.5z" />
<glyph unicode="&#xea;" horiz-adv-x="1011" d="M-47 162q-14 55 18 98q47 38 66 107q17 59 26 82l74 258q10 19 6 67l-24 166v4q68 33 92 41q42 19 61 53q18 31 58 101q7 13 45 141l4 18l-19 -4q-51 -8 -86 -8l-20 2q-6 3 -8 10q-3 9 -9 28t-8 26q-1 5 -6 19t-6 20q-2 6 -3 11.5t-1.5 9t-0.5 6.5v4.5v2.5l1 1v1 q0 4 20 15q47 19 103 28q111 19 268 35q33 3 108.5 11t171 19t132.5 15l14 2q16 2 51 2q51 0 76 -2h2q0 -15 -6 -30l-51 -21l14 -12q-5 -1 -47.5 -12t-64.5 -15q-14 -4 -103 -22q-79 -19 -135 -29q-48 -10 -59 -16q-13 -4 -23 -6q-94 -15 -139 -84q-11 -18 -39.5 -75 t-51.5 -105t-24 -52l-12 -24l22 8q226 59 246 59h12q60 7 86 14q2 0 6 2.5t7 2.5t10 -3t10 -4q16 -4 27 -4q3 0 8 1t8 1l4 2q8 1 22 5.5t21 5.5q-4 -35 -14 -58l-113 -43h-2q-47 -19 -143 -75q-66 -39 -96 -52q-7 -4 -15.5 -7.5t-17.5 -7t-14 -5.5q-14 -8 -41 -17 q-30 -11 -46 -17.5t-36.5 -23t-32.5 -38.5q-10 -22 -56 -149t-49 -146q-1 -4 -2 -12.5t-2 -12.5q-6 -24 23 -53q1 0 2 -2t2 -2q25 -25 59 -17q7 2 21.5 5.5t21.5 5.5q10 2 21 5.5t27 10.5t22 10q32 16 59 25q40 12 316 96q5 3 37 12q12 3 69 23q4 2 15 2q8 0 12 -4 q13 -13 10 -39q-3 -25 -8 -47q-4 2 -14 2q-19 0 -40 -3.5t-34 -6t-38.5 -12.5t-31.5 -12.5t-36.5 -16.5t-32.5 -15l-11 -6q-24 -10 -180 -108q-28 -17 -107 -66t-108 -65q-33 -19 -78 -52q-44 -29 -94 -84q-5 -5 -10.5 -9t-13.5 -8t-12.5 -6t-15.5 -6.5t-16 -6.5l-16 -7h-4 q-15 0 -35 39q-1 1 -6 11q-40 62 -49 94zM641 1679q-3 6 3 20.5t13 26.5l7 11l104 98v16q-3 -4 -8 -9.5t-18 -19t-17.5 -15.5t-7.5 1q0 4 6 11.5t14 15.5t18.5 17.5t18.5 16t17 13.5t10 8l2 2q16 7 33.5 6t29.5 -8q3 -2 6 -7.5t5 -16.5t3 -17.5t3 -21.5t2 -19 q1 -8 5.5 -17.5t13 -20.5t14.5 -18.5t16.5 -19t13.5 -14.5q9 -11 11 -19t-0.5 -20t-2.5 -20q0 -12 -10 -20t-20 -10t-13 -1q-3 0 -5.5 4.5t-5 10t-3.5 6.5q-14 14 -22 24q-1 1 -5 5.5t-7.5 10.5t-6.5 15l-39 63q-1 2 -2 4.5t-4 9t-5 7.5t-5 0q-80 -92 -94 -115l-29 -35 q-31 29 -39 41z" />
<glyph unicode="&#xeb;" horiz-adv-x="1011" d="M-47 162q-14 55 18 98q47 38 66 107q17 59 26 82l74 258q10 19 6 67l-24 166v4q68 33 92 41q42 19 61 53q18 31 58 101q7 13 45 141l4 18l-19 -4q-51 -8 -86 -8l-20 2q-6 3 -8 10q-3 9 -9 28t-8 26q-1 5 -6 19t-6 20q-2 6 -3 11.5t-1.5 9t-0.5 6.5v4.5v2.5l1 1v1 q0 4 20 15q47 19 103 28q111 19 268 35q33 3 108.5 11t171 19t132.5 15l14 2q16 2 51 2q51 0 76 -2h2q0 -15 -6 -30l-51 -21l14 -12q-5 -1 -47.5 -12t-64.5 -15q-14 -4 -103 -22q-79 -19 -135 -29q-48 -10 -59 -16q-13 -4 -23 -6q-94 -15 -139 -84q-11 -18 -39.5 -75 t-51.5 -105t-24 -52l-12 -24l22 8q226 59 246 59h12q60 7 86 14q2 0 6 2.5t7 2.5t10 -3t10 -4q16 -4 27 -4q3 0 8 1t8 1l4 2q8 1 22 5.5t21 5.5q-4 -35 -14 -58l-113 -43h-2q-47 -19 -143 -75q-66 -39 -96 -52q-7 -4 -15.5 -7.5t-17.5 -7t-14 -5.5q-14 -8 -41 -17 q-30 -11 -46 -17.5t-36.5 -23t-32.5 -38.5q-10 -22 -56 -149t-49 -146q-1 -4 -2 -12.5t-2 -12.5q-6 -24 23 -53q1 0 2 -2t2 -2q25 -25 59 -17q7 2 21.5 5.5t21.5 5.5q10 2 21 5.5t27 10.5t22 10q32 16 59 25q40 12 316 96q5 3 37 12q12 3 69 23q4 2 15 2q8 0 12 -4 q13 -13 10 -39q-3 -25 -8 -47q-4 2 -14 2q-19 0 -40 -3.5t-34 -6t-38.5 -12.5t-31.5 -12.5t-36.5 -16.5t-32.5 -15l-11 -6q-24 -10 -180 -108q-28 -17 -107 -66t-108 -65q-33 -19 -78 -52q-44 -29 -94 -84q-5 -5 -10.5 -9t-13.5 -8t-12.5 -6t-15.5 -6.5t-16 -6.5l-16 -7h-4 q-15 0 -35 39q-1 1 -6 11q-40 62 -49 94zM616 1790q-3 5 3.5 18.5t17.5 20.5q4 26 31 12q24 -9 43 -41.5t10 -46.5q-5 -10 -14 -16q-18 -10 -52 14zM870 1786q-16 16 11 47q2 12 17 15.5t32 -3.5q28 -10 47 -44t8 -50q-3 -7 -14 -18h-2q-8 -4 -11 -4q-16 -2 -32.5 6.5 t-20.5 21.5q-3 10 -8 12q-5 3 -11 6.5t-10 6t-6 4.5z" />
<glyph unicode="&#xec;" horiz-adv-x="512" d="M0 0q29 392 121 786t241 842q114 -65 87 -184q-13 -50 -41.5 -149.5t-42.5 -149.5q-156 -576 -199 -731q-12 -42 -109 -344q-12 -42 -57 -70zM371 2021q-8 24 13 44t32 20q5 0 15 -11t11 -12q5 -1 10.5 0t15 -1t17.5 -7t25.5 -29t43.5 -60.5t42 -57.5q9 -12 44 -51 t46.5 -60t1.5 -31q-14 -16 -40.5 -22.5t-45.5 -1.5q-7 1 -13.5 8t-13.5 20t-12 23t-13 28t-11 25q-6 11 -16.5 22.5t-27 22.5l-28.5 19t-32 19.5t-27 15.5q-14 9 -21 18t-8.5 15.5t-3 20t-4.5 23.5z" />
<glyph unicode="&#xed;" horiz-adv-x="493" d="M0 0q27 390 119.5 783t242.5 845q114 -65 84 -184q-11 -44 -24.5 -94.5t-30.5 -110t-26 -94.5q-34 -122 -99.5 -365.5t-99.5 -365.5q-12 -42 -109 -344q-15 -44 -57 -70zM303 1821q1 11 16 22.5t45 27t39 21.5q11 7 22 18t22 28.5t17 28.5t17.5 33.5t14.5 27.5 q9 19 18 25.5t27.5 10t29.5 7.5q22 8 42.5 -11.5t23.5 -31.5q0 -4 -10 -14.5t-11 -14.5q-1 -2 -1 -17.5t-7 -25.5q-4 -8 -27 -26.5t-57.5 -46t-54.5 -44.5q-9 -9 -22 -21.5t-23 -22.5t-22.5 -22t-21 -19t-18.5 -14t-15.5 -6.5t-12.5 3.5q-18 14 -26 39.5t-5 44.5z" />
<glyph unicode="&#xee;" horiz-adv-x="485" d="M0 0q27 390 119.5 783t242.5 845q114 -65 84 -184q-11 -44 -24.5 -94.5t-30.5 -110t-26 -94.5q-34 -122 -99.5 -365.5t-99.5 -365.5q-12 -42 -109 -344q-15 -44 -57 -70zM203 1778q-4 9 3.5 29t17.5 35l9 16l148 137v22l-44 -45q-30 -28 -28 -12q4 26 119 115l2 2 q22 10 46.5 8t39.5 -10q9 -5 14 -23t9 -50t6 -42q1 -8 4.5 -17.5t10.5 -20.5t12 -18.5t16 -20.5t15 -18t16.5 -18.5t13.5 -15.5q13 -15 15.5 -26t-1.5 -27.5t-4 -28.5q0 -24 -24.5 -35t-34.5 -8q-5 1 -11 14t-8 15q-15 10 -33 34q-1 1 -5 5.5t-6.5 8t-6 11.5t-6.5 18l-55 91 q-1 2 -2.5 5.5t-6 12t-7.5 9.5t-7 -1q-110 -129 -133 -160q-9 -14 -18.5 -26t-14.5 -17l-6 -6q-43 40 -55 58z" />
<glyph unicode="&#xef;" horiz-adv-x="485" d="M0 0q27 390 119.5 783t242.5 845q114 -65 84 -184q-11 -44 -24.5 -94.5t-30.5 -110t-26 -94.5q-34 -122 -99.5 -365.5t-99.5 -365.5q-12 -42 -109 -344q-15 -44 -57 -70zM152 1898q-7 7 1.5 26t26.5 30q3 34 41 16q35 -13 61.5 -58.5t14.5 -66.5q-8 -13 -18 -20 q-31 -16 -72 20q-18 16 -55 53zM508 1894q-24 24 12 64q1 18 24 23.5t46 -5.5q39 -17 66 -64t12 -69q-8 -17 -23 -24q-5 -3 -16 -7q-22 -3 -45 9t-29 32q-4 12 -12 17q-5 4 -13.5 9t-14 8.5t-7.5 6.5z" />
<glyph unicode="&#xf1;" horiz-adv-x="823" d="M0 4q0 -16 10 -29q8 -11 27 -22q4 -3 10 -8.5t11 -9t11 -6.5t13.5 -2.5t15.5 5.5l19 125q4 8 4 11q12 47 12 49q3 13 5 27.5t4 32.5t3 28q14 97 27 168q2 11 10.5 31t10.5 28q6 6 6 8q-2 24 16 88q10 35 29 144q21 115 28 162l13 49q4 18 12 53.5t12 52.5l19 76q1 0 3 -1 t3 -1q0 -2 1 -6.5t1 -7.5q1 -29 1.5 -81.5t1.5 -96.5t3 -83q2 -76 10 -237v-6q4 -40 11.5 -116t11.5 -110q1 -10 4 -41t6 -49q12 -60 27 -86q9 -13 21 -26t28 -29.5t24 -24.5q12 -12 21 -12q13 0 22 6q1 2 0.5 4.5l-1.5 7.5t-1 7q-1 7 -5 32t-3 39q0 9 17 105q2 22 14 61 q3 15 10 42t10 42q1 4 8 30t9 40q7 26 20 88q4 16 10.5 46.5t10.5 45.5q28 110 32 123q3 10 8.5 32t8.5 32q6 24 20 67t17 55q32 120 37 136q7 23 20 62.5t18 55.5q0 2 29 113q7 24 20.5 72t20.5 71q1 4 3.5 15t2.5 15.5t-2 12.5q-37 66 -71 119q-9 9 -23 4q-5 0 -10 -16 q-1 -6 -1.5 -26.5t-2.5 -30.5q-3 -19 -29 -146q-5 -22 -17 -61t-14 -45q-32 -119 -37 -136q-9 -32 -30.5 -96.5t-30.5 -99.5q-5 -16 -16.5 -44t-18.5 -52t-8 -48q-1 -21 -13 -59.5t-14 -48.5q-6 -21 -17 -65t-17 -66q-3 -14 -11 -42t-12 -44q-2 12 -6.5 34t-5.5 33l-6 115 q-9 115 -9 150q-1 50 -1 150.5t-1 150.5q0 3 -6 231q0 8 -4 16q-2 7 -10.5 30t-9.5 36q-5 58 -52 115q-8 11 -18 9.5t-14 -13.5q-4 -11 -7.5 -24t-8 -28.5t-7.5 -25.5l-18 -90q-5 -17 -14 -48.5t-16.5 -57.5t-12.5 -50q-9 -33 -31 -131q-5 -22 -17.5 -64.5t-17.5 -64.5 q-16 -70 -39 -193q-6 -28 -17.5 -84t-17.5 -84l-18 -114q-2 -9 -5 -29t-5 -29l-27 -137q-11 -79 -20 -125zM430 1735q-33 27 4 57q-4 4 -4 10q0 11 28.5 26.5t65.5 22.5q23 4 47.5 -6t42.5 -23.5t19 -13.5q24 -6 53 -2l27 19l30 24l25 21q15 10 23 14q4 4 12 8q1 0 3 -1 t3 -1q8 -8 8 -37v-14q0 -14 -6 -18q-3 -2 -7 -9t-5 -8q-3 -4 -11.5 -12t-11.5 -14q-9 -12 -26 -25q-2 -2 -5.5 -4t-6.5 -3.5t-5 -4.5t-2 -6q-7 -4 -19 -5.5t-20 -1.5l-8 1l-25 2q-6 -9 -14 -9q-8 2 -55 35q-11 7 -32.5 14.5t-33.5 4.5q-4 0 -8 -2q-35 -29 -35 -37v-2 q-7 -23 -16 -23q-5 1 -18.5 11t-16.5 12z" />
<glyph unicode="&#xf2;" horiz-adv-x="763" d="M20 913l97 78q1 0 2.5 3.5t3.5 4.5q8 8 43 48q-10 -42 -34.5 -114t-31.5 -95q-20 -69 -34 -168q-21 -133 -23 -193q-6 -139 70 -280q55 -99 147 -117q29 -8 47 4q80 54 123 125q48 70 68 125q9 24 42.5 102t47.5 123q27 84 69 281q9 40 33 190q17 117 27 207q9 58 2 76 q-32 76 -137 100v27q0 38 -12 54t-50 26q-2 1 -11.5 4.5t-14.5 3.5q-6 0 -23.5 -0.5t-28 -2.5t-14.5 -7q-69 -89 -113 -168q-18 -31 -45.5 -92.5t-40.5 -86.5q-13 -24 -63 -86q-11 -13 -32.5 -43t-39 -48t-37.5 -27q-2 -19 -18.5 -27t-18.5 -27zM199 465q2 12 5 33.5t6 39 t7 33.5q6 21 23.5 85t31 106t29.5 82q31 83 137 317q11 23 37 41q74 56 125 88q22 13 31.5 9t17.5 -27q12 -34 16 -67.5t-1.5 -78.5t-9 -63t-15.5 -74q-3 -15 -23.5 -102t-31.5 -135q-10 5 -25 10l-4 -6q10 -13 11 -25.5t-6.5 -31t-8.5 -23.5v-8.5t-0.5 -9.5t-4.5 -5t-14 4 l-12 -24q-52 -157 -137 -281q-3 -4 -24.5 -36t-29.5 -43t-26.5 -31.5t-36.5 -34.5q-28 -22 -43 -16.5t-22 40.5q-23 99 -2 234zM467 1919q-4 12 4 23t17 16.5t12 5.5t6.5 -3t7.5 -7.5t6 -5.5h12q12 0 19 -6q5 -3 17.5 -20.5t30.5 -43t30 -41.5q6 -7 14.5 -16.5t15 -16.5 t14.5 -16.5t12.5 -16t9 -14.5t4 -11.5t-2.5 -8.5q-11 -11 -30.5 -16.5t-30.5 -2.5q-5 1 -9.5 6t-10 14t-9.5 17t-9.5 19.5t-8.5 17.5q-14 29 -92 72q-13 7 -17.5 14.5t-6.5 20t-5 20.5z" />
<glyph unicode="&#xf3;" horiz-adv-x="763" d="M20 913l97 78q1 0 2.5 3.5t3.5 4.5q8 8 43 48q-10 -42 -34.5 -114t-31.5 -95q-20 -69 -34 -168q-21 -133 -23 -193q-6 -139 70 -280q55 -99 147 -117q29 -8 47 4q80 54 123 125q48 70 68 125q9 24 42.5 102t47.5 123q27 84 69 281q9 40 33 190q17 117 27 207q9 58 2 76 q-32 76 -137 100v27q0 38 -12 54t-50 26q-2 1 -11.5 4.5t-14.5 3.5q-6 0 -23.5 -0.5t-28 -2.5t-14.5 -7q-69 -89 -113 -168q-18 -31 -45.5 -92.5t-40.5 -86.5q-13 -24 -63 -86q-11 -13 -32.5 -43t-39 -48t-37.5 -27q-2 -19 -18.5 -27t-18.5 -27zM199 465q2 12 5 33.5t6 39 t7 33.5q6 21 23.5 85t31 106t29.5 82q31 83 137 317q11 23 37 41q74 56 125 88q22 13 31.5 9t17.5 -27q12 -34 16 -67.5t-1.5 -78.5t-9 -63t-15.5 -74q-3 -15 -23.5 -102t-31.5 -135q-10 5 -25 10l-4 -6q10 -13 11 -25.5t-6.5 -31t-8.5 -23.5v-8.5t-0.5 -9.5t-4.5 -5t-14 4 l-12 -24q-52 -157 -137 -281q-3 -4 -24.5 -36t-29.5 -43t-26.5 -31.5t-36.5 -34.5q-28 -22 -43 -16.5t-22 40.5q-23 99 -2 234zM463 1780q1 5 6 9.5t13.5 10t16.5 9.5t20 10.5t18 9.5q9 6 19.5 19t16.5 23t16.5 30t12.5 24q6 14 13 19t20 7t20 5q17 6 32 -8.5t15 -22.5 q0 -2 -6.5 -9.5t-7.5 -10.5v-11q-1 -11 -6 -18q-4 -6 -20 -19.5t-40.5 -33t-37.5 -31.5q-9 -8 -23 -22t-23 -22.5t-22 -19t-18.5 -11.5t-12.5 1q-11 10 -17.5 29.5t-4.5 32.5z" />
<glyph unicode="&#xf4;" horiz-adv-x="763" d="M20 913l97 78q1 0 2.5 3.5t3.5 4.5q8 8 43 48q-10 -42 -34.5 -114t-31.5 -95q-20 -69 -34 -168q-21 -133 -23 -193q-6 -139 70 -280q55 -99 147 -117q29 -8 47 4q80 54 123 125q48 70 68 125q9 24 42.5 102t47.5 123q27 84 69 281q9 40 33 190q17 117 27 207q9 58 2 76 q-32 76 -137 100v27q0 38 -12 54t-50 26q-2 1 -11.5 4.5t-14.5 3.5q-6 0 -23.5 -0.5t-28 -2.5t-14.5 -7q-69 -89 -113 -168q-18 -31 -45.5 -92.5t-40.5 -86.5q-13 -24 -63 -86q-11 -13 -32.5 -43t-39 -48t-37.5 -27q-2 -19 -18.5 -27t-18.5 -27zM199 465q2 12 5 33.5t6 39 t7 33.5q6 21 23.5 85t31 106t29.5 82q31 83 137 317q11 23 37 41q74 56 125 88q22 13 31.5 9t17.5 -27q12 -34 16 -67.5t-1.5 -78.5t-9 -63t-15.5 -74q-3 -15 -23.5 -102t-31.5 -135q-10 5 -25 10l-4 -6q10 -13 11 -25.5t-6.5 -31t-8.5 -23.5v-8.5t-0.5 -9.5t-4.5 -5t-14 4 l-12 -24q-52 -157 -137 -281q-3 -4 -24.5 -36t-29.5 -43t-26.5 -31.5t-36.5 -34.5q-28 -22 -43 -16.5t-22 40.5q-23 99 -2 234zM422 1722q-3 6 2.5 20.5t12.5 25.5l7 12l105 98v16q-3 -4 -8 -9.5t-18 -19t-17.5 -15.5t-7.5 1q0 4 6 11.5t14 15.5t18.5 17.5t18.5 16t17 13.5 t10 8l2 2q16 7 33.5 6t29.5 -8q3 -2 6 -7.5t5 -16.5t3 -17.5t3 -21.5t2 -19q1 -8 5.5 -17.5t13 -20.5t14.5 -18.5t16.5 -19t13.5 -14.5q9 -11 11 -19t-0.5 -20t-2.5 -20q0 -12 -10 -20t-20 -10t-13 -1q-3 0 -5.5 4.5t-5 10t-3.5 6.5q-19 19 -23 24q-1 1 -5 5.5t-7 10.5 t-6 15l-39 63q-1 2 -2 4.5t-4 9t-5 7.5t-5 0q-81 -92 -95 -115l-28 -35q-31 29 -39 41z" />
<glyph unicode="&#xf5;" horiz-adv-x="763" d="M20 913l97 78q1 0 2.5 3.5t3.5 4.5q8 8 43 48q-10 -42 -34.5 -114t-31.5 -95q-20 -69 -34 -168q-21 -133 -23 -193q-6 -139 70 -280q55 -99 147 -117q29 -8 47 4q80 54 123 125q48 70 68 125q9 24 42.5 102t47.5 123q27 84 69 281q9 40 33 190q17 117 27 207q9 58 2 76 q-32 76 -137 100v27q0 38 -12 54t-50 26q-2 1 -11.5 4.5t-14.5 3.5q-6 0 -23.5 -0.5t-28 -2.5t-14.5 -7q-69 -89 -113 -168q-18 -31 -45.5 -92.5t-40.5 -86.5q-13 -24 -63 -86q-11 -13 -32.5 -43t-39 -48t-37.5 -27q-2 -19 -18.5 -27t-18.5 -27zM199 465q2 12 5 33.5t6 39 t7 33.5q6 21 23.5 85t31 106t29.5 82q31 83 137 317q11 23 37 41q74 56 125 88q22 13 31.5 9t17.5 -27q12 -34 16 -67.5t-1.5 -78.5t-9 -63t-15.5 -74q-3 -15 -23.5 -102t-31.5 -135q-10 5 -25 10l-4 -6q10 -13 11 -25.5t-6.5 -31t-8.5 -23.5v-8.5t-0.5 -9.5t-4.5 -5t-14 4 l-12 -24q-52 -157 -137 -281q-3 -4 -24.5 -36t-29.5 -43t-26.5 -31.5t-36.5 -34.5q-28 -22 -43 -16.5t-22 40.5q-23 99 -2 234zM395 1765q-34 27 4 58q-4 4 -4 10q0 11 28.5 26.5t65.5 22.5q23 4 47.5 -6t42.5 -23.5t19 -13.5q24 -6 53 -2l27 18q4 3 9.5 7t12 9.5t9.5 8.5 l24 21q15 10 23 14q4 4 12 8q1 0 3 -1t3 -1q8 -8 8 -37v-14q0 -15 -6 -19q-3 -2 -7 -8.5t-5 -7.5q-3 -3 -11.5 -12t-11.5 -15q-7 -9 -26 -24q-2 -2 -7.5 -5t-8.5 -6.5t-3 -7.5q-7 -4 -19 -5.5t-20 -1.5l-8 1l-24 2q-7 -8 -15 -8q-8 2 -55 35q-11 7 -32.5 14t-33.5 4 q-4 0 -8 -2q-35 -29 -35 -37q-1 -5 -2 -7.5t-3 -8t-4.5 -7.5t-6.5 -1t-10 5t-14 9.5t-11 7.5z" />
<glyph unicode="&#xf6;" horiz-adv-x="763" d="M20 913l97 78q1 0 2.5 3.5t3.5 4.5q8 8 43 48q-10 -42 -34.5 -114t-31.5 -95q-20 -69 -34 -168q-21 -133 -23 -193q-6 -139 70 -280q55 -99 147 -117q29 -8 47 4q80 54 123 125q48 70 68 125q9 24 42.5 102t47.5 123q27 84 69 281q9 40 33 190q17 117 27 207q9 58 2 76 q-32 76 -137 100v27q0 38 -12 54t-50 26q-2 1 -11.5 4.5t-14.5 3.5q-6 0 -23.5 -0.5t-28 -2.5t-14.5 -7q-69 -89 -113 -168q-18 -31 -45.5 -92.5t-40.5 -86.5q-13 -24 -63 -86q-11 -13 -32.5 -43t-39 -48t-37.5 -27q-2 -19 -18.5 -27t-18.5 -27zM199 465q2 12 5 33.5t6 39 t7 33.5q6 21 23.5 85t31 106t29.5 82q31 83 137 317q11 23 37 41q74 56 125 88q22 13 31.5 9t17.5 -27q12 -34 16 -67.5t-1.5 -78.5t-9 -63t-15.5 -74q-3 -15 -23.5 -102t-31.5 -135q-10 5 -25 10l-4 -6q10 -13 11 -25.5t-6.5 -31t-8.5 -23.5v-8.5t-0.5 -9.5t-4.5 -5t-14 4 l-12 -24q-52 -157 -137 -281q-3 -4 -24.5 -36t-29.5 -43t-26.5 -31.5t-36.5 -34.5q-28 -22 -43 -16.5t-22 40.5q-23 99 -2 234zM397 1833q-3 5 3.5 18.5t17.5 20.5q4 26 31 12q24 -9 43 -41.5t10 -46.5q-4 -9 -15 -16q-18 -10 -51 14zM651 1829q-16 16 11 47q2 12 17 15.5 t32 -3.5q28 -10 47 -44t8 -50q-3 -7 -14 -18h-2q-8 -4 -11 -4q-16 -2 -32.5 6.5t-20.5 21.5q-3 10 -8 12q-5 3 -11 6.5t-10 6t-6 4.5z" />
<glyph unicode="&#xf8;" horiz-adv-x="763" d="M20 915q2 17 18.5 26t18.5 28q20 9 37.5 27t39 48t32.5 43q49 60 63 87q13 25 40.5 86t45.5 92q44 79 113 168q4 5 14.5 7t28 2.5t23.5 0.5q5 0 14.5 -3.5t11.5 -4.5q38 -10 50 -26t12 -54v-27q35 -7 57 -18q23 55 29 78q5 33 45 118.5t61 120.5q17 28 31 33v4l2 -2h2 q31 -19 36.5 -78.5t-26.5 -142.5l-98 -225q4 -20 -4 -66q-11 -91 -27 -205q-24 -152 -33 -192q-41 -191 -69 -281q-14 -43 -47 -119.5t-43 -103.5q-18 -52 -68 -127q-48 -75 -123 -123q-18 -12 -47 -4q-42 9 -74 31q-66 -151 -88 -197q-29 -71 -63 -86q25 73 26.5 121.5 t28.5 120.5l37 102q-2 4 -7 12.5t-7 12.5q-76 141 -70 280q2 60 23 193q15 102 34 168q7 25 31.5 95.5t34.5 111.5l-43 -46q-2 -2 -3.5 -5.5t-2.5 -4.5q-55 -42 -97 -76zM188 330q4 9 11.5 27.5t11.5 27.5q4 1 9.5 9.5t12.5 20t11 15.5q5 8 32.5 68t30.5 63q3 7 18.5 51 t16.5 52l14 30l-2 15l-37 -91l-36 -83q0 -1 -1 -3.5t-1 -3.5q-4 -6 -9 -12t-8 -9l-4 -3q43 105 199 463q122 276 143 325q-51 -32 -125 -88q-26 -18 -37 -41q-100 -221 -137 -317q-16 -40 -29.5 -82t-31 -106t-23.5 -85q-2 -7 -18 -108q-13 -96 -11 -135zM223 193 q15 -6 43 16q12 9 24.5 21.5t20 21t20.5 26t17 23t18.5 28t16.5 25.5q85 124 137 281l12 24q9 -5 14 -4t5 5.5v9.5v8q1 6 8 24t6.5 30t-10.5 24l4 8q2 -1 10 -4.5t15 -5.5q11 48 31.5 135t23.5 102q29 126 27 185l-68 -152q-31 -71 -375 -831z" />
<glyph unicode="&#xf9;" horiz-adv-x="735" d="M0 387q0 -41 14 -102q13 -61 27 -82q24 -39 106 -148q17 -21 37 -32q18 -13 59.5 -8t55.5 26q36 45 53 78q9 15 21 44t18 40q47 92 62 147q15 53 53 142q8 18 18.5 63t22.5 68q5 11 8 24t5.5 31t4.5 27q5 20 16.5 61t16.5 61q3 11 14 44.5t13 52.5q4 30 11 60t18.5 70.5 t15.5 57.5q4 12 10 35t10 35q6 17 22 60t23 67q7 21 18.5 45.5t21 41t25.5 43.5t23 40q12 19 38.5 50.5t33.5 41.5q2 2 3 6t0.5 7t-1.5 3q-5 2 -19.5 9.5t-24 10t-17.5 -0.5q-25 -6 -64 -45q-8 -8 -16 -18.5t-17.5 -23t-13.5 -18.5q-32 -41 -39 -55q-13 -22 -43 -84 q-7 -18 -23.5 -51t-23.5 -51q-7 -17 -17 -48.5t-12 -37.5q-6 -23 -22 -7q-12 -37 -23 -65q-23 -77 -45 -139q-10 -29 -33.5 -80.5t-29.5 -67.5q-10 -27 -28 -80t-28 -80q-71 -168 -75 -176q-17 -39 -49.5 -107.5t-38.5 -82.5l-19 -29q-2 2 -6 2q0 10 -1.5 39.5t-0.5 44.5 q1 24 4 71t4 70q1 8 1.5 23.5t1.5 28.5t3 24q8 69 25 160q5 30 17 85.5t16 74.5q30 144 45 202q36 149 84 213q14 20 -2 39q-32 32 -39 37q-50 44 -72 -20q-4 -13 -35 -78q-40 -104 -41 -109q-2 -6 -10 -37t-14 -47q-6 -20 -26 -62t-26 -65q-32 -104 -63 -243 q-22 -90 -31 -178q-10 -82 -10 -148zM514 1905q-4 12 4 23t17 16.5t12 5.5t10.5 -8t9.5 -9h12q12 0 19 -6q5 -3 17.5 -20t30.5 -43t30 -41q5 -7 14 -16.5t15.5 -17t14.5 -17t12.5 -15.5t9 -14.5t4 -12t-2.5 -8.5q-11 -11 -30.5 -16t-30.5 -2q-5 1 -9.5 6t-10 14t-9.5 17 t-9.5 19.5t-8.5 17.5q-13 28 -92 71q-13 7 -17.5 14.5t-6.5 20.5t-5 21z" />
<glyph unicode="&#xfa;" horiz-adv-x="735" d="M0 387q0 -41 14 -102q13 -61 27 -82q24 -39 106 -148q17 -21 37 -32q18 -13 59.5 -8t55.5 26q36 45 53 78q9 15 21 44t18 40q47 92 62 147q15 53 53 142q8 18 18.5 63t22.5 68q5 11 8 24t5.5 31t4.5 27q5 20 16.5 61t16.5 61q3 11 14 44.5t13 52.5q4 30 11 60t18.5 70.5 t15.5 57.5q4 12 10 35t10 35q6 17 22 60t23 67q7 21 18.5 45.5t21 41t25.5 43.5t23 40q12 19 38.5 50.5t33.5 41.5q2 2 3 6t0.5 7t-1.5 3q-5 2 -19.5 9.5t-24 10t-17.5 -0.5q-25 -6 -64 -45q-8 -8 -16 -18.5t-17.5 -23t-13.5 -18.5q-32 -41 -39 -55q-13 -22 -43 -84 q-7 -18 -23.5 -51t-23.5 -51q-7 -17 -17 -48.5t-12 -37.5q-6 -23 -22 -7q-12 -37 -23 -65q-23 -77 -45 -139q-10 -29 -33.5 -80.5t-29.5 -67.5q-10 -27 -28 -80t-28 -80q-71 -168 -75 -176q-17 -39 -49.5 -107.5t-38.5 -82.5l-19 -29q-2 2 -6 2q0 10 -1.5 39.5t-0.5 44.5 q1 24 4 71t4 70q1 8 1.5 23.5t1.5 28.5t3 24q8 69 25 160q5 30 17 85.5t16 74.5q30 144 45 202q36 149 84 213q14 20 -2 39q-32 32 -39 37q-50 44 -72 -20q-4 -13 -35 -78q-40 -104 -41 -109q-2 -6 -10 -37t-14 -47q-6 -20 -26 -62t-26 -65q-32 -104 -63 -243 q-22 -90 -31 -178q-10 -82 -10 -148zM510 1765q1 5 6 10t14 10.5t16.5 9.5t19.5 10.5t18 9.5q9 6 19.5 19t16.5 23t16.5 30t12.5 24q6 14 13 19t20 7t20 5q17 6 32.5 -8.5t15.5 -22.5q0 -2 -7 -10t-8 -11l-1 -10q0 -11 -5 -18q-4 -6 -20 -19.5t-40.5 -33t-37.5 -31.5 q-9 -8 -23 -22t-23 -22.5t-22 -19t-18.5 -11.5t-12.5 1q-11 10 -17.5 29t-4.5 32z" />
<glyph unicode="&#xfb;" horiz-adv-x="735" d="M0 387q0 -41 14 -102q13 -61 27 -82q24 -39 106 -148q17 -21 37 -32q18 -13 59.5 -8t55.5 26q36 45 53 78q9 15 21 44t18 40q47 92 62 147q15 53 53 142q8 18 18.5 63t22.5 68q5 11 8 24t5.5 31t4.5 27q5 20 16.5 61t16.5 61q3 11 14 44.5t13 52.5q4 30 11 60t18.5 70.5 t15.5 57.5q4 12 10 35t10 35q6 17 22 60t23 67q7 21 18.5 45.5t21 41t25.5 43.5t23 40q12 19 38.5 50.5t33.5 41.5q2 2 3 6t0.5 7t-1.5 3q-5 2 -19.5 9.5t-24 10t-17.5 -0.5q-25 -6 -64 -45q-8 -8 -16 -18.5t-17.5 -23t-13.5 -18.5q-32 -41 -39 -55q-13 -22 -43 -84 q-7 -18 -23.5 -51t-23.5 -51q-7 -17 -17 -48.5t-12 -37.5q-6 -23 -22 -7q-12 -37 -23 -65q-23 -77 -45 -139q-10 -29 -33.5 -80.5t-29.5 -67.5q-10 -27 -28 -80t-28 -80q-71 -168 -75 -176q-17 -39 -49.5 -107.5t-38.5 -82.5l-19 -29q-2 2 -6 2q0 10 -1.5 39.5t-0.5 44.5 q1 24 4 71t4 70q1 8 1.5 23.5t1.5 28.5t3 24q8 69 25 160q5 30 17 85.5t16 74.5q30 144 45 202q36 149 84 213q14 20 -2 39q-32 32 -39 37q-50 44 -72 -20q-4 -13 -35 -78q-40 -104 -41 -109q-2 -6 -10 -37t-14 -47q-6 -20 -26 -62t-26 -65q-32 -104 -63 -243 q-22 -90 -31 -178q-10 -82 -10 -148zM469 1708q-3 6 3 20.5t13 25.5l7 11l104 99v16q-3 -4 -8 -9.5t-18 -19t-17.5 -15.5t-7.5 1q0 4 6 11.5t14 15.5t18.5 17.5t18.5 16t17 13.5t10 8l2 2q16 7 33.5 6t29.5 -8q3 -2 6 -7.5t5 -16.5t3 -17.5t3 -21.5t2 -19q1 -8 5.5 -17.5 t13 -20.5t14.5 -18.5t16.5 -19t13.5 -14.5q9 -11 11 -19t-0.5 -20t-2.5 -20q0 -12 -10 -20t-20 -10t-13 -1q-3 0 -5.5 4t-5 9.5t-3.5 6.5q-10 10 -22 25q-1 1 -5 5.5t-7.5 10.5t-6.5 15l-39 63q-1 2 -2 4.5t-4 9t-5 7.5t-5 0q-80 -92 -94 -115l-29 -35q-31 29 -39 41z" />
<glyph unicode="&#xfc;" horiz-adv-x="735" d="M0 387q0 -41 14 -102q13 -61 27 -82q24 -39 106 -148q17 -21 37 -32q18 -13 59.5 -8t55.5 26q36 45 53 78q9 15 21 44t18 40q47 92 62 147q15 53 53 142q8 18 18.5 63t22.5 68q5 11 8 24t5.5 31t4.5 27q5 20 16.5 61t16.5 61q3 11 14 44.5t13 52.5q4 30 11 60t18.5 70.5 t15.5 57.5q4 12 10 35t10 35q6 17 22 60t23 67q7 21 18.5 45.5t21 41t25.5 43.5t23 40q12 19 38.5 50.5t33.5 41.5q2 2 3 6t0.5 7t-1.5 3q-5 2 -19.5 9.5t-24 10t-17.5 -0.5q-25 -6 -64 -45q-8 -8 -16 -18.5t-17.5 -23t-13.5 -18.5q-32 -41 -39 -55q-13 -22 -43 -84 q-7 -18 -23.5 -51t-23.5 -51q-7 -17 -17 -48.5t-12 -37.5q-6 -23 -22 -7q-12 -37 -23 -65q-23 -77 -45 -139q-10 -29 -33.5 -80.5t-29.5 -67.5q-10 -27 -28 -80t-28 -80q-71 -168 -75 -176q-17 -39 -49.5 -107.5t-38.5 -82.5l-19 -29q-2 2 -6 2q0 10 -1.5 39.5t-0.5 44.5 q1 24 4 71t4 70q1 8 1.5 23.5t1.5 28.5t3 24q8 69 25 160q5 30 17 85.5t16 74.5q30 144 45 202q36 149 84 213q14 20 -2 39q-32 32 -39 37q-50 44 -72 -20q-4 -13 -35 -78q-40 -104 -41 -109q-2 -6 -10 -37t-14 -47q-6 -20 -26 -62t-26 -65q-32 -104 -63 -243 q-22 -90 -31 -178q-10 -82 -10 -148zM444 1819q-3 5 3.5 18.5t17.5 20.5q4 26 31 12q24 -9 43 -41.5t10 -46.5q-6 -12 -14 -17q-17 -10 -52 15zM698 1815q-16 16 11 47q2 12 17 15.5t32 -3.5q28 -10 47 -44t8 -50q-3 -8 -14 -19h-2q-8 -4 -11 -4q-15 -2 -32 7t-21 22 q-3 10 -8 12q-5 3 -11 6.5t-10 6t-6 4.5z" />
<glyph unicode="&#xfd;" horiz-adv-x="684" d="M0 30q-1 18 2 39t6 50.5t2 48.5q-3 43 47 177t90 200q41 64 89 155q0 3 2 5l6 12q3 18 14 26l10 19h-2q4 8 12 21t13.5 24t9.5 22q3 9 12.5 24t12.5 21q11 14 -2 33q-34 55 -39 72q-28 75 -54 160q-4 18 -10 53t-10 53q-6 30 -29 125l-16 78q-3 10 -8 31.5t-8 31.5 q6 -4 18 -8q2 -2 6 -2q3 -2 19.5 -14.5t25.5 -18.5q24 -15 37 -41q22 -64 23 -67q10 -47 26 -137q1 -8 4 -36t6 -42q3 -29 21 -107q9 -39 20 -75q0 -3 4 -7l9 7q5 9 15 26.5t15 26.5l31 47q21 41 45 78q5 10 17.5 29.5t17.5 29.5q5 8 13.5 24.5t13.5 24.5q28 48 45 80 q6 11 21.5 35.5t21.5 36.5q3 7 10.5 19.5t11.5 19.5t7.5 18.5t4.5 22.5q0 3 2 6t4 5t1 3q-3 5 -4 9.5t1 9.5l3 7.5t5 8t5 6.5l29 35q4 4 12 4q13 -4 20 10q7 17 7.5 25t-5.5 20q10 4 35 -6q31 -13 41 -20q11 -5 21 -19q19 -37 8 -72q-17 -58 -60 -114q-11 -15 -28 -53 l-37 -62q-29 -49 -51 -82q-5 -8 -80 -127q-16 -23 -39 -67l-88 -160q-32 -54 -51 -92q-21 -35 -48 -86q0 -5 -6 -11q-117 -220 -159 -317q-22 -51 -45.5 -128.5t-38.5 -129t-21 -57.5q-11 -13 -39.5 -20t-44.5 1q-7 4 -8 22zM401 1757q1 5 6 9.5t13.5 10t16.5 9.5t20 10.5 t18 9.5q9 6 20 19.5t16.5 23t16.5 30.5t13 24q6 14 13 19t19.5 6.5t20.5 4.5q17 6 32 -8t15 -22q0 -2 -6.5 -10t-7.5 -11l-1 -11q0 -11 -5 -18q-4 -6 -20 -20t-41 -33t-38 -31q-9 -8 -23 -22t-23 -22t-21.5 -18.5t-18 -11.5t-12.5 1q-11 10 -18 29t-5 32z" />
<glyph unicode="&#xff;" horiz-adv-x="684" d="M0 30q-1 18 2 39t6 50.5t2 48.5q-3 43 47 177t90 200q41 64 89 155q0 3 2 5l6 12q3 18 14 26l10 19h-2q4 8 12 21t13.5 24t9.5 22q3 9 12.5 24t12.5 21q11 14 -2 33q-34 55 -39 72q-28 75 -54 160q-4 18 -10 53t-10 53q-6 30 -29 125l-16 78q-3 10 -8 31.5t-8 31.5 q6 -4 18 -8q2 -2 6 -2q3 -2 19.5 -14.5t25.5 -18.5q24 -15 37 -41q22 -64 23 -67q10 -47 26 -137q1 -8 4 -36t6 -42q3 -29 21 -107q9 -39 20 -75q0 -3 4 -7l9 7q5 9 15 26.5t15 26.5l31 47q21 41 45 78q5 10 17.5 29.5t17.5 29.5q5 8 13.5 24.5t13.5 24.5q28 48 45 80 q6 11 21.5 35.5t21.5 36.5q3 7 10.5 19.5t11.5 19.5t7.5 18.5t4.5 22.5q0 3 2 6t4 5t1 3q-3 5 -4 9.5t1 9.5l3 7.5t5 8t5 6.5l29 35q4 4 12 4q13 -4 20 10q7 17 7.5 25t-5.5 20q10 4 35 -6q31 -13 41 -20q11 -5 21 -19q19 -37 8 -72q-17 -58 -60 -114q-11 -15 -28 -53 l-37 -62q-29 -49 -51 -82q-5 -8 -80 -127q-16 -23 -39 -67l-88 -160q-32 -54 -51 -92q-21 -35 -48 -86q0 -5 -6 -11q-117 -220 -159 -317q-22 -51 -45.5 -128.5t-38.5 -129t-21 -57.5q-11 -13 -39.5 -20t-44.5 1q-7 4 -8 22zM336 1810q-3 5 3 18.5t17 20.5q4 27 31 13 q24 -9 43 -41.5t10 -46.5q-6 -12 -14 -17q-17 -9 -51 15zM590 1806q-16 16 10 47q2 12 17 16t32 -3q28 -10 47.5 -44t8.5 -50q-3 -7 -15 -19h-2q-8 -4 -10 -4q-15 -2 -32 7t-21 22q-3 9 -9 12q-5 3 -11 6.5t-9.5 5.5t-5.5 4z" />
<glyph unicode="&#x152;" horiz-adv-x="1067" d="M0 342q1 9 4 26.5t4 26.5q2 10 4 29.5t2 21.5q0 7 4 19l7 24l18 111q0 4 4 8q0 2 2 4.5t2 3.5q-6 15 1.5 40t6.5 36v29q0 19 2 20q4 3 6.5 7t3.5 6.5t2 8.5t1 7l12 72q9 38 27 102v2l-29 -37q7 28 27.5 90t29.5 97q-6 -7 -19.5 -20.5t-19.5 -20.5q-1 -1 -2 -4t-2 -4 l-86 -68q1 15 16 22.5t17 24.5q17 8 33 24.5t34 42t29 37.5q6 8 17 20.5t16.5 19.5t12.5 17.5t12 20.5q11 22 35 77t40 83q58 95 101 150q4 4 14 5.5t24.5 1.5t20.5 1q1 0 25 -6q33 -10 43 -24t10 -48q2 -8 2 -25l-16 -18q4 -4 8 -6l24 -23q4 -4 9 -10t11 -13.5t9 -11.5 q12 -16 25 -51l2 2v17q0 1 -1 2t-1 2q33 11 39 14q6 1 15.5 4t12.5 4q12 6 6 19q-4 4 -2 4q0 5 -5.5 29.5t1.5 29.5q-3 3 -1.5 10.5t2.5 10t5 9.5t5 9q3 8 14.5 11.5t19.5 0.5q21 -8 33 -45q7 -15 12 -51q0 -10 11 -6l57 18q5 1 14.5 4.5t14.5 4.5q1 -5 3 -6.5t4.5 -0.5 t4.5 0v-14q7 2 18.5 5.5t21 6t17.5 5.5l51 12q1 0 10 2.5t10.5 2t10.5 -2.5l12 -6l-12 -6v-2q16 4 21 4h47q4 0 12 -4q-2 -2 -2 -5q31 6 33 7q8 2 21 -3.5t16 -5.5q5 -2 5 -6.5t-5 -7.5l-13 -8q3 -3 13.5 -3.5t11.5 -8.5q-6 -8 -21.5 -12t-17.5 -5t-12.5 -6t-16.5 -6 q-4 0 -14 -6.5t-18 -1.5l-5 -2q-9 -9 -22 -9h-4l-8 -6q-12 -3 -27 -6q-16 -3 -39 -14q-3 -1 -10.5 -1t-11.5 -1q-7 0 -11 -4q-8 -4 -10 -4q-2 -2 -8 -2q-5 -5 -6 -5l-39 -12q-3 -1 -9.5 -3t-9.5 -3q-5 -2 -16 -5t-16 -5q-48 -19 -68 -35q-8 -8 -12 -25l-10 -34q-1 -5 -7 -22 t-8 -26q-1 -3 -3.5 -9t-4.5 -11l-4 -10q-2 -2 -2 -8l-6 -25q-2 -4 -2 -12h10l51 14q9 3 27.5 8t27.5 8q5 1 15.5 3t19 4t15.5 6q7 2 21.5 5t21.5 5l30 12q5 3 35 8l51 13q1 -1 7 -6t10 -10t6 -9q2 -6 10 -16.5t10 -16.5q3 -4 4 -9.5t1 -13t1 -11.5l-2 -7q4 -6 4.5 -10.5 t-1.5 -7.5t-6 -7.5t-5 -6.5q-3 -5 -6.5 -9.5t-8.5 -8.5t-8.5 -7t-10.5 -6.5t-9.5 -5t-11 -5.5t-10.5 -5t-16 -9t-21 -10q-46 -16 -88 -24q-23 -7 -82 -19q-55 -8 -86 -14q-38 -5 -51 -8q-10 0 -19 -13q-5 -24 -8 -32q0 -9 -8 -25q-12 -36 -15 -66l-6 -8q0 -1 -1 -2t-1 -2 q0 -4 -2 -6q-3 -14 -8 -23q-1 -3 -2 -8.5t-2 -7.5q-3 -10 -10 -25q0 -3 -11 -40q-4 -14 -13 -42.5t-13 -43.5q-23 -77 -23 -78q-2 -6 -2 -23q-8 -19 -10 -31q-4 -12 -4 -16q-4 -6 -8 -22l-6 -27q-2 -11 -6.5 -34t-6.5 -34q-4 -24 -4 -34q-3 -15 15 -19q17 -8 51 -4 q24 3 71 20q7 3 22.5 8.5t22.5 8.5q6 3 32.5 16t39.5 19q4 2 20.5 9.5t24.5 12.5q6 3 18 9.5t21.5 12t16.5 9.5q10 6 20.5 13.5t22 16t18.5 13.5q15 10 51 37q6 4 25 14q1 0 3 1t3 1q11 5 12 4q3 -1 8 -12q4 -12 4 -21v-6q-9 -26 -10 -34v-23q-1 -3 -1 -9.5t-1 -8.5 q-2 -3 -7.5 -15t-8.5 -18t-8 -13t-9 -11t-11.5 -11t-10.5 -10l-3 -2q-3 -2 -3 -4q-4 -10 -11 -17.5t-20.5 -16t-17.5 -11.5q-8 -6 -25.5 -16t-22.5 -13q-16 -8 -26 -10l-113 -50q-12 -4 -47 -22q-48 -27 -55 -29q-45 -11 -78 -6q-29 4 -43 12q-26 10 -45 45q-6 10 -21 54 q-7 23 -18 43q-13 30 -16 41q-12 -14 -31 -41q-1 -1 -2.5 -6t-3.5 -7q-7 -10 -33 -41q-9 -14 -10 -16q-15 -35 -19 -41q-6 -8 -24 -12q-20 -3 -27 -17q-9 -12 -31 -16q-12 -4 -39 -4q-20 0 -20 23q0 6 -3 16t-3 12q-1 3 -4.5 20t-7.5 25q-9 32 -11 45t-20 45q-2 5 -7 15.5 t-7 15.5q0 1 -10 22t-9 33q0 4 -1 11.5t-1 11.5q-2 14 -2 47zM90 465q0 -2 2 -2l12 -23l7 -28q0 -6 -3.5 -17.5t-3.5 -17.5v-103q0 -4 2.5 -9t4.5 -5q13 -4 20 2q25 25 31 41q2 7 10 18.5t10 18.5q3 9 18 25t17 30q2 2 2 4q7 1 11 5.5t7.5 13t4.5 10.5q7 8 16 26.5t12 24.5 q1 3 7.5 7.5t7.5 7.5q1 6 16 36q2 4 12.5 22t10.5 28q0 1 1 2t1 2l18 37q7 13 8 14q11 9 15 33q6 25 8 26q9 4 13.5 18t6.5 17q11 14 15 41q0 7 6.5 18t7.5 13q18 52 22 67q1 2 1.5 7.5t1.5 7.5q1 4 7 17t7 20q8 34 16 51q3 6 8 49l7 39q1 5 4.5 15t5.5 18.5t2 15.5 q0 11 3 44.5t2.5 56t-5.5 44.5q-9 46 -17 60q-2 4 -18 4q-3 -2 -7 -7t-7 -7q-11 -6 -27 -31t-31 -31q-20 -10 -24 -35l-4 -4q-13 -18 -15 -26q-5 -15 -24 -23q-13 -3 -13 -14q0 -18 -12 -27q-1 -2 -8 -22q0 -17 -2 -19q-6 -4 -9.5 -9.5t-6.5 -14t-5 -11.5l-4 -6 q-12 -6 -12 -33q0 -10 -2 -12q-14 -7 -18 -37q-4 -18 -9 -20q-6 -3 -6 -13q2 -14 -10 -34q-1 -2 -4 -9t-4 -12q-5 -20 -8 -26q-4 -13 -2 -17q5 -10 -4 -14q-6 -4 -11 -19l-6 -30q-2 -12 -10 -27q0 -1 -2 -3.5t-4 -2.5q-15 3 -15 -12v-27q0 -4 -1 -13t-1 -10q-16 -8 -16 -10 q-5 -14 -2 -31q3 -25 -14 -55q-2 -2 -5 -8q-10 -71 -16 -90z" />
<glyph unicode="&#x153;" horiz-adv-x="1134" d="M0 362q2 22 10 56l6 55q0 15 2 21q1 4 4.5 12t4.5 12l18 119q0 4 4 8t4 8q-6 16 2.5 42t7.5 38q0 5 -1 15.5t-1 15.5q0 17 5 22q4 2 6.5 6t3 7t1.5 8.5t1 7.5q8 53 14 76q11 51 27 110l-31 -36q7 26 29.5 91.5t32.5 104.5q-13 -13 -41 -45q-1 -1 -2.5 -4t-2.5 -4 q-34 -25 -92 -72q2 18 18 25.5t17 23.5q19 9 36 27.5t36.5 45.5t30.5 40q46 53 61 82q7 13 34.5 75t45.5 93q46 81 106 160q3 3 8 5t12.5 3t13.5 1t15 -0.5t13 -0.5q2 0 26 -6q35 -10 46.5 -25.5t11.5 -50.5q0 -19 2 -25l-19 -20l9 -8q7 -5 26 -23l31 -37q4 -5 26 -55 q0 1 3 4v16q0 1 -1.5 2.5t-1.5 2.5q2 1 17.5 6.5t23.5 7.5q5 2 15.5 5t15.5 5q12 6 6 19q-4 4 -2 6q0 7 -3.5 19.5t-4 20t3.5 21.5q-3 3 -1.5 11.5t2 11t4.5 10.5l5 10q3 7 16 11t21 1q5 -2 9 -4.5t7 -6.5t5.5 -6t5 -7.5t3.5 -7t4 -8t3 -7.5q6 -18 10 -57q3 -9 13 -6 q17 7 61 20q6 1 16.5 5.5t14.5 5.5q0 -5 1.5 -7t3 -2t4 1t3.5 1q0 -10 -2 -16q59 15 62 16l55 13q20 8 33 4l12 -6q-4 -4 -12 -8q4 0 11 1t11 1q16 2 49 2q2 0 4 -1.5t5 -3t4 -2.5q-3 0 -3 -4q27 4 33 7q10 2 25 -3.5t16 -5.5q6 -2 5.5 -6.5t-5.5 -7.5l-12 -10q2 -3 13 -3.5 t12 -9.5q-4 -6 -11 -9t-16 -5t-14 -4q-25 -10 -31 -10q-3 -1 -14 -8t-19 -2l-6 -3q-11 -11 -23 -8q-4 0 -6 -2q-4 -4 -8 -4q-24 -6 -27 -6q-17 -5 -43 -16q-6 -2 -22 -2q-10 -5 -12 -5q-10 -5 -11 -6q-6 0 -8 -2q-2 0 -6 -4l-41 -12l-18 -6l-37 -13q-44 -14 -72 -36 q-8 -8 -12 -25q-8 -23 -10 -37q-3 -8 -8.5 -24.5t-8.5 -24.5l-14 -33v-10q-3 -7 -8 -25q0 -8 -2 -14h12q38 13 53 16q50 15 60 17q3 1 22.5 4.5t28.5 7.5q1 1 47 12q18 7 31 15q5 3 11 4t13.5 1t11.5 1q8 2 26.5 7t29.5 7q1 -1 7.5 -6t10.5 -10t6 -10q2 -7 10.5 -18 t10.5 -17q3 -4 4 -10.5t1 -14.5t1 -12v-6q4 -6 3.5 -11t-2.5 -8.5t-6 -8.5t-5 -7q-3 -5 -7 -9.5t-6.5 -7.5t-8.5 -7t-8.5 -6t-10.5 -5.5t-9 -4t-10 -4.5l-10 -5q-26 -17 -39 -21q-35 -11 -92 -26l-86 -19q-15 -2 -45.5 -7t-46.5 -7q-9 -2 -27.5 -5t-27.5 -5q-10 0 -19 -13 q-3 -20 -8 -34q-2 -12 -10 -27q-9 -21 -17 -70q0 -4 -4 -8l-4 -4v-6q-2 -10 -10 -25q0 -6 -4 -18q-2 -4 -5.5 -12.5t-5.5 -12.5q-2 -7 -5 -21.5t-5 -21.5q-21 -66 -28 -92l-25 -82q-1 -4 -2 -11.5t-2 -10.5q-2 -10 -10 -35q-1 -2 -2 -7.5t-2 -8.5l-7 -23q-6 -15 -6 -29 q-7 -29 -14 -73l-6 -37q0 -13 16 -19q18 -8 55 -4q29 4 76 23q7 3 23.5 8t23.5 8l76 37q8 4 24.5 12.5t24.5 12.5q6 3 18 9.5t22 12t18 10.5q37 22 65 45q9 6 26.5 19.5t26.5 19.5q6 5 27 15q2 0 6 4q11 5 12 4q6 -4 11 -14q4 -12 4 -21v-8q-2 -6 -6 -18.5t-6 -18.5v-25 q0 -9 -3 -18t-16 -35q-7 -13 -41 -47l-8 -6q-2 -6 -5.5 -11.5t-6.5 -9t-9 -8t-9.5 -6.5t-11 -6.5t-9.5 -5.5q-6 -5 -14.5 -10.5t-19 -11.5t-15.5 -9l-29 -12q-76 -31 -119 -51q-3 -1 -51 -25q-47 -26 -57 -29q-44 -13 -82 -8q-33 4 -47 12q-24 11 -48 50q-13 20 -20 57 q-5 16 -21 45l-18 43q-5 -7 -15.5 -21.5t-15.5 -21.5q-2 -2 -4 -7.5t-2 -6.5l-37 -43q-2 -3 -5 -9.5t-5 -9.5q-17 -39 -18 -41q-8 -10 -27 -14q-21 -4 -29 -19q-9 -12 -32 -16q-12 -4 -41 -4q-13 0 -17 5t-4 18q-3 21 -8 32q-3 24 -12 47q-8 20 -11 48q-1 7 -4.5 14.5 t-9.5 17.5t-8 15q-2 6 -8 17t-8 17t-7.5 17t-9 21t-2.5 20q0 4 -1 11.5t-1 10.5q-2 16 -2 51zM96 489q12 -16 15 -22q6 -30 6 -31q0 -6 -3 -18.5t-3 -18.5v-108q0 -4 2 -10.5t4 -6.5q16 -4 22 2q28 33 33 46q2 7 10.5 18.5t10.5 19.5q3 8 18.5 26t17.5 32q0 4 4 4q7 2 11 7 t7 13t5 11q11 15 29 55q2 3 9 7t7 7q1 7 4 14t7.5 14.5t6.5 12.5q1 3 12 21t11 30l4 4l19 39q1 1 2 5t2.5 7t3.5 5q10 6 14 33q5 26 10 28q9 5 14 20t7 17q9 11 14 43q1 8 8.5 19t8.5 14q5 12 24 72q1 2 1 7.5t1 8.5q14 27 17 39q9 43 16 53q2 6 8 51q2 7 4 21.5t4 21.5 q13 50 13 54q0 16 2.5 46.5t2.5 56t-5 48.5q-2 6 -4.5 21t-6 25t-8.5 18q-1 3 -8 4.5t-10 -0.5q-3 -1 -8.5 -7.5t-8.5 -7.5q-11 -7 -27.5 -32.5t-31.5 -32.5q-22 -9 -29 -37l-2 -4q-16 -26 -16 -27q-1 -5 -2.5 -8.5t-5 -6t-5.5 -4t-6.5 -3.5t-5.5 -2q-14 -6 -14 -17 q0 -16 -12 -28q-3 -2 -9 -25q-1 -2 -1 -6.5t-0.5 -7t-2.5 -2.5q-6 -4 -9.5 -11t-6 -15.5t-4.5 -12.5l-4 -6q-15 -9 -15 -35q0 -11 -2 -13q-14 -7 -18 -40q0 -1 -1 -7t-2.5 -9t-6.5 -5q-7 -7 -4 -14q2 -11 -13 -35q-1 -4 -4 -11.5t-4 -11.5q-5 -21 -8 -28q-1 -2 -3 -5.5 t-1.5 -5t2.5 -6.5q4 -11 -6 -16q-4 -4 -8 -21q-2 -5 -4.5 -15t-4.5 -15q-2 -12 -10 -27q-4 -8 -6 -8q-8 1 -11 -2.5t-3 -11.5q-2 -8 -2 -27q0 -21 -2 -25q-18 -9 -19 -12q-5 -18 -2 -31q5 -26 -14 -57l-4 -10q-1 -6 -6 -41t-11 -53v-5z" />
<glyph unicode="&#x178;" horiz-adv-x="679" d="M2 35q-7 -32 12 -49q25 -25 39 -35q26 -22 39 -31q12 -8 31.5 -3t19.5 15q6 43 9 76q0 14 1.5 28.5t6 31t7 26.5t9 30.5t8.5 27.5q4 14 16.5 44t16.5 46q14 43 49 157q7 17 47.5 135t44.5 134q6 20 17.5 62.5t17.5 62.5q2 6 7 17.5t8 20.5t2 17q0 20 18 51q21 38 76 117 q82 112 98 135q25 34 67 97t56 83q40 58 47 70q14 23 28.5 49t32 57.5t27.5 48.5q27 50 51 99q13 26 15 37q1 7 -1 13t-8 12t-9 8.5t-13 9.5t-12 8q-25 17 -43 -10l-49 -76q-4 -6 -13.5 -17.5t-13.5 -17.5l-72 -96q-17 -20 -28 -37l-60 -86q-11 -15 -24 -30.5t-28 -34 t-24 -29.5l-129 -176l-10 -7q1 7 2 21t2 20q4 100 8 144v73q5 118 5 138q1 22 -1.5 66t-1.5 67q2 22 -16 45.5t-43 30.5q-22 6 -22 -11q-1 -6 -1.5 -17t-1.5 -17q-4 -52 -8 -76q-4 -44 -8 -62q0 -2 -12 -55l-6 -70q-2 -20 -6.5 -57.5t-6.5 -56.5q0 -4 -6 -52l-6 -57 q-5 -58 -6 -70q-12 -86 -16 -129q0 -12 16 -32q9 -12 22 -25q3 -6 3 -12l-37 -105q-5 -16 -13.5 -49.5t-13.5 -50.5q-37 -115 -113 -315q-29 -94 -41 -138q-31 -99 -41 -139q-4 -17 -9 -50t-9 -50zM459 1921q-3 5 3 18.5t17 20.5q4 26 31 12q24 -9 43 -41.5t10 -46.5 q-5 -10 -14 -16q-18 -10 -51 14zM713 1917q-16 16 10 47q2 12 17 15.5t32 -3.5q28 -10 47 -44t8 -50q-3 -7 -14 -18h-2q-8 -4 -10 -4q-16 -2 -32.5 6.5t-20.5 21.5q-3 10 -9 13q-5 3 -11 6.5t-9.5 5.5t-5.5 4z" />
<glyph unicode="&#x2c6;" horiz-adv-x="401" d="M41 1374q-3 6 2.5 20.5t12.5 25.5l7 12l105 98v16q-3 -4 -8 -9.5t-18 -19t-17.5 -15.5t-7.5 1q0 4 6 11.5t14 15.5t18.5 17.5t18.5 16t17 13.5t10 8l2 2q16 7 33.5 6t29.5 -8q3 -2 6 -7.5t5 -16.5t3 -17.5t3 -21.5t2 -19q1 -8 5.5 -17.5t13 -20.5t14.5 -18.5t16.5 -19 t13.5 -14.5q9 -11 11 -19t-0.5 -20t-2.5 -20q0 -12 -10 -20t-20 -10t-13 -1q-3 0 -5.5 4t-5 9.5t-3.5 6.5q-15 15 -23 25q-1 1 -5 5.5t-7 10.5t-6 15l-39 63q-1 2 -2 4.5t-4 9t-5 7.5t-5 0q-80 -92 -94 -115l-29 -35q-31 29 -39 41z" />
<glyph unicode="&#x2dc;" horiz-adv-x="483" d="M55 1417q-34 27 4 58q-4 4 -4 10q0 11 29 26.5t66 22.5q23 4 47.5 -6t42 -23.5t18.5 -13.5q24 -6 53 -2l27 18q4 3 9.5 7t12 9.5t9.5 8.5l24 20q21 14 23 15q4 4 12 8q1 0 3 -1t3 -1q8 -8 8 -37v-14q0 -15 -6 -19q-3 -2 -7 -8.5t-5 -7.5q-3 -3 -11.5 -12t-11.5 -15 q-7 -9 -26 -24q-2 -2 -7.5 -5t-8.5 -6.5t-3 -7.5q-7 -4 -19 -5.5t-20 -1.5l-8 1l-24 2q-7 -8 -15 -8q-8 2 -55 35q-11 7 -32 14t-33 4q-5 0 -9 -2q-35 -29 -35 -37q-1 -5 -2 -7.5t-3 -8t-4.5 -7.5t-6.5 -1t-10 5t-14 9.5t-11 7.5z" />
<glyph unicode="&#x2000;" horiz-adv-x="1065" />
<glyph unicode="&#x2001;" horiz-adv-x="2131" />
<glyph unicode="&#x2002;" horiz-adv-x="1065" />
<glyph unicode="&#x2003;" horiz-adv-x="2131" />
<glyph unicode="&#x2004;" horiz-adv-x="710" />
<glyph unicode="&#x2005;" horiz-adv-x="532" />
<glyph unicode="&#x2006;" horiz-adv-x="355" />
<glyph unicode="&#x2007;" horiz-adv-x="355" />
<glyph unicode="&#x2008;" horiz-adv-x="266" />
<glyph unicode="&#x2009;" horiz-adv-x="426" />
<glyph unicode="&#x200a;" horiz-adv-x="118" />
<glyph unicode="&#x2010;" horiz-adv-x="768" d="M16 709v2q-2 36 18 69t52 37q120 13 219 21q130 9 218.5 19.5t201.5 19.5q33 0 43 -23q-31 -8 -89 -36t-87 -36q-37 -9 -70.5 -18t-48.5 -13t-44 -8t-75 -8q-26 -2 -56.5 -4.5t-49 -4t-33.5 -3.5q-10 -3 -28 -6.5t-30.5 -7t-17.5 -7.5q-14 -7 -53.5 -9t-50.5 3 q-10 4 -17 11q-2 0 -2 2z" />
<glyph unicode="&#x2011;" horiz-adv-x="768" d="M16 709v2q-2 36 18 69t52 37q120 13 219 21q130 9 218.5 19.5t201.5 19.5q33 0 43 -23q-31 -8 -89 -36t-87 -36q-37 -9 -70.5 -18t-48.5 -13t-44 -8t-75 -8q-26 -2 -56.5 -4.5t-49 -4t-33.5 -3.5q-10 -3 -28 -6.5t-30.5 -7t-17.5 -7.5q-14 -7 -53.5 -9t-50.5 3 q-10 4 -17 11q-2 0 -2 2z" />
<glyph unicode="&#x2012;" horiz-adv-x="768" d="M16 709v2q-2 36 18 69t52 37q120 13 219 21q130 9 218.5 19.5t201.5 19.5q33 0 43 -23q-31 -8 -89 -36t-87 -36q-37 -9 -70.5 -18t-48.5 -13t-44 -8t-75 -8q-26 -2 -56.5 -4.5t-49 -4t-33.5 -3.5q-10 -3 -28 -6.5t-30.5 -7t-17.5 -7.5q-14 -7 -53.5 -9t-50.5 3 q-10 4 -17 11q-2 0 -2 2z" />
<glyph unicode="&#x2013;" horiz-adv-x="1039" d="M15 709v2q-2 36 25 69t71 37q163 13 298 21q177 9 297.5 19.5t273.5 19.5q45 0 59 -23q-42 -8 -121 -36t-119 -36q-50 -9 -95.5 -18t-66 -13t-60 -8t-102.5 -8q-35 -2 -76.5 -4.5t-66.5 -4t-46 -3.5q-13 -3 -37.5 -6.5t-41.5 -7t-24 -7.5q-19 -7 -73 -9t-69 3 q-13 4 -23 11q-3 0 -3 2z" />
<glyph unicode="&#x2014;" horiz-adv-x="2063" d="M15 709v2q-5 36 49.5 69t141.5 37q327 13 596 21q354 9 595 19.5t549 19.5q90 0 117 -23q-84 -8 -242 -36t-237 -36q-101 -9 -192 -18t-132 -13t-120 -8t-204 -8q-71 -2 -154 -4.5t-133.5 -4t-91.5 -3.5q-27 -3 -76 -6.5t-83 -7t-48 -7.5q-38 -7 -145.5 -9t-137.5 3 q-27 4 -46 11q-6 0 -6 2z" />
<glyph unicode="&#x2018;" horiz-adv-x="1228" />
<glyph unicode="&#x2019;" horiz-adv-x="1228" />
<glyph unicode="&#x201c;" horiz-adv-x="536" d="M164 1159q5 6 37 21t35 24q25 71 66 171.5t67 172.5q1 10 2.5 16t-4 13.5t-9 11.5t-13.5 10t-16.5 9.5t-18.5 9.5t-19 10q-74 -176 -92 -235q-31 -105 -35 -234zM371 1161q5 6 18.5 2t23 -7.5t13.5 3.5q22 59 71.5 185.5t77.5 205.5q9 28 -24 60q-31 30 -51 17 q-5 -3 -8 -9q-72 -170 -89 -230q-28 -97 -32 -227z" />
<glyph unicode="&#x201d;" horiz-adv-x="536" d="M184 1262q-9 -27 24 -59q31 -30 52 -18q5 3 8 9q4 9 21 50.5t19.5 49t16 41.5t16 43.5t12 38.5t11.5 42.5t7.5 40.5t7 48t3.5 48.5t3 56.5q-5 -6 -18.5 -2t-23 7.5t-13.5 -3.5q-17 -47 -67.5 -179t-78.5 -214zM388.5 1250q-1.5 -6 4 -13.5t9 -11.5t13.5 -10t16.5 -9.5 t18.5 -9.5t19 -10q5 12 23 56.5t22 55t18 47t17.5 49.5t13.5 44.5t12.5 50.5t7.5 49t6.5 58.5t2.5 60.5q-5 -6 -37 -22t-35 -25q-25 -72 -65 -172t-64 -172q-1 -10 -2.5 -16z" />
<glyph unicode="&#x2022;" horiz-adv-x="399" d="M0 700q6 -13 2 -24q-3 -10 0 -19q10 -31 12 -34q18 -31 27 -39q1 -1 10.5 -9t16.5 -12q3 -1 6 -3.5t6 -2.5q5 -1 12 -4t12 -4q7 -1 20 -5t21 -5q5 0 14.5 -1t14.5 -1h23q6 0 17 1t17 1q7 0 9 2q4 0 16 4q34 10 37 14q2 2 4 2l27 19q3 2 5 4t3 3.5t2 2.5l16 18q4 4 4 6 q3 5 10 14t9 13q5 8 8 16v5q6 4 6 16q0 1 2 4t2 4q0 3 3 8t3 8v25q0 2 1 7.5t1 8.5q0 21 -2 31q0 7 -4 23q-5 5 2 8q1 1 0.5 3.5t-2.5 2.5q-2 4 -6 8q-4 3 -2.5 11.5t-5.5 9.5v4l2 2q-2 5 -5 16.5t-5 16.5v8v4q-7 11 -9 16q-1 2 -2 7.5t-2 7.5q-2 4 -10 12q-1 1 -3 2 q-3 1 -3 2q-3 4 -25 10q-12 4 -18 4q-4 2 -9.5 3.5t-9.5 2.5t-6 3l-8 4t-10 4q-3 1 -9 4t-9 4q-10 5 -11 6q-6 6 -20 2q-4 -2 -14.5 -5t-14.5 -5q-12 -4 -18 -10q-4 -8 -17 -11q-15 -7 -16 -10q-2 -2 -6 -14q0 -2 -4 -6q-13 -13 -17 -19q-1 -1 -1 -2t-1 -2l-20 -24l-2 -5 q4 -2 -4 -10q-6 -3 -9 -6l-12 -22q-1 0 -1 -2t-1 -3t-5 -7t-5 -9q-1 -2 -2 -7t-2 -7t-2 -6t-2 -5l-13 -18q2 0 2 -2q0 -1 1 -2.5t1 -3.5t-2 -4q-6 -3 -6 -10q0 -5 -4 -9l-6 -20q0 -2 1 -5.5t0.5 -6t-3.5 -5.5z" />
<glyph unicode="&#x2026;" horiz-adv-x="1017" d="M45 141q13 20 23 25h2q8 4 14 4q23 3 45.5 -8.5t28.5 -30.5q6 -12 12 -18q32 -16 37 -23q23 -23 -14 -65q-1 -11 -11.5 -18t-25.5 -7.5t-31 6.5q-39 17 -66.5 64t-13.5 71zM358 99q6 19 21 34q0 10 4 15.5t15 3t26 -16.5q31 6 64.5 -31t23.5 -59q-6 -18 -16 -25h-2 q-21 -11 -41 -5t-54 28q-31 27 -39 31q-8 6 -2 25zM678 131q7 20 16 23l2 2q29 21 72 -13q5 -3 61 -45q7 -5 1.5 -24.5t-21.5 -32.5q0 -16 -10 -23.5t-29 -1.5q-35 10 -68 52t-24 63z" />
<glyph unicode="&#x202f;" horiz-adv-x="426" />
<glyph unicode="&#x2039;" horiz-adv-x="1228" />
<glyph unicode="&#x203a;" horiz-adv-x="1228" />
<glyph unicode="&#x205f;" horiz-adv-x="532" />
</font>
</defs>
</svg>
